
<svg xmlns="http://www.w3.org/2000/svg" version="1.1" xmlns:xlink="http://www.w3.org/1999/xlink" preserveAspectRatio="none" x="0px" y="0px" width="221px" height="105px" viewBox="0 0 221 105">
<defs>
<g id="Layer0_0_FILL">
<path fill="#D03F33" stroke="none" d="
M 41.9 70
Q 38.1 74 34.45 78.6
L 34.45 104.45 41.9 104.45 41.9 70
M 30.9 83.1
Q 27.05 88.1 23.2 93.6
L 23.2 104.45 30.9 104.45 30.9 83.1
M 184.45 78.25
Q 180.8 74.1 177.25 70.3
L 177.25 104.45 184.45 104.45 184.45 78.25
M 196.6 93.05
Q 192.5 87.7 188.45 82.9
L 188.45 104.45 196.6 104.45 196.6 93.05
M 215.95 8.95
L 215.95 0 5.75 0 5.75 8.95 24.2 8.95 24.2 12.4 24 12.4 24 66.4
Q 11.55 82.85 0 104.45
L 6 104.45
Q 7.35 101.95 14.2 90.7 17.65 84.95 22.55 77 23.25 75.8 24 74.6 25.55 72.35 30.1 66.5 32.15 63.85 33.5 62.2 34.65 60.7 35.25 59.95 38.9 55.65 42.7 51.85 43.65 50.85 48.25 46.75 48.75 46.25 49.35 45.7 56.1 39.65 59.3 37.4 59.5 37.15 59.55 37.2 64.05 33.9 68.7 31.3 73.8 28.35 79.05 26.15
L 79.4 26
Q 83.2 24.4 91.3 21.9 92.1 21.7 96.45 20.8 99.8 20.15 102.85 19.85 103.7 19.75 104.55 19.7 108.3 19.45 110.05 19.45 110.35 19.4 110.65 19.45 118.3 19.55 125.8 21.3
L 128.4 21.9
Q 128.55 21.9 128.75 21.95 136.15 23.8 143.45 27.25 143.55 27.2 145.65 28.3 145.8 28.35 145.95 28.45 147.4 29.2 149.35 30.35 153.5 32.75 159.9 36.95
L 161.35 38.2
Q 161.45 38.25 161.6 38.35 162.5 39.05 163.75 40.05 165.6138671875 41.579296875 168.3 43.8 168.4240234375 43.89609375 168.55 44 172.8 47.6 172.8 47.7
L 172.7 47.75
Q 173.2 48.2 173.7 48.7 173.8 48.75 173.95 48.9 175.6 50.4 177.2 52.1 177.65 52.55 178.05 53 181.4 56.45 184.8 60.3 184.8 60.25 184.95 60.3
L 185.25 60.95
Q 185.45 61.2 185.7 61.45 185.8 61.6 185.95 61.7 187.55 63.65 189.15 65.65
L 190.9 64.4 189.15 65.65
Q 189.2 65.7 189.25 65.75 191.65 68.7 194.1 71.9 194.1 71.85 195 73.1 195.1 73.2 195.2 73.35 196.3 74.85 197.4 76.4 198.5 77.95 199.65 79.55 202.55 83.75 205.45 88.2
L 205.95 89.1
Q 206.05 89.25 206.15 89.45 206.55 90.05 206.95 90.7
L 208.95 94
Q 208.9 93.9 208.9 93.85 210.107421875 95.8046875 211.3 97.8 213.2189453125 101.0580078125 215.1 104.45
L 220.8 104.45
Q 216.0923828125 96.1447265625 211.3 88.55 204.43671875 77.75390625 197.4 68.45
L 197.4 8.95 215.95 8.95
M 185.25 8.95
L 189.25 8.95 189.25 58.35
Q 187.3 56.05 185.25 53.85
L 185.25 40.7 185.45 40.7 185.45 13.45 185.25 13.45 185.25 8.95
M 178.05 46.3
Q 173.2126953125 41.5201171875 168.3 37.4 138.9888671875 13.0646484375 107 13.45 104.9 13.6 102.85 13.85 70.9 17.65 42.85 44.9
L 42.85 13.45 42.7 13.45 42.7 8.95 178.05 8.95 178.05 46.3
M 31.7 8.95
L 35.25 8.95 35.25 52.75
Q 33.5 54.7 31.7 56.85
L 31.7 8.95 Z"/>

<path fill="#FFFFFF" stroke="none" d="
M 17.7 92.45
L 14.2 90.7
Q 7.35 101.95 6 104.45
L 10.25 104.45
Q 11.65 101.95 16.55 94.25 17.15 93.3 17.7 92.45
M 14.2 90.7
L 17.7 92.45
Q 21.65 86.25 23.2 84.1 23.6 83.5 26.3 79.9
L 22.55 77
Q 17.65 84.95 14.2 90.7
M 37.7 66.05
L 33.5 62.2
Q 32.15 63.85 30.1 66.5 25.55 72.35 24 74.6 23.25 75.8 22.55 77
L 26.3 79.9
Q 26.35 79.8 26.45 79.7 29.5 75.65 30.9 73.95 32.7 71.7 34.45 69.65 35.8 68.15 37.55 66.2 37.6 66.1 37.7 66.05
M 35.25 59.95
Q 34.65 60.7 33.5 62.2
L 37.7 66.05
Q 40.65 62.8 41.9 61.6 44.05 59.45 51.75 53.1 52.25 52.7 52.75 52.3
L 48.25 46.75
Q 43.65 50.85 42.7 51.85 38.9 55.65 35.25 59.95
M 59.3 37.4
Q 56.1 39.65 49.35 45.7 48.75 46.25 48.25 46.75
L 52.75 52.3
Q 60.3 46.15 63.35 44.25 63.65 44.05 63.6 44.05 68 41.2 72.6 39
L 68.7 31.3
Q 64.05 33.9 59.55 37.2 59.5 37.15 59.3 37.4
M 84 34.45
Q 85.45 33.9 94.3 31.75
L 91.3 21.9
Q 83.2 24.4 79.4 26
L 79.05 26.15
Q 73.8 28.35 68.7 31.3
L 72.6 39
Q 77.45 36.65 80 35.85 82.5 35 84 34.45
M 110.05 19.45
Q 108.3 19.45 104.55 19.7 103.7 19.75 102.85 19.85 99.8 20.15 96.45 20.8 92.1 21.7 91.3 21.9
L 94.3 31.75
Q 95.2 31.55 96.75 31.25 98.25 30.9 101 30.65 101.95 30.55 102.85 30.5 104.5 30.4 105.95 30.35 108.1 30.25 110.05 30.3
L 110.05 19.45
M 161.6 38.35
Q 161.45 38.25 161.35 38.2
L 159.9 36.95
Q 153.5 32.75 149.35 30.35
L 143.7 38.35
Q 150.35 41.35 153.55 43.3
L 158.15 46.4 163.75 40.05
Q 162.5 39.05 161.6 38.35
M 128.4 21.9
L 125.8 21.3
Q 118.3 19.55 110.65 19.45 110.35 19.4 110.05 19.45
L 110.05 30.3
Q 115.8 30.35 118.75 30.85 121.7 31.35 121.75 31.4 121.75 31.45 124.55 32.05
L 128.4 21.9
M 128.75 21.95
Q 128.55 21.9 128.4 21.9
L 124.55 32.05
Q 125.8 32.35 127.65 32.75 134.5 34.35 137.7 35.55 137.65 35.6 137.7 35.7
L 143.7 38.35 149.35 30.35
Q 147.4 29.2 145.95 28.45 145.8 28.35 145.65 28.3 143.55 27.2 143.45 27.25 136.15 23.8 128.75 21.95
M 206.95 90.7
L 202.95 92.35 204.85 95.1
Q 209.2 101.4 211.15 104.45
L 215.1 104.45
Q 213.2189453125 101.0580078125 211.3 97.8 210.107421875 95.8046875 208.9 93.85 208.9 93.9 208.95 94
L 206.95 90.7
M 199.65 79.55
L 194.95 81.7
Q 195.7 82.65 196.6 83.7 198.85 86.55 201.05 89.6
L 202.95 92.35 206.95 90.7
Q 206.55 90.05 206.15 89.45 206.05 89.25 205.95 89.1
L 205.45 88.2
Q 202.55 83.75 199.65 79.55
M 189.25 65.75
Q 189.2 65.7 189.15 65.65
L 184.2 69.05
Q 184.35 69.15 184.45 69.3 186.5 71.45 188.45 73.75 188.75 74.1 189.1 74.5 189.05 74.55 194.95 81.7
L 199.65 79.55
Q 198.5 77.95 197.4 76.4 196.3 74.85 195.2 73.35 195.1 73.2 195 73.1 194.1 71.85 194.1 71.9 191.65 68.7 189.25 65.75
M 185.25 60.95
L 184.95 60.3
Q 184.8 60.25 184.8 60.3 181.4 56.45 178.05 53 177.65 52.55 177.2 52.1
L 171.7 56.9
Q 175.4 60.1 177.25 61.9 178.1 62.6 178.9 63.4 178.8 63.5 184.2 69.05
L 189.15 65.65
Q 187.55 63.65 185.95 61.7 185.8 61.6 185.7 61.45 185.45 61.2 185.25 60.95
M 173.7 48.7
Q 173.2 48.2 172.7 47.75
L 172.8 47.7
Q 172.8 47.6 168.55 44 168.4240234375 43.89609375 168.3 43.8 165.6138671875 41.579296875 163.75 40.05
L 158.15 46.4
Q 163.35 49.9 165.75 51.8
L 165.75 51.85 170.1 55.55
Q 170.95 56.25 171.7 56.9
L 177.2 52.1
Q 175.6 50.4 173.95 48.9 173.8 48.75 173.7 48.7 Z"/>

<path fill="#B7362B" stroke="none" d="
M 184.45 69.3
Q 184.35 69.15 184.2 69.05 178.8 63.5 178.9 63.4 178.1 62.6 177.25 61.9 175.4 60.1 171.7 56.9 170.95 56.25 170.1 55.55
L 165.75 51.85 165.75 51.8
Q 163.35 49.9 158.15 46.4
L 153.55 43.3
Q 150.35 41.35 143.7 38.35
L 137.7 35.7
Q 137.65 35.6 137.7 35.55 134.5 34.35 127.65 32.75 125.8 32.35 124.55 32.05 121.75 31.45 121.75 31.4 121.7 31.35 118.75 30.85 115.8 30.35 110.05 30.3 108.1 30.25 105.95 30.35 104.5 30.4 102.85 30.5 101.95 30.55 101 30.65 98.25 30.9 96.75 31.25 95.2 31.55 94.3 31.75 85.45 33.9 84 34.45 82.5 35 80 35.85 77.45 36.65 72.6 39 68 41.2 63.6 44.05 63.65 44.05 63.35 44.25 60.3 46.15 52.75 52.3 52.25 52.7 51.75 53.1 44.05 59.45 41.9 61.6 40.65 62.8 37.7 66.05 37.6 66.1 37.55 66.2 35.8 68.15 34.45 69.65 32.7 71.7 30.9 73.95 29.5 75.65 26.45 79.7 26.35 79.8 26.3 79.9 23.6 83.5 23.2 84.1 21.65 86.25 17.7 92.45 17.15 93.3 16.55 94.25 11.65 101.95 10.25 104.45
L 15.95 104.45
Q 19.55 98.75 23.2 93.6 27.05 88.1 30.9 83.1 32.7 80.8 34.45 78.6 38.1 74 41.9 70 70.15 38.8 102.85 36.2 105.85 35.95 108.85 35.95 139.4728515625 35.8203125 168.3 61.6 172.7966796875 65.6443359375 177.25 70.3 180.8 74.1 184.45 78.25 186.45 80.45 188.45 82.9 192.5 87.7 196.6 93.05 200.8 98.5 204.95 104.45
L 211.15 104.45
Q 209.2 101.4 204.85 95.1
L 202.95 92.35 201.05 89.6
Q 198.85 86.55 196.6 83.7 195.7 82.65 194.95 81.7 189.05 74.55 189.1 74.5 188.75 74.1 188.45 73.75 186.5 71.45 184.45 69.3 Z"/>
</g>

<path id="Layer0_0_1_STROKES" stroke="#999999" stroke-width="1" stroke-linejoin="round" stroke-linecap="round" fill="none" d="
M 211.15 104.45
L 215.1 104.45
M 6 104.45
L 10.25 104.45
M 190.9 64.4
L 189.15 65.65 184.2 69.05
M 194.95 81.7
L 199.65 79.55
M 171.7 56.9
L 177.2 52.1
M 202.95 92.35
L 206.95 90.7
M 143.7 38.35
L 149.35 30.35
M 124.55 32.05
L 128.4 21.9
M 158.15 46.4
L 163.75 40.05
M 110.05 19.45
L 110.05 30.3
M 94.3 31.75
L 91.3 21.9
M 68.7 31.3
L 72.6 39
M 33.5 62.2
L 37.7 66.05
M 14.2 90.7
L 17.7 92.45
M 22.55 77
L 26.3 79.9
M 48.25 46.75
L 52.75 52.3"/>
</defs>

<g transform="matrix( 1, 0, 0, 1, 0,0) ">
<use xlink:href="#Layer0_0_FILL"/>

<use xlink:href="#Layer0_0_1_STROKES"/>
</g>
</svg>
