<?xml version="1.0" standalone="no"?>
<!DOCTYPE svg PUBLIC "-//W3C//DTD SVG 20010904//EN"
 "http://www.w3.org/TR/2001/REC-SVG-20010904/DTD/svg10.dtd">
<svg version="1.0" xmlns="http://www.w3.org/2000/svg"
 width="1080.000000pt" height="1920.000000pt" viewBox="0 0 1080.000000 1920.000000"
 preserveAspectRatio="xMidYMid meet">
<metadata>
Created by potrace 1.15, written by Peter Selinger 2001-2017
</metadata>
<g transform="translate(0.000000,1920.000000) scale(0.100000,-0.100000)"
fill="#000000" stroke="none">
<path d="M4137 17693 c-4 -37 -18 -99 -31 -138 -37 -108 -47 -164 -51 -277 -4
-121 -17 -156 -89 -230 -25 -27 -43 -48 -40 -48 2 0 0 -9 -6 -20 -6 -11 -15
-18 -20 -15 -5 3 -27 -33 -50 -80 -32 -68 -57 -103 -121 -168 -89 -90 -131
-161 -154 -258 -11 -49 -23 -71 -56 -105 -24 -24 -45 -41 -48 -38 -6 6 -22 54
-53 164 -44 152 -22 420 43 537 16 29 29 63 28 75 0 23 0 23 -10 -2 -6 -13
-14 -27 -18 -30 -5 -3 -23 -30 -42 -60 -18 -30 -39 -59 -45 -65 -6 -5 -14 -39
-17 -75 -5 -63 -30 -156 -47 -174 -5 -5 -20 31 -35 80 -31 105 -60 166 -97
201 -14 14 -24 32 -21 39 6 15 -20 17 -72 5 l-30 -8 41 -11 c63 -18 70 -30
146 -257 16 -49 36 -100 44 -112 16 -26 54 -119 60 -147 2 -11 14 -35 28 -55
27 -40 35 -65 66 -201 12 -52 33 -133 47 -180 14 -47 25 -100 24 -117 0 -18 9
-63 21 -100 19 -60 22 -87 20 -238 -3 -194 -5 -201 -101 -350 -76 -117 -99
-163 -112 -226 -15 -68 -83 -173 -176 -273 -76 -80 -143 -199 -158 -277 -9
-49 -27 -73 -129 -179 -98 -102 -113 -130 -112 -210 1 -52 6 -62 81 -173 137
-202 190 -283 210 -323 11 -21 25 -44 31 -51 29 -30 84 -313 84 -428 0 -112 6
-186 25 -285 35 -185 32 -237 -40 -625 -14 -71 -27 -148 -31 -170 -9 -62 -35
-146 -55 -185 -11 -19 -19 -41 -19 -48 0 -31 -42 -124 -94 -207 -31 -49 -63
-105 -71 -124 -8 -18 -39 -74 -69 -125 -29 -50 -61 -114 -70 -143 -37 -113
-105 -191 -271 -309 -154 -109 -269 -164 -375 -179 -25 -3 -57 -8 -71 -11 -21
-4 -35 3 -64 33 -57 58 -65 74 -86 179 -15 72 -38 135 -84 234 -161 345 -283
580 -325 626 -21 23 -43 50 -48 61 -14 25 -65 179 -86 258 -8 33 -43 158 -77
278 -55 198 -62 231 -70 359 -5 77 -15 168 -23 202 -8 33 -20 115 -26 181 -5
66 -17 142 -25 169 -17 57 -20 182 -4 223 6 15 15 92 19 171 11 161 20 191
107 335 29 48 53 90 53 93 0 3 10 18 21 33 12 16 19 34 15 39 -9 15 78 169
161 285 18 24 40 64 49 88 10 24 29 62 43 84 34 54 84 208 116 357 14 68 30
138 35 157 6 24 6 39 -2 48 -7 9 -7 13 1 13 15 0 66 126 109 268 10 33 21 52
31 53 9 0 11 3 5 5 -15 6 -5 60 15 78 9 9 43 43 75 76 54 54 92 80 70 47 -5
-7 -2 -5 8 5 9 10 21 18 27 18 15 0 25 21 13 29 -8 5 -8 14 2 31 7 14 17 34
23 45 16 32 32 85 25 85 -4 0 -20 -23 -36 -51 -16 -29 -47 -77 -70 -107 l-41
-55 -3 44 c-2 24 -7 48 -11 54 -5 5 -9 64 -10 130 -2 115 -1 122 24 159 21 31
24 41 13 47 -8 5 -19 2 -30 -9 -24 -25 -58 -236 -55 -347 2 -88 1 -92 -47
-195 -57 -124 -116 -297 -116 -340 0 -20 -5 -30 -15 -30 -10 0 -15 10 -15 28
0 15 -7 61 -16 102 -14 69 -14 84 1 183 15 100 15 130 -1 114 -7 -7 -28 -113
-47 -242 l-12 -80 -50 3 c-61 5 -51 -16 13 -25 37 -5 41 -8 51 -47 24 -96 23
-195 -3 -318 -14 -64 -32 -132 -40 -150 -7 -18 -24 -60 -36 -93 -12 -33 -44
-94 -70 -135 -26 -41 -63 -100 -81 -131 -19 -31 -69 -94 -112 -140 -63 -68
-81 -95 -94 -139 -22 -76 -37 -104 -99 -177 -36 -43 -54 -72 -54 -90 0 -26 -1
-27 -14 -8 -7 11 -17 56 -21 100 -7 78 -45 290 -64 350 -5 17 -21 53 -35 80
-31 59 -66 177 -66 222 0 18 9 54 19 81 11 29 20 73 20 107 0 49 -5 64 -30 94
-47 59 -100 197 -100 261 0 60 -65 258 -80 243 -4 -4 10 -52 31 -107 41 -101
47 -130 30 -141 -15 -10 -12 -50 10 -112 21 -60 20 -80 -2 -41 -25 46 -83 115
-103 124 -15 7 -21 22 -25 59 -4 35 -7 45 -13 32 -18 -46 -7 -75 60 -153 149
-176 149 -175 161 -249 9 -57 8 -82 -3 -130 -18 -78 -20 -209 -2 -227 27 -27
98 -159 91 -170 -4 -6 -3 -8 3 -5 12 7 14 -4 43 -208 11 -77 32 -193 45 -257
22 -102 24 -133 19 -235 -5 -96 -2 -146 17 -268 31 -203 31 -416 0 -525 -54
-191 -55 -199 -43 -258 12 -59 11 -72 -7 -50 -6 7 -23 29 -39 48 -16 19 -35
53 -41 75 -27 88 -120 253 -207 369 -90 119 -139 203 -164 279 -26 81 -116
221 -184 286 -20 19 -36 38 -36 43 0 4 -15 31 -34 60 -37 58 -151 263 -208
373 -24 47 -44 107 -58 175 -12 58 -26 112 -31 120 -5 9 -9 -63 -9 -175 0
-183 1 -192 23 -225 13 -19 34 -66 47 -105 12 -38 32 -81 45 -95 34 -39 62
-90 81 -150 21 -67 52 -118 116 -190 26 -30 70 -98 96 -150 27 -52 64 -118 83
-147 19 -28 59 -91 89 -139 30 -48 83 -128 116 -178 69 -103 133 -225 159
-305 23 -71 152 -323 197 -386 56 -78 223 -428 258 -540 7 -22 36 -92 66 -155
58 -125 99 -257 114 -361 17 -118 82 -278 174 -424 89 -143 220 -401 311 -615
15 -36 40 -82 56 -102 16 -20 40 -66 54 -102 14 -36 37 -96 51 -133 25 -65 26
-72 15 -147 -8 -57 -17 -86 -33 -103 -18 -19 -23 -40 -30 -131 -17 -226 -31
-294 -76 -370 -55 -93 -176 -205 -245 -228 -28 -9 -69 -15 -91 -14 -23 2 -79
3 -126 3 -47 0 -70 2 -52 4 46 6 40 23 -9 23 -46 0 -175 31 -235 56 -70 30
-231 72 -301 79 -37 4 -97 18 -133 31 -36 12 -126 39 -200 58 -185 48 -295 87
-425 151 -60 30 -120 56 -132 59 -13 4 -32 9 -43 12 -19 5 -20 1 -20 -118 l0
-124 31 -19 c17 -11 42 -27 54 -35 136 -91 170 -111 212 -125 26 -9 61 -25 76
-36 30 -22 146 -59 183 -59 53 0 399 -200 560 -323 39 -30 117 -83 175 -117
57 -34 112 -70 122 -78 10 -9 23 -17 30 -18 7 -1 51 -18 98 -37 89 -35 176
-88 186 -113 3 -8 12 -14 19 -14 28 0 160 -82 201 -125 28 -29 65 -92 111
-187 l69 -143 135 -135 c74 -74 143 -147 152 -161 20 -32 78 -201 112 -329 22
-79 79 -220 114 -280 114 -194 129 -229 169 -390 58 -237 73 -341 74 -505 1
-109 -2 -129 -30 -215 -44 -132 -56 -242 -48 -435 7 -178 28 -394 50 -520 29
-163 73 -578 81 -770 7 -169 -10 -289 -50 -354 -36 -58 -48 -117 -56 -267 l-7
-142 -44 -77 c-33 -58 -53 -82 -81 -96 -21 -10 -43 -19 -50 -19 -7 0 -34 -11
-60 -25 -53 -28 -97 -44 -213 -75 -123 -33 -234 -90 -327 -167 -122 -102 -177
-133 -324 -182 -76 -25 -99 -29 -135 -23 -24 4 -93 5 -154 2 -60 -3 -115 -2
-122 3 -26 19 -217 -30 -343 -88 -278 -127 -459 -200 -539 -219 -75 -17 -312
-61 -383 -71 l-48 -6 0 -60 c0 -49 3 -59 18 -59 16 -1 16 -1 -1 -14 -16 -12
-17 -35 -15 -284 l3 -270 153 74 c169 82 208 93 449 119 241 26 413 45 498 56
44 6 98 12 120 15 22 2 65 8 95 13 30 6 125 13 210 16 85 4 174 11 198 16 51
11 286 127 328 162 39 33 353 184 434 209 79 25 116 22 330 -28 85 -19 198
-42 250 -49 52 -7 183 -26 290 -42 107 -15 233 -28 280 -27 99 0 280 39 361
77 230 107 338 141 541 173 l107 16 111 -27 c61 -14 166 -51 234 -81 69 -30
131 -54 138 -54 8 0 36 -19 61 -43 28 -25 58 -44 74 -45 l28 -2 -32 19 c-17
11 -37 30 -44 43 -6 13 -21 34 -33 47 -20 23 -20 23 -1 18 11 -3 58 -9 103
-13 47 -4 85 -12 87 -18 2 -6 6 -121 8 -256 l5 -244 223 3 c123 1 227 5 231 8
5 2 5 84 1 181 -4 97 -8 213 -8 257 l0 80 105 9 c146 13 260 11 314 -4 70 -19
282 -8 371 20 39 13 100 25 136 27 70 5 73 4 291 -79 l88 -33 -1 -222 c-1
-121 2 -226 5 -232 5 -7 95 -10 276 -9 245 2 270 3 275 19 3 9 3 236 1 505
l-6 487 273 -6 c149 -4 461 -11 692 -17 231 -5 444 -12 473 -16 l52 -5 0 -52
c0 -29 5 -142 10 -252 5 -110 12 -290 15 -400 3 -110 9 -201 13 -202 4 -1 101
3 215 10 l209 12 -2 160 c-1 88 -5 291 -9 450 -3 160 -6 291 -6 292 0 1 63 2
140 3 77 2 159 5 181 7 l41 5 -4 77 c-7 130 24 116 -250 113 -238 -2 -292 -7
-243 -22 14 -5 43 -9 65 -9 69 -2 78 -21 10 -22 -33 0 -85 -5 -115 -10 -30 -5
-203 -13 -385 -18 -181 -6 -379 -15 -440 -21 -60 -6 -155 -12 -210 -14 -55 -2
-161 -7 -235 -10 -74 -4 -290 -11 -480 -16 -311 -9 -481 -20 -549 -36 l-24 -5
6 -250 c3 -137 4 -249 3 -249 -5 0 -259 100 -294 115 -18 8 -63 15 -100 15
-37 1 -96 5 -132 10 -119 16 -294 39 -385 50 -49 7 -137 22 -195 35 -58 13
-117 23 -132 23 -15 0 -39 7 -53 16 -24 15 -25 22 -25 104 0 48 -4 93 -9 101
-7 11 -42 14 -168 13 -87 -1 -191 -4 -232 -8 l-74 -7 6 -58 c3 -33 1 -59 -3
-59 -5 0 -30 4 -57 10 -26 5 -97 19 -158 30 -60 12 -160 37 -222 56 -104 32
-114 37 -155 83 -58 66 -157 141 -308 234 -69 42 -146 98 -172 124 -25 27 -79
102 -119 168 -40 66 -92 148 -116 181 -61 87 -70 115 -83 250 -27 286 -22 471
16 662 27 134 26 174 -6 251 -41 95 -56 254 -40 406 7 60 10 148 7 195 -3 47
-10 236 -15 421 -5 185 -13 342 -17 349 -4 6 -8 143 -9 303 -2 246 -5 303 -21
362 -22 85 -17 248 14 420 61 346 73 416 87 475 18 79 61 169 111 232 135 167
173 218 193 258 14 29 35 53 58 67 21 11 80 61 133 109 183 170 266 231 405
300 106 52 158 70 275 98 198 47 224 48 474 11 50 -7 135 -16 190 -20 55 -4
116 -10 135 -15 128 -31 370 -39 655 -21 147 9 215 28 403 110 87 38 190 57
233 42 47 -16 88 -13 139 10 25 12 85 34 133 50 48 16 105 38 125 49 20 11 45
20 56 20 11 0 45 6 75 14 31 8 103 22 161 32 57 9 120 23 140 32 95 39 348
230 437 329 73 82 165 142 240 158 18 3 35 11 39 16 3 5 27 20 54 34 44 23 48
27 55 72 4 26 19 70 33 97 25 46 101 120 151 146 29 15 172 61 261 85 36 9
121 43 190 75 170 80 217 93 329 94 86 1 94 3 102 22 14 40 126 137 249 217
36 24 47 53 19 51 -32 -3 -182 -100 -249 -161 -37 -35 -78 -67 -91 -72 -13 -5
-67 -14 -119 -21 -109 -14 -172 -31 -250 -70 -133 -66 -529 -194 -547 -177 -9
10 40 91 84 138 52 55 114 97 228 154 104 52 133 93 147 203 30 245 89 390
222 542 62 70 91 95 135 115 31 15 72 41 91 59 19 19 50 41 68 50 43 22 40 31
-10 33 -34 0 -53 -6 -88 -32 -41 -29 -185 -105 -200 -105 -4 0 4 32 16 70 24
72 88 192 132 245 20 24 23 37 19 72 -5 46 -23 77 -39 67 -6 -4 -7 -24 -4 -48
5 -34 2 -48 -16 -73 -13 -18 -38 -53 -57 -79 -18 -25 -38 -64 -43 -86 -14 -62
-72 -209 -153 -383 -96 -206 -119 -269 -140 -385 -9 -52 -23 -106 -30 -120
-20 -39 -97 -106 -157 -136 -122 -62 -240 -196 -278 -319 -7 -22 -30 -78 -52
-125 -21 -47 -44 -97 -51 -113 -8 -18 -40 -43 -93 -75 -67 -38 -102 -69 -191
-167 -109 -120 -185 -180 -302 -239 -29 -15 -55 -25 -58 -22 -3 3 -45 -15 -94
-40 -131 -65 -313 -112 -464 -118 -66 -3 -158 -14 -205 -24 -82 -18 -170 -19
-170 -2 0 5 23 28 51 52 28 24 72 72 97 108 25 36 77 97 116 135 39 39 130
131 201 205 72 74 150 149 175 166 25 17 101 52 169 79 155 61 250 122 320
206 71 84 146 197 137 206 -12 12 -39 -12 -78 -68 -50 -72 -127 -159 -140
-159 -6 0 -44 -20 -84 -45 -39 -25 -91 -52 -114 -60 -54 -19 -139 -19 -164 0
-11 8 -28 15 -38 15 -23 0 -23 4 8 81 14 35 47 127 74 205 27 77 67 177 90
221 41 81 54 130 35 134 -17 3 -111 -202 -165 -359 -53 -153 -74 -196 -145
-297 -23 -33 -49 -76 -59 -95 -31 -66 -207 -289 -267 -339 -53 -45 -79 -60
-79 -47 0 2 15 37 33 77 19 41 37 85 40 99 3 14 22 52 42 85 59 98 102 224 89
260 -10 26 -33 17 -43 -18 -13 -44 -62 -161 -70 -167 -20 -15 -112 -196 -134
-262 -34 -102 -42 -115 -94 -166 -39 -38 -73 -54 -73 -34 0 23 42 224 56 264
22 66 -2 95 -27 31 -14 -36 -32 -23 -51 37 -21 62 -33 79 -49 63 -7 -7 -4 -28
10 -71 25 -73 26 -115 6 -202 -8 -36 -21 -96 -30 -135 -30 -136 -127 -264
-264 -349 -62 -39 -118 -48 -371 -55 -195 -5 -237 -4 -315 12 -49 10 -99 20
-110 21 -11 2 -38 8 -60 14 -22 6 -78 21 -125 32 -119 30 -180 50 -180 60 0 5
-7 7 -15 4 -8 -4 -15 -1 -15 6 0 7 -7 10 -15 6 -8 -3 -15 -1 -15 4 0 5 -6 7
-13 4 -8 -3 -34 2 -58 10 -110 38 -364 48 -564 23 -77 -9 -167 -17 -201 -17
-62 0 -124 15 -124 31 0 22 161 184 229 231 42 28 94 64 116 79 22 15 84 66
139 113 54 47 119 94 143 106 43 20 263 70 311 70 12 0 44 11 70 25 50 25 62
29 267 74 208 46 247 51 490 61 275 11 328 23 530 126 144 74 153 80 140 93
-6 6 -73 -12 -170 -44 -154 -51 -275 -77 -275 -59 1 9 60 57 136 109 63 44
171 175 242 296 55 92 311 342 437 425 56 37 278 105 405 125 140 21 389 111
605 218 192 95 219 106 312 131 39 10 202 126 333 238 25 21 60 48 78 61 39
27 42 46 6 37 -30 -8 -92 -47 -210 -134 -67 -50 -303 -192 -318 -192 -2 0 -45
-23 -96 -51 -52 -28 -103 -51 -114 -52 -12 0 -25 -4 -31 -7 -19 -13 -240 -97
-285 -109 -25 -6 -72 -15 -105 -20 -153 -24 -237 -42 -286 -61 -118 -46 -209
-44 -258 4 -24 25 -25 28 -13 73 7 27 36 84 64 128 28 44 73 116 101 160 27
44 74 111 105 149 101 121 192 266 192 303 0 35 -33 4 -75 -72 -29 -51 -209
-288 -274 -360 -20 -22 -29 -34 -21 -27 28 24 32 11 6 -22 -14 -19 -45 -77
-69 -128 -70 -155 -114 -226 -186 -303 -20 -22 -59 -69 -86 -105 -27 -35 -74
-89 -105 -120 -80 -79 -173 -195 -214 -267 -19 -35 -72 -108 -118 -163 -67
-81 -100 -111 -168 -154 -47 -30 -105 -59 -130 -66 -25 -6 -64 -20 -86 -31
-76 -36 -398 -75 -689 -83 -146 -4 -191 -9 -239 -25 -59 -21 -157 -26 -219
-12 l-28 6 39 61 c22 34 85 108 139 165 55 57 130 142 168 189 153 190 322
377 370 410 24 16 66 59 94 94 29 36 75 79 104 97 73 45 144 105 282 240 66
64 163 149 215 188 116 88 334 287 438 400 73 81 105 105 258 196 36 22 90 55
118 74 28 18 83 46 121 61 39 15 107 46 152 68 44 21 91 42 102 45 25 6 28 37
4 37 -26 0 -119 -29 -233 -72 -103 -39 -260 -82 -268 -73 -3 2 13 30 34 62 91
132 316 342 422 393 37 17 92 53 123 80 98 85 249 167 394 215 137 44 208 56
525 90 74 8 207 26 295 40 135 22 173 32 242 66 46 21 85 39 89 39 10 0 137
88 173 119 19 17 31 34 27 38 -8 8 -51 -13 -152 -74 -81 -49 -201 -93 -342
-123 -95 -21 -161 -30 -372 -50 -350 -34 -522 -74 -717 -170 -103 -49 -123
-56 -123 -41 0 24 56 101 105 142 22 19 71 65 110 102 38 38 104 94 145 124
41 31 107 88 145 128 39 39 95 92 126 118 40 33 63 62 79 99 21 49 22 56 11
175 -6 69 -15 133 -21 143 -5 10 -7 47 -3 86 6 60 13 79 70 171 34 57 63 110
63 118 0 32 -21 11 -71 -70 -29 -47 -57 -89 -62 -92 -15 -9 1 146 23 223 11
37 17 71 14 75 -13 21 -25 5 -43 -58 -21 -73 -35 -228 -37 -413 -3 -267 -68
-423 -232 -552 -35 -27 -66 -57 -69 -66 -8 -23 -54 -61 -75 -62 -9 0 -31 -12
-48 -27 -37 -30 -51 -26 -86 25 -17 25 -23 53 -29 144 -3 62 -13 144 -21 181
-21 103 -18 281 6 358 20 66 20 87 0 48 -11 -20 -15 -17 -49 57 -20 43 -43 95
-51 114 -18 45 -51 102 -57 97 -5 -5 50 -176 67 -208 16 -29 33 -180 30 -271
-1 -37 6 -116 16 -175 31 -198 21 -425 -22 -522 -23 -50 -139 -204 -223 -295
-20 -21 -94 -89 -166 -151 -71 -62 -144 -128 -161 -146 -52 -56 -149 -201
-200 -299 -26 -52 -70 -117 -98 -147 -43 -46 -68 -61 -166 -103 -92 -40 -124
-59 -157 -95 -45 -48 -77 -65 -121 -65 -39 0 -124 -33 -177 -69 -26 -18 -52
-33 -58 -34 -7 -1 -15 -6 -18 -11 -4 -4 -35 -11 -70 -15 -82 -9 -107 -23 -202
-116 -97 -93 -123 -108 -168 -94 -19 5 -91 9 -161 8 -148 -3 -151 -1 -192 90
-49 109 -81 294 -74 431 5 94 45 261 109 454 54 162 65 180 234 390 22 27 66
65 97 85 87 55 198 143 248 197 25 27 67 69 95 93 221 193 233 206 286 283 21
31 42 58 47 60 26 11 139 263 153 343 8 47 68 192 96 232 11 15 43 74 72 129
44 87 62 111 124 165 101 89 124 115 174 192 46 71 48 77 34 77 -5 0 -23 -25
-41 -56 -30 -54 -89 -118 -206 -226 -50 -46 -55 -54 -204 -349 -27 -52 -59
-122 -71 -153 -23 -64 -33 -62 -45 9 -4 22 -25 87 -48 145 -26 64 -47 139 -55
191 -7 47 -16 92 -21 99 -15 24 -24 2 -12 -25 7 -14 16 -63 21 -108 9 -75 44
-194 85 -289 20 -46 21 -117 2 -143 -7 -11 -23 -51 -36 -90 -22 -66 -82 -176
-121 -220 -10 -11 -18 -24 -18 -30 0 -5 -38 -37 -84 -70 -46 -33 -143 -107
-215 -165 -71 -58 -145 -114 -164 -125 l-33 -19 18 28 c25 37 17 41 -23 11
-46 -34 -54 -32 -46 14 7 45 65 246 106 372 31 92 43 150 64 314 9 67 25 130
49 190 20 50 45 135 56 190 33 163 54 215 128 313 18 24 33 48 33 54 0 14 49
139 60 153 8 11 39 106 76 233 25 87 103 276 154 374 17 31 30 64 30 72 0 33
-22 14 -46 -40 -14 -31 -35 -70 -48 -88 -46 -60 -118 -222 -151 -336 -19 -63
-39 -131 -44 -150 -6 -19 -11 -46 -11 -60 0 -31 -70 -137 -138 -211 -48 -51
-52 -53 -68 -37 -15 15 -17 41 -19 195 -2 133 -7 191 -19 228 -9 28 -28 104
-41 170 -26 122 -59 210 -76 199 -6 -3 -8 -13 -5 -22 3 -10 12 -93 21 -187 8
-93 22 -206 30 -250 8 -44 14 -100 13 -125 -1 -25 6 -112 16 -195 16 -138 16
-158 2 -252 -8 -57 -27 -142 -42 -190 -14 -49 -30 -107 -34 -129 -22 -106 -53
-211 -80 -270 -17 -35 -30 -68 -30 -72 0 -4 -11 -23 -24 -42 -61 -91 -119
-224 -211 -490 -42 -122 -105 -255 -127 -269 -10 -6 -24 -8 -31 -5 -16 6 -87
135 -87 159 0 8 -16 32 -35 53 -34 38 -65 124 -65 180 0 13 -7 39 -16 57 -18
39 -14 80 32 352 24 142 26 189 10 172 -14 -14 -76 -392 -75 -456 2 -116 -8
-113 -87 30 -31 56 -72 123 -91 149 -20 28 -42 77 -54 120 -32 117 -82 248
-96 248 -7 0 -13 -3 -13 -6 0 -4 22 -73 50 -154 38 -113 70 -182 139 -304 50
-87 96 -166 104 -175 21 -24 124 -348 164 -516 29 -124 32 -142 33 -201 0 -34
-11 -140 -24 -235 -14 -96 -30 -233 -36 -305 -12 -125 -11 -138 13 -265 37
-195 41 -258 23 -374 -23 -146 -58 -305 -66 -300 -3 2 -12 -17 -19 -43 -6 -27
-25 -68 -41 -92 -17 -25 -30 -50 -30 -56 0 -6 -17 -27 -37 -46 -21 -20 -56
-62 -78 -93 -22 -31 -60 -71 -85 -88 -46 -32 -159 -144 -152 -152 2 -2 -25
-31 -60 -65 -34 -35 -57 -59 -50 -56 6 4 12 5 12 2 0 -2 -28 -22 -62 -44 -72
-44 -171 -84 -192 -76 -7 3 -42 -7 -76 -21 -34 -14 -67 -25 -73 -23 -34 9
-182 106 -203 133 -33 43 -108 197 -144 294 -63 171 -100 372 -99 533 0 128 9
173 48 267 22 53 33 96 36 145 5 82 27 151 91 285 57 118 102 174 162 205 26
13 61 39 78 58 48 51 142 200 204 326 60 120 56 132 -6 17 -89 -166 -236 -336
-311 -359 -27 -9 -29 1 -9 49 8 19 27 83 41 142 15 59 33 123 41 142 12 30 12
42 -2 100 -17 68 -29 91 -47 91 -5 0 -3 -8 5 -17 8 -10 21 -39 28 -65 11 -43
10 -55 -9 -115 -11 -38 -32 -112 -46 -166 -14 -54 -37 -121 -51 -148 -13 -28
-33 -76 -43 -108 -10 -31 -36 -84 -58 -117 -62 -91 -82 -137 -102 -232 -10
-48 -30 -110 -44 -139 -15 -29 -27 -63 -27 -75 0 -13 -16 -68 -36 -123 -20
-55 -49 -142 -65 -192 -15 -51 -34 -104 -42 -119 l-13 -26 -31 26 c-28 24
-131 179 -195 294 -18 31 -35 84 -43 131 -8 44 -23 103 -33 133 -16 45 -18 81
-17 244 l1 192 37 45 c20 25 53 55 72 67 19 12 35 29 35 37 0 9 16 36 36 60
61 75 21 68 -53 -9 -22 -23 -56 -57 -75 -74 -55 -51 -78 -80 -84 -105 -14 -62
-16 -158 -5 -233 6 -44 12 -127 14 -182 1 -56 5 -100 8 -98 4 2 10 -11 13 -30
4 -19 18 -61 32 -95 21 -54 23 -65 12 -88 -8 -16 -28 -31 -52 -40 -36 -12 -44
-11 -85 8 -29 13 -91 27 -165 36 l-119 15 -60 60 c-32 33 -60 67 -61 76 -3 19
-26 29 -26 12 0 -14 33 -64 67 -101 13 -14 28 -39 32 -55 6 -21 13 -28 27 -25
10 2 64 3 119 1 107 -2 136 -12 189 -61 17 -16 59 -37 96 -49 36 -11 77 -28
93 -38 32 -22 77 -80 77 -100 0 -35 62 -121 109 -152 38 -23 55 -44 76 -88 30
-62 75 -195 75 -221 0 -9 21 -77 46 -151 87 -257 103 -322 114 -459 6 -63 15
-132 21 -154 25 -94 -3 -222 -54 -248 -12 -6 -33 -22 -47 -34 -31 -28 -175
-115 -190 -115 -7 0 -24 -9 -39 -19 -37 -26 -58 -30 -185 -35 -108 -4 -113 -3
-247 40 -116 37 -146 51 -189 88 -30 26 -88 59 -140 81 -52 22 -100 50 -118
68 -35 38 -124 173 -178 272 -21 39 -59 102 -84 140 -52 77 -110 200 -134 284
-24 82 -35 240 -34 494 l1 227 54 58 c37 39 71 93 110 172 32 63 76 146 100
184 24 39 43 74 43 78 0 5 17 25 38 46 21 20 64 82 95 137 32 55 74 123 95
151 55 77 192 222 237 253 22 15 69 48 105 73 36 25 74 48 86 52 11 3 34 25
50 49 17 23 61 63 100 89 96 64 204 154 255 211 23 27 74 69 112 95 127 84
242 223 450 544 45 70 95 149 111 175 147 240 202 336 221 388 13 33 46 115
74 183 51 124 84 240 121 427 11 55 22 110 25 122 3 12 15 34 28 50 13 15 41
73 63 128 42 107 88 176 208 309 123 135 187 198 250 244 33 25 88 68 122 96
83 68 134 104 180 127 60 29 101 57 206 136 53 41 123 87 155 102 58 29 118
77 224 181 61 60 128 93 304 150 162 51 308 142 530 329 94 79 125 100 290
196 55 32 137 80 183 106 45 27 85 49 88 49 5 0 97 59 267 172 49 32 95 58
103 58 8 0 39 22 67 49 65 60 85 71 136 71 22 0 42 4 46 10 9 15 -96 0 -140
-21 -22 -11 -58 -30 -80 -43 -22 -14 -58 -35 -80 -47 -22 -12 -62 -38 -89 -57
-46 -34 -49 -35 -62 -17 -11 14 -14 15 -14 4 0 -8 -22 -37 -48 -65 -35 -36
-67 -58 -115 -77 -38 -15 -89 -42 -115 -60 -26 -17 -113 -70 -194 -117 -93
-53 -188 -117 -257 -175 -170 -141 -269 -209 -349 -239 -85 -33 -191 -56 -198
-45 -11 18 29 117 66 164 61 77 80 118 80 173 0 62 31 185 63 249 62 124 75
228 40 311 -52 120 -64 161 -61 209 2 37 0 48 -12 48 -21 0 -19 -80 4 -125 45
-87 55 -136 47 -217 -5 -43 -19 -105 -31 -138 -25 -66 -65 -135 -79 -135 -14
0 -71 31 -71 39 0 3 -28 41 -62 83 -35 43 -71 88 -80 100 -14 18 -17 20 -18 6
0 -9 6 -23 13 -30 7 -7 21 -26 31 -43 11 -16 48 -59 82 -96 35 -37 66 -80 69
-96 4 -15 9 -34 11 -42 3 -8 -3 -60 -12 -115 -16 -94 -21 -106 -70 -176 -43
-61 -194 -223 -278 -300 -9 -8 -51 -50 -92 -93 -73 -75 -201 -169 -344 -252
-37 -22 -101 -64 -142 -92 -194 -140 -245 -171 -339 -210 -115 -48 -130 -56
-199 -118 -28 -25 -57 -45 -64 -45 -22 0 -27 34 -36 275 -11 265 -13 279 -40
270 -15 -5 -24 4 -45 44 -18 36 -31 51 -45 51 -25 0 -25 -14 0 -50 42 -59 58
-115 69 -247 6 -72 15 -141 19 -154 17 -45 34 -195 29 -258 -4 -49 -11 -69
-34 -97 -15 -19 -42 -54 -60 -77 -18 -23 -39 -50 -48 -60 -8 -9 -33 -62 -55
-118 -22 -55 -48 -111 -57 -125 -9 -14 -19 -60 -24 -109 -5 -57 -19 -114 -43
-180 -20 -52 -36 -104 -36 -114 0 -32 -71 -241 -82 -241 -6 0 -7 -7 -4 -16 3
-8 2 -12 -4 -9 -6 3 -10 -1 -10 -10 0 -9 -30 -53 -66 -97 -66 -83 -91 -122
-97 -155 -15 -77 -94 -172 -198 -239 -81 -51 -101 -80 -207 -294 -79 -159
-146 -250 -232 -316 -63 -48 -147 -128 -238 -226 -38 -41 -93 -86 -140 -114
-42 -25 -98 -61 -124 -79 -27 -19 -65 -35 -92 -39 -25 -4 -72 -18 -105 -31
-34 -13 -61 -20 -61 -15 0 21 34 107 57 143 26 42 51 113 108 308 33 114 37
140 46 324 12 254 29 388 56 440 12 22 58 99 103 170 100 158 110 178 144 282
26 78 31 85 89 132 93 74 107 92 132 179 17 59 24 110 26 198 2 66 9 146 17
179 19 86 29 152 47 307 8 75 23 159 33 186 22 58 69 129 112 168 40 37 121
140 159 201 38 61 96 108 131 105 15 -1 41 8 58 20 49 36 173 138 222 182 25
23 70 57 100 75 30 19 84 53 119 75 36 23 73 46 82 51 94 56 121 72 167 102
104 67 222 204 288 334 31 63 60 102 104 144 58 56 74 85 47 85 -7 0 -26 -14
-43 -31 -16 -17 -48 -42 -72 -56 -46 -27 -54 -38 -77 -107 -15 -43 -35 -72
-150 -220 -48 -60 -136 -121 -255 -177 -142 -67 -169 -82 -228 -130 -66 -53
-118 -87 -222 -145 -41 -22 -122 -67 -180 -99 -57 -32 -111 -59 -120 -60 -8
-1 -26 -7 -39 -14 l-24 -13 7 58 c4 33 15 91 26 129 23 86 39 227 35 320 -3
88 -11 115 -35 115 -37 0 -53 -69 -24 -101 14 -16 14 -27 -6 -131 -69 -353
-74 -369 -202 -628 -116 -235 -130 -278 -128 -410 0 -68 8 -130 20 -179 26
-99 25 -126 -10 -191 -16 -30 -48 -93 -71 -140 -23 -47 -49 -98 -57 -115 -8
-16 -32 -46 -52 -67 -21 -20 -56 -73 -79 -119 -23 -45 -50 -94 -60 -108 -10
-14 -33 -55 -51 -91 -49 -99 -73 -124 -151 -164 -80 -40 -90 -38 -109 20 -7
19 -29 69 -49 112 -21 42 -65 136 -99 207 -33 72 -72 151 -87 177 -37 67 -105
228 -105 251 0 10 -14 50 -31 89 -22 51 -29 79 -25 102 8 42 86 144 138 181
36 26 53 52 109 165 37 74 76 141 88 149 12 8 52 53 88 100 51 65 71 102 84
149 10 35 27 78 39 96 11 18 20 46 20 60 0 15 11 42 24 59 53 71 121 224 137
310 7 34 24 94 39 132 29 73 60 206 60 257 0 71 90 326 136 383 65 82 126 184
149 251 13 37 23 70 21 71 -4 4 -68 -86 -97 -137 -14 -25 -49 -88 -78 -140
-29 -52 -61 -102 -71 -112 -29 -27 -110 -320 -110 -397 0 -17 -4 -32 -9 -35
-13 -8 -30 71 -36 166 -3 46 -15 114 -26 152 -16 55 -20 95 -20 196 1 143 3
148 61 285 44 105 124 235 194 320 63 75 111 146 158 232 23 43 44 80 47 83
12 11 49 68 86 133 21 38 45 71 54 74 9 3 34 23 56 44 22 21 78 66 125 101 83
62 147 141 138 170 -3 7 -14 -8 -25 -33 -20 -46 -53 -76 -123 -114 -70 -38
-155 -98 -199 -139 l-43 -41 4 90 c4 68 12 106 33 155 52 126 55 136 46 185
-14 75 -27 74 -34 -2z m-787 -12772 c0 -10 16 -70 35 -132 35 -113 36 -116 37
-309 2 -125 -2 -209 -9 -234 -9 -27 -9 -69 -3 -145 21 -260 13 -763 -15 -891
-3 -14 6 -87 21 -161 22 -112 25 -148 19 -223 -4 -49 -11 -99 -15 -112 -15
-38 -115 -101 -208 -130 -48 -15 -100 -35 -117 -45 -16 -9 -40 -20 -53 -24
-12 -3 -51 -24 -87 -46 -36 -21 -69 -39 -74 -39 -4 0 -44 -24 -87 -53 -44 -29
-104 -65 -134 -80 -31 -14 -75 -43 -98 -63 -23 -20 -82 -56 -132 -80 -49 -24
-91 -48 -94 -53 -29 -47 -378 -169 -491 -171 -83 -2 -402 27 -505 46 -217 40
-326 24 -431 -62 -30 -25 -79 -58 -109 -75 -30 -17 -62 -37 -70 -44 -32 -27
-230 -129 -236 -122 -3 2 8 15 23 28 86 75 202 200 197 213 -7 19 109 173 162
214 45 35 86 40 159 21 22 -6 105 -12 185 -14 134 -2 152 -5 235 -34 148 -53
287 -90 345 -92 86 -4 220 35 338 98 56 30 108 60 115 67 6 7 55 36 107 65
135 76 196 118 216 149 10 15 53 71 97 124 77 95 128 140 234 206 62 40 191
173 197 204 2 13 10 64 16 113 17 123 19 136 29 165 10 28 33 121 55 225 8 39
29 115 46 170 48 152 57 207 64 365 10 221 36 517 52 595 21 105 18 197 -11
290 -28 90 -29 95 -15 95 6 0 10 -8 10 -19z"/>
</g>
</svg>
