<?xml version="1.0" encoding="UTF-8" standalone="no"?>
<svg
   xmlns:dc="http://purl.org/dc/elements/1.1/"
   xmlns:cc="http://creativecommons.org/ns#"
   xmlns:rdf="http://www.w3.org/1999/02/22-rdf-syntax-ns#"
   xmlns:svg="http://www.w3.org/2000/svg"
   xmlns="http://www.w3.org/2000/svg"
   xmlns:xlink="http://www.w3.org/1999/xlink"
   xmlns:sodipodi="http://sodipodi.sourceforge.net/DTD/sodipodi-0.dtd"
   xmlns:inkscape="http://www.inkscape.org/namespaces/inkscape"
   version="1.1"
   preserveAspectRatio="none"
   x="0px"
   y="0px"
   width="163"
   height="105"
   viewBox="0 0 163 105"
   id="svg18"
   sodipodi:docname="arch-cropped.svg"
   inkscape:version="0.92.4 (unknown)">
  <metadata
     id="metadata22">
    <rdf:RDF>
      <cc:Work
         rdf:about="">
        <dc:format>image/svg+xml</dc:format>
        <dc:type
           rdf:resource="http://purl.org/dc/dcmitype/StillImage" />
        <dc:title></dc:title>
      </cc:Work>
    </rdf:RDF>
  </metadata>
  <sodipodi:namedview
     pagecolor="#ffffff"
     bordercolor="#666666"
     borderopacity="1"
     objecttolerance="10"
     gridtolerance="10"
     guidetolerance="10"
     inkscape:pageopacity="0"
     inkscape:pageshadow="2"
     inkscape:window-width="1366"
     inkscape:window-height="704"
     id="namedview20"
     showgrid="false"
     inkscape:zoom="1.5882353"
     inkscape:cx="225.40741"
     inkscape:cy="52.5"
     inkscape:window-x="0"
     inkscape:window-y="27"
     inkscape:window-maximized="1"
     inkscape:current-layer="svg18" />
  <defs
     id="defs10">
    <g
       id="Layer0_0_FILL">
      <path
         d="m 41.9,70 q -3.8,4 -7.45,8.6 v 25.85 H 41.9 V 70 m -11,13.1 q -3.85,5 -7.7,10.5 v 10.85 h 7.7 V 83.1 m 153.55,-4.85 q -3.65,-4.15 -7.2,-7.95 v 34.15 h 7.2 v -26.2 m 12.15,14.8 Q 192.5,87.7 188.45,82.9 v 21.55 h 8.15 V 93.05 M 215.95,8.95 V 0 H 5.75 V 8.95 H 24.2 V 12.4 H 24 v 54 Q 11.55,82.85 0,104.45 h 6 q 1.35,-2.5 8.2,-13.75 3.45,-5.75 8.35,-13.7 0.7,-1.2 1.45,-2.4 1.55,-2.25 6.1,-8.1 2.05,-2.65 3.4,-4.3 1.15,-1.5 1.75,-2.25 3.65,-4.3 7.45,-8.1 0.95,-1 5.55,-5.1 0.5,-0.5 1.1,-1.05 6.75,-6.05 9.95,-8.3 0.2,-0.25 0.25,-0.2 4.5,-3.3 9.15,-5.9 5.1,-2.95 10.35,-5.15 L 79.4,26 q 3.8,-1.6 11.9,-4.1 0.8,-0.2 5.15,-1.1 3.35,-0.65 6.4,-0.95 0.85,-0.1 1.7,-0.15 3.75,-0.25 5.5,-0.25 0.3,-0.05 0.6,0 7.65,0.1 15.15,1.85 l 2.6,0.6 q 0.15,0 0.35,0.05 7.4,1.85 14.7,5.3 0.1,-0.05 2.2,1.05 0.15,0.05 0.3,0.15 1.45,0.75 3.4,1.9 4.15,2.4 10.55,6.6 l 1.45,1.25 q 0.1,0.05 0.25,0.15 0.9,0.7 2.15,1.7 1.86387,1.529297 4.55,3.75 0.12402,0.09609 0.25,0.2 4.25,3.6 4.25,3.7 l -0.1,0.05 q 0.5,0.45 1,0.95 0.1,0.05 0.25,0.2 1.65,1.5 3.25,3.2 0.45,0.45 0.85,0.9 3.35,3.45 6.75,7.3 0,-0.05 0.15,0 l 0.3,0.65 q 0.2,0.25 0.45,0.5 0.1,0.15 0.25,0.25 1.6,1.95 3.2,3.95 l 1.75,-1.25 -1.75,1.25 q 0.05,0.05 0.1,0.1 2.4,2.95 4.85,6.15 0,-0.05 0.9,1.2 0.1,0.1 0.2,0.25 1.1,1.5 2.2,3.05 1.1,1.55 2.25,3.15 2.9,4.2 5.8,8.65 l 0.5,0.9 q 0.1,0.15 0.2,0.35 0.4,0.6 0.8,1.25 l 2,3.3 q -0.05,-0.1 -0.05,-0.15 1.20742,1.954687 2.4,3.95 1.91895,3.25801 3.8,6.65 h 5.7 q -4.70762,-8.305273 -9.5,-15.9 -6.86328,-10.796094 -13.9,-20.1 V 8.95 h 18.55 m -30.7,0 h 4 v 49.4 q -1.95,-2.3 -4,-4.5 V 40.7 h 0.2 V 13.45 h -0.2 v -4.5 m -7.2,37.35 Q 173.2127,41.520117 168.3,37.4 138.98887,13.064648 107,13.45 q -2.1,0.15 -4.15,0.4 -31.95,3.8 -60,31.05 V 13.45 H 42.7 V 8.95 H 178.05 V 46.3 M 31.7,8.95 h 3.55 v 43.8 q -1.75,1.95 -3.55,4.1 z"
         id="path2"
         inkscape:connector-curvature="0"
         style="fill:#d03f33;stroke:none" />
      <path
         d="M 17.7,92.45 14.2,90.7 Q 7.35,101.95 6,104.45 h 4.25 q 1.4,-2.5 6.3,-10.2 0.6,-0.95 1.15,-1.8 m -3.5,-1.75 3.5,1.75 q 3.95,-6.2 5.5,-8.35 0.4,-0.6 3.1,-4.2 L 22.55,77 q -4.9,7.95 -8.35,13.7 M 37.7,66.05 33.5,62.2 q -1.35,1.65 -3.4,4.3 -4.55,5.85 -6.1,8.1 -0.75,1.2 -1.45,2.4 l 3.75,2.9 q 0.05,-0.1 0.15,-0.2 3.05,-4.05 4.45,-5.75 1.8,-2.25 3.55,-4.3 1.35,-1.5 3.1,-3.45 0.05,-0.1 0.15,-0.15 m -2.45,-6.1 q -0.6,0.75 -1.75,2.25 l 4.2,3.85 q 2.95,-3.25 4.2,-4.45 2.15,-2.15 9.85,-8.5 0.5,-0.4 1,-0.8 l -4.5,-5.55 q -4.6,4.1 -5.55,5.1 -3.8,3.8 -7.45,8.1 M 59.3,37.4 q -3.2,2.25 -9.95,8.3 -0.6,0.55 -1.1,1.05 l 4.5,5.55 q 7.55,-6.15 10.6,-8.05 0.3,-0.2 0.25,-0.2 4.4,-2.85 9,-5.05 l -3.9,-7.7 q -4.65,2.6 -9.15,5.9 -0.05,-0.05 -0.25,0.2 M 84,34.45 q 1.45,-0.55 10.3,-2.7 l -3,-9.85 Q 83.2,24.4 79.4,26 l -0.35,0.15 Q 73.8,28.35 68.7,31.3 l 3.9,7.7 q 4.85,-2.35 7.4,-3.15 2.5,-0.85 4,-1.4 m 26.05,-15 q -1.75,0 -5.5,0.25 -0.85,0.05 -1.7,0.15 -3.05,0.3 -6.4,0.95 -4.35,0.9 -5.15,1.1 l 3,9.85 q 0.9,-0.2 2.45,-0.5 1.5,-0.35 4.25,-0.6 0.95,-0.1 1.85,-0.15 1.65,-0.1 3.1,-0.15 2.15,-0.1 4.1,-0.05 V 19.45 m 51.55,18.9 q -0.15,-0.1 -0.25,-0.15 l -1.45,-1.25 q -6.4,-4.2 -10.55,-6.6 l -5.65,8 q 6.65,3 9.85,4.95 l 4.6,3.1 5.6,-6.35 q -1.25,-1 -2.15,-1.7 M 128.4,21.9 125.8,21.3 q -7.5,-1.75 -15.15,-1.85 -0.3,-0.05 -0.6,0 V 30.3 q 5.75,0.05 8.7,0.55 2.95,0.5 3,0.55 0,0.05 2.8,0.65 L 128.4,21.9 m 0.35,0.05 q -0.2,-0.05 -0.35,-0.05 l -3.85,10.15 q 1.25,0.3 3.1,0.7 6.85,1.6 10.05,2.8 -0.05,0.05 0,0.15 l 6,2.65 5.65,-8 q -1.95,-1.15 -3.4,-1.9 -0.15,-0.1 -0.3,-0.15 -2.1,-1.1 -2.2,-1.05 -7.3,-3.45 -14.7,-5.3 m 78.2,68.75 -4,1.65 1.9,2.75 q 4.35,6.3 6.3,9.35 h 3.95 q -1.88105,-3.39199 -3.8,-6.65 -1.19258,-1.995313 -2.4,-3.95 0,0.05 0.05,0.15 l -2,-3.3 m -7.3,-11.15 -4.7,2.15 q 0.75,0.95 1.65,2 2.25,2.85 4.45,5.9 l 1.9,2.75 4,-1.65 q -0.4,-0.65 -0.8,-1.25 -0.1,-0.2 -0.2,-0.35 l -0.5,-0.9 q -2.9,-4.45 -5.8,-8.65 m -10.4,-13.8 q -0.05,-0.05 -0.1,-0.1 l -4.95,3.4 q 0.15,0.1 0.25,0.25 2.05,2.15 4,4.45 0.3,0.35 0.65,0.75 -0.05,0.05 5.85,7.2 l 4.7,-2.15 q -1.15,-1.6 -2.25,-3.15 -1.1,-1.55 -2.2,-3.05 -0.1,-0.15 -0.2,-0.25 -0.9,-1.25 -0.9,-1.2 -2.45,-3.2 -4.85,-6.15 m -4,-4.8 -0.3,-0.65 q -0.15,-0.05 -0.15,0 -3.4,-3.85 -6.75,-7.3 -0.4,-0.45 -0.85,-0.9 l -5.5,4.8 q 3.7,3.2 5.55,5 0.85,0.7 1.65,1.5 -0.1,0.1 5.3,5.65 l 4.95,-3.4 q -1.6,-2 -3.2,-3.95 -0.15,-0.1 -0.25,-0.25 -0.25,-0.25 -0.45,-0.5 M 173.7,48.7 q -0.5,-0.5 -1,-0.95 l 0.1,-0.05 q 0,-0.1 -4.25,-3.7 -0.12598,-0.103906 -0.25,-0.2 -2.68613,-2.220703 -4.55,-3.75 l -5.6,6.35 q 5.2,3.5 7.6,5.4 v 0.05 l 4.35,3.7 q 0.85,0.7 1.6,1.35 l 5.5,-4.8 q -1.6,-1.7 -3.25,-3.2 -0.15,-0.15 -0.25,-0.2 z"
         id="path4"
         inkscape:connector-curvature="0"
         style="fill:#ffffff;stroke:none" />
      <path
         d="m 184.45,69.3 q -0.1,-0.15 -0.25,-0.25 -5.4,-5.55 -5.3,-5.65 -0.8,-0.8 -1.65,-1.5 -1.85,-1.8 -5.55,-5 -0.75,-0.65 -1.6,-1.35 l -4.35,-3.7 V 51.8 q -2.4,-1.9 -7.6,-5.4 l -4.6,-3.1 q -3.2,-1.95 -9.85,-4.95 l -6,-2.65 q -0.05,-0.1 0,-0.15 -3.2,-1.2 -10.05,-2.8 -1.85,-0.4 -3.1,-0.7 -2.8,-0.6 -2.8,-0.65 -0.05,-0.05 -3,-0.55 -2.95,-0.5 -8.7,-0.55 -1.95,-0.05 -4.1,0.05 -1.45,0.05 -3.1,0.15 -0.9,0.05 -1.85,0.15 -2.75,0.25 -4.25,0.6 -1.55,0.3 -2.45,0.5 -8.85,2.15 -10.3,2.7 -1.5,0.55 -4,1.4 -2.55,0.8 -7.4,3.15 -4.6,2.2 -9,5.05 0.05,0 -0.25,0.2 -3.05,1.9 -10.6,8.05 -0.5,0.4 -1,0.8 -7.7,6.35 -9.85,8.5 -1.25,1.2 -4.2,4.45 -0.1,0.05 -0.15,0.15 -1.75,1.95 -3.1,3.45 -1.75,2.05 -3.55,4.3 -1.4,1.7 -4.45,5.75 -0.1,0.1 -0.15,0.2 -2.7,3.6 -3.1,4.2 -1.55,2.15 -5.5,8.35 -0.55,0.85 -1.15,1.8 -4.9,7.7 -6.3,10.2 h 5.7 q 3.6,-5.7 7.25,-10.85 3.85,-5.5 7.7,-10.5 1.8,-2.3 3.55,-4.5 Q 38.1,74 41.9,70 70.15,38.8 102.85,36.2 q 3,-0.25 6,-0.25 30.62285,-0.129688 59.45,25.65 4.49668,4.044336 8.95,8.7 3.55,3.8 7.2,7.95 2,2.2 4,4.65 4.05,4.8 8.15,10.15 4.2,5.45 8.35,11.4 h 6.2 q -1.95,-3.05 -6.3,-9.35 l -1.9,-2.75 -1.9,-2.75 q -2.2,-3.05 -4.45,-5.9 -0.9,-1.05 -1.65,-2 -5.9,-7.15 -5.85,-7.2 -0.35,-0.4 -0.65,-0.75 -1.95,-2.3 -4,-4.45 z"
         id="path6"
         inkscape:connector-curvature="0"
         style="fill:#b7362b;stroke:none" />
    </g>
    <path
       id="Layer0_0_1_STROKES"
       d="m 211.15,104.45 h 3.95 m -209.1,0 h 4.25 M 190.9,64.4 l -1.75,1.25 -4.95,3.4 m 10.75,12.65 4.7,-2.15 M 171.7,56.9 l 5.5,-4.8 m 25.75,40.25 4,-1.65 m -63.25,-52.35 5.65,-8 m -24.8,1.7 3.85,-10.15 m 29.75,24.5 5.6,-6.35 m -53.7,-20.6 V 30.3 m -15.75,1.45 -3,-9.85 m -22.6,9.4 3.9,7.7 m -39.1,23.2 4.2,3.85 M 14.2,90.7 17.7,92.45 M 22.55,77 26.3,79.9 m 21.95,-33.15 4.5,5.55"
       inkscape:connector-curvature="0"
       style="fill:none;stroke:#999999;stroke-width:1;stroke-linecap:round;stroke-linejoin:round" />
  </defs>
  <g
     transform="translate(-59.518516,0.62962963)"
     id="g16">
    <use
       xlink:href="#Layer0_0_FILL"
       id="use12"
       x="0"
       y="0"
       width="100%"
       height="100%" />
    <use
       xlink:href="#Layer0_0_1_STROKES"
       id="use14"
       x="0"
       y="0"
       width="100%"
       height="100%" />
  </g>
</svg>
