<?xml version="1.0" encoding="UTF-8" standalone="no"?>
<svg
   xmlns:dc="http://purl.org/dc/elements/1.1/"
   xmlns:cc="http://creativecommons.org/ns#"
   xmlns:rdf="http://www.w3.org/1999/02/22-rdf-syntax-ns#"
   xmlns:svg="http://www.w3.org/2000/svg"
   xmlns="http://www.w3.org/2000/svg"
   xmlns:xlink="http://www.w3.org/1999/xlink"
   xmlns:sodipodi="http://sodipodi.sourceforge.net/DTD/sodipodi-0.dtd"
   xmlns:inkscape="http://www.inkscape.org/namespaces/inkscape"
   version="1.1"
   preserveAspectRatio="none"
   x="0px"
   y="0px"
   width="1024"
   height="314"
   viewBox="0 0 1024 314"
   id="svg23"
   sodipodi:docname="full-gec.svg"
   inkscape:version="0.92.4 (unknown)">
  <metadata
     id="metadata27">
    <rdf:RDF>
      <cc:Work
         rdf:about="">
        <dc:format>image/svg+xml</dc:format>
        <dc:type
           rdf:resource="http://purl.org/dc/dcmitype/StillImage" />
        <dc:title />
      </cc:Work>
    </rdf:RDF>
  </metadata>
  <sodipodi:namedview
     pagecolor="#ffffff"
     bordercolor="#666666"
     borderopacity="1"
     objecttolerance="10"
     gridtolerance="10"
     guidetolerance="10"
     inkscape:pageopacity="0"
     inkscape:pageshadow="2"
     inkscape:window-width="1366"
     inkscape:window-height="704"
     id="namedview25"
     showgrid="false"
     inkscape:zoom="0.43820225"
     inkscape:cx="400.5"
     inkscape:cy="124"
     inkscape:window-x="0"
     inkscape:window-y="27"
     inkscape:window-maximized="1"
     inkscape:current-layer="svg23" />
  <defs
     id="defs17">
    <g
       id="Layer0_0_FILL">
      <path
         d="m 83.6,96.85 h -5.8 v 11.45 h 5.8 V 96.85 m 18.55,15.4 h -5.8 v 13.05 h 5.8 v -13.05 m 15.55,0 h -5.95 v 13.05 h 5.95 v -13.05 m 18.35,0 h -5.95 v 13.05 h 5.95 v -13.05 m 15.4,0 h -5.8 v 13.05 h 5.8 v -13.05 m -145.65,0 H 0 v 11.15 1.9 h 5.8 v -13.05 m 21.95,0 h -5.8 v 13.05 h 5.8 v -13.05 m 50.05,0 v 13.05 h 5.8 v -13.05 h -5.8 m -28.1,0 h -5.8 v 13.05 h 5.8 v -13.05 m 18.35,0 h -5.8 v 13.05 h 5.8 v -13.05 m 0,-15.4 h -5.8 v 11.45 h 5.8 V 96.85 m 0,-17.1 h -5.8 V 93.2 h 5.8 V 79.75 M 49.7,96.85 h -5.8 v 11.45 h 5.8 V 96.85 M 43.9,93.2 h 5.8 V 79.75 H 43.9 V 93.2 M 49.7,50.8 H 43.9 V 64.75 75.9 h 5.8 V 64.75 50.8 m 18.35,0 h -5.8 V 64.75 75.9 h 5.8 V 64.75 50.8 m -46.1,42.4 h 5.8 V 79.75 h -5.8 V 93.2 m 5.8,3.65 h -5.8 v 11.45 h 5.8 V 96.85 M 0,96.85 v 0.6 10.85 H 5.8 V 96.85 H 0 M 5.8,79.75 H 0 V 93.2 H 5.8 V 79.75 M 5.8,50.8 H 0 V 64.75 75.9 H 5.8 V 64.75 50.8 m 21.95,0 h -5.8 V 64.75 75.9 h 5.8 V 64.75 50.8 m 0,-18.05 h -5.8 v 14.1 h 5.8 v -14.1 m -21.95,0 H 0 v 14.1 H 5.8 V 32.75 M 5.8,11.1 H 0 V 28.9 H 5.8 V 11.1 m 21.95,0 h -5.8 v 17.8 h 5.8 V 11.1 m 40.3,21.65 h -5.8 v 14.1 h 5.8 v -14.1 m -18.35,0 h -5.8 v 14.1 h 5.8 v -14.1 m 0,-21.65 h -5.8 v 17.8 h 5.8 V 11.1 m 18.35,0 h -5.8 v 17.8 h 5.8 V 11.1 m 83.4,85.75 h -5.8 v 11.45 h 5.8 V 96.85 m -5.8,-3.65 h 5.8 V 79.75 h -5.8 V 93.2 m -9.6,3.65 h -5.95 v 11.45 h 5.95 V 96.85 M 130.1,93.2 h 5.95 V 79.75 H 130.1 V 93.2 m 5.95,-42.4 H 130.1 V 64.75 75.9 h 5.95 V 64.75 50.8 m 15.4,0 h -5.8 V 64.75 75.9 h 5.8 V 64.75 50.8 m -49.3,46.05 h -5.8 v 11.45 h 5.8 V 96.85 m 15.55,0 h -5.95 v 11.45 h 5.95 V 96.85 m 0,-17.1 h -5.95 V 93.2 h 5.95 V 79.75 m -21.35,0 V 93.2 h 5.8 V 79.75 h -5.8 M 83.6,93.2 V 79.75 H 77.8 V 93.2 h 5.8 m 0,-28.45 V 50.8 H 77.8 V 64.75 75.9 h 5.8 V 64.75 m 18.55,0 V 50.8 h -5.8 V 64.75 75.9 h 5.8 V 64.75 M 117.7,50.8 h -5.95 V 64.75 75.9 h 5.95 V 64.75 50.8 M 83.6,28.9 V 11.1 h -5.8 v 17.8 h 5.8 m 18.55,-17.8 h -5.8 v 17.8 h 5.8 V 11.1 m 15.55,21.65 h -5.95 v 14.1 h 5.95 v -14.1 m -21.35,0 v 14.1 h 5.8 v -14.1 h -5.8 M 83.6,46.85 v -14.1 h -5.8 v 14.1 h 5.8 M 117.7,11.1 h -5.95 v 17.8 h 5.95 V 11.1 m 33.75,21.65 h -5.8 v 14.1 h 5.8 v -14.1 m -15.4,0 h -5.95 v 14.1 h 5.95 v -14.1 m 0,-21.65 h -5.95 v 17.8 h 5.95 V 11.1 m 15.4,0 h -5.8 v 17.8 h 5.8 V 11.1 m 103.7,101.15 h -5.8 v 13.05 h 5.8 v -13.05 m 17.45,0 h -5.65 v 13.05 h 5.65 v -13.05 m 16.7,13.05 v -13.05 h -5.85 v 13.05 h 5.85 m 18.35,-13.05 h -5.85 v 13.05 h 5.85 v -13.05 m 15.5,0 h -5.95 v 13.05 h 5.95 v -13.05 m -136.75,0 h -5.8 v 13.05 h 5.8 v -13.05 m -17.6,0 h -5.65 v 13.05 h 5.65 v -13.05 m 34.3,13.05 v -13.05 h -5.85 v 13.05 h 5.85 m 18.3,-13.05 h -5.8 v 13.05 h 5.8 v -13.05 m 15.35,0 H 231 v 13.05 h 5.75 V 112.25 M 203.1,96.85 h -5.85 v 11.45 h 5.85 V 96.85 m 33.65,0 H 231 v 11.45 h 5.75 V 96.85 M 231,93.2 h 5.75 V 79.75 H 231 V 93.2 m -9.6,3.65 h -5.8 v 11.45 h 5.8 V 96.85 m 0,-17.1 h -5.8 V 93.2 h 5.8 V 79.75 m 0,-28.95 h -5.8 V 64.75 75.9 h 5.8 V 64.75 50.8 m 15.35,0 H 231 V 64.75 75.9 h 5.75 V 64.75 50.8 M 186.4,96.85 h -5.8 v 11.45 h 5.8 V 96.85 m 10.85,-17.1 V 93.2 h 5.85 V 79.75 h -5.85 m -16.65,0 V 93.2 h 5.8 V 79.75 h -5.8 m -11.8,17.1 h -5.65 v 11.45 h 5.65 V 96.85 m 0,-17.1 h -5.65 V 93.2 h 5.65 V 79.75 m 0,-28.95 h -5.65 V 64.75 75.9 h 5.65 V 64.75 50.8 m 17.6,13.95 V 50.8 h -5.8 V 64.75 75.9 h 5.8 V 64.75 M 197.25,50.8 V 64.75 75.9 h 5.85 V 64.75 50.8 h -5.85 M 186.4,11.1 h -5.8 v 17.8 h 5.8 V 11.1 m -5.8,21.65 v 14.1 h 5.8 v -14.1 h -5.8 m -11.8,0 h -5.65 v 14.1 h 5.65 v -14.1 m 0,-21.65 h -5.65 v 17.8 h 5.65 V 11.1 m 34.3,17.8 V 11.1 h -5.85 v 17.8 h 5.85 m 33.65,3.85 H 231 v 14.1 h 5.75 v -14.1 m -33.65,14.1 v -14.1 h -5.85 v 14.1 h 5.85 m 18.3,-14.1 h -5.8 v 14.1 h 5.8 v -14.1 m 0,-21.65 h -5.8 v 17.8 h 5.8 V 11.1 m 15.35,0 H 231 v 17.8 h 5.75 V 11.1 m 52.55,85.75 h -5.85 v 11.45 h 5.85 V 96.85 m 18.35,0 h -5.85 v 11.45 h 5.85 V 96.85 m 15.5,0 h -5.95 v 11.45 h 5.95 V 96.85 m 0,-17.1 H 317.2 V 93.2 h 5.95 V 79.75 m -21.35,0 V 93.2 h 5.85 V 79.75 h -5.85 m 5.85,-15 V 50.8 H 301.8 V 64.75 75.9 h 5.85 V 64.75 M 323.15,50.8 H 317.2 V 64.75 75.9 h 5.95 V 64.75 50.8 m -39.7,28.95 V 93.2 h 5.85 V 79.75 h -5.85 m -10.85,17.1 h -5.65 v 11.45 h 5.65 V 96.85 m 0,-17.1 h -5.65 V 93.2 h 5.65 V 79.75 m -17.45,17.1 h -5.8 v 11.45 h 5.8 V 96.85 m -5.8,-3.65 h 5.8 V 79.75 h -5.8 V 93.2 m 5.8,-42.4 h -5.8 V 64.75 75.9 h 5.8 V 64.75 50.8 m 28.3,0 V 64.75 75.9 h 5.85 V 64.75 50.8 h -5.85 m -10.85,0 h -5.65 V 64.75 75.9 h 5.65 V 64.75 50.8 m 0,-18.05 h -5.65 v 14.1 h 5.65 v -14.1 m -17.45,0 h -5.8 v 14.1 h 5.8 v -14.1 m 0,-21.65 h -5.8 v 17.8 h 5.8 V 11.1 m 17.45,0 h -5.65 v 17.8 h 5.65 V 11.1 m 16.7,17.8 V 11.1 h -5.85 v 17.8 h 5.85 m 18.35,-17.8 h -5.85 v 17.8 h 5.85 V 11.1 m 15.5,21.65 h -5.95 v 14.1 h 5.95 v -14.1 m -33.85,14.1 v -14.1 h -5.85 v 14.1 h 5.85 m 12.5,-14.1 v 14.1 h 5.85 V 32.75 H 301.8 M 323.15,11.1 h -5.95 v 17.8 h 5.95 V 11.1 M 429.4,112.25 h -5.85 v 13.05 h 5.85 v -13.05 m -18.3,0 h -5.9 v 13.05 h 5.9 v -13.05 m 33.7,0 h -5.7 v 13.05 h 5.7 v -13.05 m 18.7,0 h -5.8 v 13.05 h 5.8 v -13.05 m 15.55,0 h -5.85 v 13.05 h 5.85 v -13.05 m -138.35,0 h -5.9 v 13.05 h 5.9 v -13.05 m 19.55,0 h -5.9 v 13.05 h 5.9 v -13.05 m 19,0 h -5.75 v 13.05 h 5.75 v -13.05 m 16.4,0 h -5.8 v 13.05 h 5.8 v -13.05 m 0,-15.4 h -5.8 v 11.45 h 5.8 V 96.85 m -5.8,-3.65 h 5.8 V 79.75 h -5.8 V 93.2 m -10.6,3.65 h -5.75 v 11.45 h 5.75 V 96.85 M 373.5,93.2 h 5.75 V 79.75 H 373.5 V 93.2 m 5.75,-42.4 H 373.5 V 64.75 75.9 h 5.75 V 64.75 50.8 m 16.4,0 h -5.8 V 64.75 75.9 h 5.8 V 64.75 50.8 m -35.4,46.05 h -5.9 v 11.45 h 5.9 V 96.85 m -5.9,-3.65 h 5.9 V 79.75 h -5.9 V 93.2 m -13.65,3.65 h -5.9 v 11.45 h 5.9 V 96.85 m -5.9,-3.65 h 5.9 V 79.75 h -5.9 V 93.2 m 5.9,-42.4 h -5.9 V 64.75 75.9 h 5.9 V 64.75 50.8 m 19.55,0 h -5.9 V 64.75 75.9 h 5.9 V 64.75 50.8 m 0,-18.05 h -5.9 v 14.1 h 5.9 v -14.1 m -19.55,0 h -5.9 v 14.1 h 5.9 v -14.1 m 0,-21.65 h -5.9 v 17.8 h 5.9 V 11.1 m 19.55,0 h -5.9 v 17.8 h 5.9 V 11.1 m 35.4,21.65 h -5.8 v 14.1 h 5.8 v -14.1 m -16.4,0 h -5.75 v 14.1 h 5.75 v -14.1 m 0,-21.65 h -5.75 v 17.8 h 5.75 V 11.1 m 16.4,0 h -5.8 v 17.8 h 5.8 V 11.1 m 83.4,85.75 h -5.85 v 11.45 h 5.85 V 96.85 M 473.2,93.2 h 5.85 V 79.75 H 473.2 V 93.2 m -9.7,3.65 h -5.8 v 11.45 h 5.8 V 96.85 m -5.8,-3.65 h 5.8 V 79.75 h -5.8 V 93.2 m 5.8,-42.4 h -5.8 V 64.75 75.9 h 5.8 V 64.75 50.8 m 15.55,0 H 473.2 V 64.75 75.9 h 5.85 V 64.75 50.8 M 429.4,96.85 h -5.85 v 11.45 h 5.85 V 96.85 m 15.4,0 h -5.7 v 11.45 h 5.7 V 96.85 m 0,-17.1 h -5.7 V 93.2 h 5.7 V 79.75 m -21.25,0 V 93.2 h 5.85 V 79.75 h -5.85 m -12.45,17.1 h -5.9 v 11.45 h 5.9 V 96.85 m 0,-17.1 h -5.9 V 93.2 h 5.9 V 79.75 m 0,-28.95 h -5.9 V 64.75 75.9 h 5.9 V 64.75 50.8 m 18.3,13.95 V 50.8 h -5.85 V 64.75 75.9 h 5.85 V 64.75 M 444.8,50.8 h -5.7 V 64.75 75.9 h 5.7 V 64.75 50.8 M 429.4,11.1 h -5.85 v 17.8 h 5.85 V 11.1 m 15.4,21.65 h -5.7 v 14.1 h 5.7 v -14.1 m -21.25,0 v 14.1 h 5.85 v -14.1 h -5.85 m -12.45,0 h -5.9 v 14.1 h 5.9 v -14.1 m 0,-21.65 h -5.9 v 17.8 h 5.9 V 11.1 m 33.7,0 h -5.7 v 17.8 h 5.7 V 11.1 m 34.25,21.65 h -5.85 v 14.1 h 5.85 v -14.1 m -15.55,0 h -5.8 v 14.1 h 5.8 v -14.1 m 0,-21.65 h -5.8 v 17.8 h 5.8 V 11.1 m 15.55,0 h -5.85 v 17.8 h 5.85 V 11.1 M 580.2,112.25 h -5.85 v 13.05 h 5.85 v -13.05 m 18.8,0 h -5.9 v 13.05 h 5.9 v -13.05 m 33.65,0 h -5.75 v 13.05 h 5.75 v -13.05 m -18.4,0 h -5.75 v 13.05 h 5.75 v -13.05 m -116.85,0 h -5.95 v 13.05 h 5.95 v -13.05 m 15.4,0 h -5.85 v 13.05 h 5.85 v -13.05 m 18.1,13.05 v -13.05 h -5.75 v 13.05 h 5.75 m 15.5,-13.05 h -5.85 v 13.05 h 5.85 v -13.05 m 18.4,0 h -5.95 v 13.05 h 5.95 v -13.05 m -33.9,-15.4 h -5.75 v 11.45 h 5.75 V 96.85 m 33.9,0 h -5.95 v 11.45 h 5.95 V 96.85 m -5.95,-3.65 h 5.95 V 79.75 h -5.95 V 93.2 m -12.45,3.65 h -5.85 v 11.45 h 5.85 V 96.85 m 0,-17.1 h -5.85 V 93.2 h 5.85 V 79.75 m 0,-28.95 h -5.85 V 64.75 75.9 h 5.85 V 64.75 50.8 m 18.4,0 h -5.95 V 64.75 75.9 h 5.95 V 64.75 50.8 M 525.15,79.75 V 93.2 h 5.75 V 79.75 h -5.75 m -12.35,17.1 h -5.85 v 11.45 h 5.85 V 96.85 m 0,-17.1 h -5.85 V 93.2 h 5.85 V 79.75 m -15.4,17.1 h -5.95 v 11.45 h 5.95 V 96.85 m -5.95,-3.65 h 5.95 V 79.75 h -5.95 V 93.2 m 5.95,-42.4 h -5.95 V 64.75 75.9 h 5.95 V 64.75 50.8 m 27.75,0 V 64.75 75.9 h 5.75 V 64.75 50.8 h -5.75 m -12.35,0 h -5.85 V 64.75 75.9 h 5.85 V 64.75 50.8 m 0,-18.05 h -5.85 v 14.1 h 5.85 v -14.1 m -15.4,0 h -5.95 v 14.1 h 5.95 v -14.1 m 0,-21.65 h -5.95 v 17.8 h 5.95 V 11.1 m 15.4,0 h -5.85 v 17.8 h 5.85 V 11.1 m 18.1,17.8 V 11.1 h -5.75 v 17.8 h 5.75 m 33.9,3.85 h -5.95 v 14.1 h 5.95 v -14.1 m -33.9,14.1 v -14.1 h -5.75 v 14.1 h 5.75 m 15.5,-14.1 h -5.85 v 14.1 h 5.85 v -14.1 m 0,-21.65 h -5.85 v 17.8 h 5.85 V 11.1 m 18.4,0 h -5.95 v 17.8 h 5.95 V 11.1 m 67.85,85.75 h -5.75 v 11.45 h 5.75 V 96.85 M 626.9,79.75 V 93.2 h 5.75 V 79.75 h -5.75 m -12.65,17.1 h -5.75 v 11.45 h 5.75 V 96.85 m 0,-17.1 H 608.5 V 93.2 h 5.75 V 79.75 m 0,-28.95 H 608.5 V 64.75 75.9 h 5.75 V 64.75 50.8 m 18.4,13.95 V 50.8 H 626.9 V 64.75 75.9 h 5.75 V 64.75 M 599,96.85 h -5.9 V 108.3 H 599 V 96.85 M 593.1,93.2 H 599 V 79.75 h -5.9 V 93.2 m -12.9,3.65 h -5.85 v 11.45 h 5.85 V 96.85 m -5.85,-3.65 h 5.85 V 79.75 h -5.85 V 93.2 m 5.85,-42.4 h -5.85 V 64.75 75.9 h 5.85 V 64.75 50.8 m 18.8,0 h -5.9 V 64.75 75.9 H 599 V 64.75 50.8 m 0,-18.05 h -5.9 v 14.1 h 5.9 v -14.1 m -18.8,0 h -5.85 v 14.1 h 5.85 v -14.1 m 0,-21.65 h -5.85 v 17.8 h 5.85 V 11.1 m 18.8,0 h -5.9 V 28.9 H 599 V 11.1 m 33.65,0 h -5.75 v 17.8 h 5.75 V 11.1 m -5.75,21.65 v 14.1 h 5.75 v -14.1 h -5.75 m -12.65,0 h -5.75 v 14.1 h 5.75 v -14.1 m 0,-21.65 h -5.75 v 17.8 h 5.75 V 11.1 m 33.85,97.2 V 96.85 h -5.85 v 11.45 h 5.85 m 85.4,0 V 96.85 h -5.75 v 11.45 h 5.75 m 18.4,3.95 h -5.95 v 13.05 h 5.95 v -13.05 m 22.4,13.05 v -13.05 h -5.95 v 13.05 h 5.95 m 26.55,-13.05 h -5.95 v 13.05 h 5.95 v -1.9 -11.15 M 648.1,125.3 v -13.05 h -5.85 v 13.05 h 5.85 m 17.55,-13.05 h -5.9 v 13.05 h 5.9 v -13.05 m 17.4,0 h -5.8 v 13.05 h 5.8 v -13.05 m 9.85,32 h 19.8 88.15 V 135.1 H 367.85 362.3 291.85 158.1 0 v 9.3 h 41.1 q 0.75,0 1.5,0 0.65,0 1.3,0 8.45,0.05 16.9,0.05 l 50.95,0.1 v -0.3 h 19.8 v 0.3 l 39.7,0.05 q 4.3,0 8.65,0 0.2,0 0.5,0 h 0.2 v -0.35 h 19.8 v 0.4 l 48.95,0.05 v -0.45 h 19.8 v 0.45 q 11.35,0 22.7,0 21.3,0 42.7,-0.05 v -0.4 h 19.8 v 0.35 q 3.95,0 7.95,0 2.75,0 5.55,0 25.7,-0.1 51.45,-0.15 v -0.2 h 19.8 v 0.15 q 2.95,-0.05 5.9,-0.05 2.9,-0.1 5.8,-0.1 h 114 19.8 48.05 19.8 40.45 m 34.85,-32 v 13.05 h 5.75 v -13.05 h -5.75 m -28,0 h -5.9 v 13.05 h 5.9 v -13.05 m 18.25,0 h -5.8 v 13.05 h 5.8 v -13.05 m 0,-15.4 h -5.8 V 108.3 H 718 V 96.85 m 0,-17.1 h -5.8 V 93.2 H 718 V 79.75 m -18.25,17.1 h -5.9 v 11.45 h 5.9 V 96.85 m -5.9,-3.65 h 5.9 V 79.75 h -5.9 V 93.2 m 5.9,-42.4 h -5.9 V 64.75 75.9 h 5.9 V 64.75 50.8 m 18.25,0 h -5.8 V 64.75 75.9 H 718 V 64.75 50.8 m -34.95,46.05 h -5.8 v 11.45 h 5.8 V 96.85 m -5.8,-3.65 h 5.8 V 79.75 h -5.8 V 93.2 m -29.15,0 V 79.75 h -5.85 V 93.2 h 5.85 m 17.55,3.65 h -5.9 v 11.45 h 5.9 V 96.85 m 0,-17.1 h -5.9 V 93.2 h 5.9 V 79.75 m -17.55,-15 V 50.8 h -5.85 V 64.75 75.9 h 5.85 V 64.75 M 665.65,50.8 h -5.9 V 64.75 75.9 h 5.9 V 64.75 50.8 m 17.4,0 h -5.8 V 64.75 75.9 h 5.8 V 64.75 50.8 M 648.1,28.9 V 11.1 h -5.85 v 17.8 h 5.85 m 34.95,3.85 h -5.8 v 14.1 h 5.8 v -14.1 m -34.95,14.1 v -14.1 h -5.85 v 14.1 h 5.85 m 17.55,-14.1 h -5.9 v 14.1 h 5.9 v -14.1 m 0,-21.65 h -5.9 v 17.8 h 5.9 V 11.1 m 17.4,0 h -5.8 v 17.8 h 5.8 V 11.1 M 718,32.75 h -5.8 v 14.1 h 5.8 v -14.1 m -18.25,0 h -5.9 v 14.1 h 5.9 v -14.1 m 0,-21.65 h -5.9 v 17.8 h 5.9 V 11.1 m 18.25,0 h -5.8 V 28.9 H 718 V 11.1 m 56.3,85.75 h -5.95 v 11.45 h 5.95 V 96.85 m 20.6,-17.1 V 93.2 h 5.95 V 79.75 h -5.95 m 5.95,17.7 v -0.6 h -5.95 v 11.45 h 5.95 V 97.45 m 0,-46.65 H 794.9 V 64.75 75.9 h 5.95 V 64.75 50.8 M 751.9,96.85 h -5.95 v 11.45 h 5.95 V 96.85 m 16.45,-17.1 V 93.2 h 5.95 V 79.75 h -5.95 m -22.4,0 V 93.2 h 5.95 V 79.75 h -5.95 M 733.5,93.2 V 79.75 h -5.75 V 93.2 h 5.75 m 0,-28.45 V 50.8 h -5.75 V 64.75 75.9 h 5.75 V 64.75 m 18.4,0 V 50.8 h -5.95 V 64.75 75.9 h 5.95 V 64.75 M 768.35,50.8 V 64.75 75.9 h 5.95 V 64.75 50.8 h -5.95 M 733.5,28.9 V 11.1 h -5.75 v 17.8 h 5.75 m 18.4,-17.8 h -5.95 v 17.8 h 5.95 V 11.1 m -5.95,21.65 v 14.1 h 5.95 v -14.1 h -5.95 m -12.45,14.1 v -14.1 h -5.75 v 14.1 h 5.75 M 774.3,28.9 V 11.1 h -5.95 v 17.8 h 5.95 m 20.6,3.85 v 14.1 h 5.95 v -14.1 h -5.95 m -20.6,14.1 v -14.1 h -5.95 v 14.1 h 5.95 M 800.85,11.1 h -5.95 v 17.8 h 5.95 z"
         id="path2"
         inkscape:connector-curvature="0"
         style="fill:#d03f33;stroke:none" />
      <path
         d="M 96.35,112.25 H 83.6 v 13.05 h 12.75 v -13.05 m 15.4,0 h -9.6 v 13.05 h 9.6 v -13.05 m 18.35,13.05 v -13.05 h -12.4 v 13.05 h 12.4 m 15.55,-13.05 h -9.6 v 13.05 h 9.6 v -13.05 m -123.7,0 H 5.8 V 125.3 H 21.95 V 112.25 M 43.9,125.3 V 112.25 H 27.75 V 125.3 H 43.9 M 62.25,112.25 H 49.7 v 13.05 h 12.55 v -13.05 m 43.95,71.15 h -1.65 -0.8 v 4.85 h 0.8 1.65 0.1 v -4.85 h -0.1 m -1.65,-6.75 h -0.8 v 5.3 h 0.8 1.65 0.1 v -5.3 h -0.1 -1.65 m -11.5,6.75 h -2.4 v 4.85 h 2.4 v -4.85 m -3.7,0 h -2.2 v 4.85 h 2.2 v -4.85 m -3.8,0 H 83.1 v 4.85 h 2.45 v -4.85 m 0,-6.75 H 83.1 v 5.3 h 2.45 v -5.3 m 3.8,0 h -2.2 v 5.3 h 2.2 v -5.3 m 3.7,5.3 v -5.3 h -2.4 v 5.3 h 2.4 m 7.75,1.45 h -0.55 v 4.85 h 0.55 1.3 0.35 v -4.85 h -0.35 -1.3 m -2.05,0 h -1.6 -0.8 v 4.85 h 0.8 1.6 v -4.85 m -1.6,-6.75 h -0.8 v 5.3 h 0.8 1.6 v -5.3 h -1.6 m 3.65,0 h -0.55 v 5.3 h 0.55 1.3 0.35 v -5.3 h -0.35 -1.3 m -3.65,-6.95 h -0.8 v 5.3 h 0.8 1.6 v -5.3 h -1.6 m -11.6,0 H 83.1 v 5.3 h 2.45 v -5.3 m 7.5,0 h -2.4 v 5.3 h 2.4 v -5.3 m -3.7,0 h -2.2 v 5.3 h 2.2 v -5.3 m 16.85,0 h -1.65 -0.8 v 5.3 h 0.8 1.65 0.1 v -5.3 h -0.1 m -3.75,0 h -0.35 -1.3 -0.55 v 5.3 h 0.55 1.3 0.35 v -5.3 M 77.8,112.25 H 68.05 V 125.3 H 77.8 V 112.25 M 43.9,96.85 H 27.75 V 108.3 H 43.9 V 96.85 m 18.35,0 H 49.7 V 108.3 H 62.25 V 96.85 m 15.55,0 H 68.05 V 108.3 H 77.8 V 96.85 M 68.05,93.2 H 77.8 V 79.75 H 68.05 V 93.2 M 49.7,79.75 V 93.2 H 62.25 V 79.75 H 49.7 m 12.55,-15 V 50.8 H 49.7 V 64.75 H 62.25 M 77.8,50.8 H 68.05 V 64.75 H 77.8 V 50.8 M 21.95,96.85 H 5.8 V 108.3 H 21.95 V 96.85 m 5.8,-17.1 V 93.2 H 43.9 V 79.75 H 27.75 m -21.95,0 V 93.2 H 21.95 V 79.75 H 5.8 m 16.15,-15 V 50.8 H 5.8 V 64.75 H 21.95 M 27.75,50.8 V 64.75 H 43.9 V 50.8 H 27.75 M 21.95,11.1 H 5.8 V 28.9 H 21.95 V 11.1 M 5.8,32.75 v 14.1 H 21.95 V 32.75 H 5.8 M 43.9,28.9 V 11.1 H 27.75 V 28.9 H 43.9 M 62.25,11.1 H 49.7 V 28.9 H 62.25 V 11.1 m 5.8,21.65 v 14.1 H 77.8 V 32.75 H 68.05 M 43.9,46.85 V 32.75 H 27.75 v 14.1 H 43.9 m 5.8,-14.1 v 14.1 H 62.25 V 32.75 H 49.7 M 77.8,11.1 H 68.05 V 28.9 H 77.8 V 11.1 m 52.3,85.75 h -12.4 v 11.45 h 12.4 V 96.85 m 15.55,0 h -9.6 v 11.45 h 9.6 V 96.85 m -9.6,-17.1 V 93.2 h 9.6 V 79.75 h -9.6 m 9.6,-15 V 50.8 h -9.6 v 13.95 h 9.6 m -33.9,32.1 h -9.6 v 11.45 h 9.6 V 96.85 m 5.95,-17.1 V 93.2 h 12.4 V 79.75 H 117.7 M 102.15,93.2 h 9.6 V 79.75 h -9.6 V 93.2 m -5.8,3.65 H 83.6 V 108.3 H 96.35 V 96.85 M 83.6,93.2 H 96.35 V 79.75 H 83.6 V 93.2 M 96.35,50.8 H 83.6 V 64.75 H 96.35 V 50.8 m 21.35,0 v 13.95 h 12.4 V 50.8 h -12.4 m -5.95,0 h -9.6 v 13.95 h 9.6 V 50.8 m -9.6,-18.05 v 14.1 h 9.6 v -14.1 h -9.6 m -5.8,0 H 83.6 v 14.1 h 12.75 v -14.1 m 0,-21.65 H 83.6 V 28.9 H 96.35 V 11.1 m 15.4,0 h -9.6 v 17.8 h 9.6 V 11.1 M 130.1,28.9 V 11.1 h -12.4 v 17.8 h 12.4 m 15.55,-17.8 h -9.6 v 17.8 h 9.6 V 11.1 M 130.1,46.85 v -14.1 h -12.4 v 14.1 h 12.4 m 5.95,-14.1 v 14.1 h 9.6 v -14.1 h -9.6 m 27.1,75.55 V 96.85 h -11.7 v 11.45 h 11.7 m 86.2,-11.45 h -12.6 v 11.45 h 12.6 V 96.85 m 17.6,15.4 h -11.8 v 13.05 h 11.8 v -13.05 m 16.5,0 H 272.6 v 13.05 h 10.85 v -13.05 m 18.35,0 h -12.5 v 13.05 h 12.5 v -13.05 m 15.4,0 h -9.55 v 13.05 h 9.55 v -13.05 m -93.3,71.15 h -0.8 v 4.85 h 0.8 1.6 v -4.85 h -1.6 m 3.65,0 H 227 v 4.85 h 0.55 1.3 0.35 v -4.85 h -0.35 -1.3 m -3.65,-6.75 h -0.8 v 5.3 h 0.8 1.6 v -5.3 h -1.6 m 5.3,0 h -0.35 -1.3 -0.55 v 5.3 h 0.55 1.3 0.35 v -5.3 m 3.85,5.3 v -5.3 h -0.1 -1.65 -0.8 v 5.3 h 0.8 1.65 0.1 m 0,1.45 h -0.1 -1.65 -0.8 v 4.85 h 0.8 1.65 0.1 v -4.85 m -20.75,0 h -2.45 v 4.85 h 2.45 v -4.85 m -2.45,-6.75 v 5.3 h 2.45 v -5.3 h -2.45 m 7.55,5.3 h 2.4 v -5.3 h -2.4 v 5.3 m 2.4,1.45 h -2.4 v 4.85 h 2.4 v -4.85 m -3.7,0 h -2.2 v 4.85 h 2.2 v -4.85 m 0,-6.75 h -2.2 v 5.3 h 2.2 v -5.3 m 0,-6.95 h -2.2 v 5.3 h 2.2 v -5.3 m 3.7,0 h -2.4 v 5.3 h 2.4 v -5.3 m -7.5,0 h -2.45 v 5.3 h 2.45 v -5.3 m 20.65,0 h -1.65 -0.8 v 5.3 h 0.8 1.65 0.1 v -5.3 h -0.1 m -5.4,0 H 227 v 5.3 h 0.55 1.3 0.35 v -5.3 h -0.35 -1.3 m -2.05,0 h -1.6 -0.8 v 5.3 h 0.8 1.6 v -5.3 m -62.35,-44.4 v -13.05 h -11.7 v 13.05 h 11.7 m -13.25,58.1 v 4.85 h 2.4 v -4.85 h -2.4 m -1.3,-1.45 v -5.3 h -2.2 v 5.3 h 2.2 m 0,1.45 h -2.2 v 4.85 h 2.2 v -4.85 m -3.8,0 h -2.45 v 4.85 h 2.45 v -4.85 m 0,-6.75 h -2.45 v 5.3 h 2.45 v -5.3 m 7.5,5.3 v -5.3 h -2.4 v 5.3 h 2.4 m 9.4,1.45 h -0.35 -1.3 -0.55 v 4.85 h 0.55 1.3 0.35 v -4.85 m -5.3,0 h -0.8 v 4.85 h 0.8 1.6 v -4.85 h -1.6 m 0,-6.75 h -0.8 v 5.3 h 0.8 1.6 v -5.3 h -1.6 m 4.95,0 h -1.3 -0.55 v 5.3 h 0.55 1.3 0.35 v -5.3 h -0.35 m -9.05,-6.95 h -2.4 v 5.3 h 2.4 v -5.3 m 7.75,0 h -0.55 v 5.3 h 0.55 1.3 0.35 v -5.3 h -0.35 -1.3 m -11.45,0 h -2.2 v 5.3 h 2.2 v -5.3 m -3.8,0 h -2.45 v 5.3 h 2.45 v -5.3 m 13.2,0 h -1.6 -0.8 v 5.3 h 0.8 1.6 v -5.3 m 7.55,13.7 h -0.1 -1.65 -0.8 v 4.85 h 0.8 1.65 0.1 v -4.85 m 0,-6.75 h -0.1 -1.65 -0.8 v 5.3 h 0.8 1.65 0.1 v -5.3 m 0,-6.95 h -0.1 -1.65 -0.8 v 5.3 h 0.8 1.65 0.1 v -5.3 m 15.05,-57.45 h -11.8 v 13.05 h 11.8 v -13.05 m 16.65,0 H 186.4 v 13.05 h 10.85 v -13.05 m 39.5,0 v 13.05 h 12.6 v -13.05 h -12.6 m -5.75,0 h -9.6 v 13.05 h 9.6 v -13.05 m -15.4,0 h -12.5 v 13.05 h 12.5 V 112.25 M 231,96.85 h -9.6 V 108.3 H 231 V 96.85 m -15.4,0 h -12.5 v 11.45 h 12.5 V 96.85 m 5.8,-17.1 V 93.2 H 231 V 79.75 h -9.6 M 203.1,93.2 h 12.5 V 79.75 H 203.1 V 93.2 m 12.5,-42.4 h -12.5 v 13.95 h 12.5 V 50.8 M 231,64.75 V 50.8 h -9.6 v 13.95 h 9.6 m -33.75,32.1 H 186.4 v 11.45 h 10.85 V 96.85 M 186.4,93.2 h 10.85 V 79.75 H 186.4 V 93.2 m -5.8,3.65 h -11.8 v 11.45 h 11.8 V 96.85 M 163.15,93.2 V 79.75 h -11.7 V 93.2 h 11.7 m 5.65,0 h 11.8 V 79.75 H 168.8 V 93.2 M 163.15,64.75 V 50.8 h -11.7 v 13.95 h 11.7 M 180.6,50.8 h -11.8 v 13.95 h 11.8 V 50.8 m 16.65,0 H 186.4 v 13.95 h 10.85 V 50.8 M 163.15,28.9 V 11.1 h -11.7 v 17.8 h 11.7 m 34.1,3.85 H 186.4 v 14.1 h 10.85 v -14.1 m -28.45,0 v 14.1 h 11.8 v -14.1 h -11.8 m -5.65,14.1 v -14.1 h -11.7 v 14.1 h 11.7 M 180.6,11.1 h -11.8 v 17.8 h 11.8 V 11.1 m 16.65,0 H 186.4 v 17.8 h 10.85 V 11.1 m 33.75,0 h -9.6 V 28.9 H 231 V 11.1 m -9.6,21.65 v 14.1 h 9.6 v -14.1 h -9.6 m -5.8,14.1 v -14.1 h -12.5 v 14.1 h 12.5 m 0,-35.75 h -12.5 v 17.8 h 12.5 V 11.1 m 101.6,85.75 h -9.55 v 11.45 h 9.55 V 96.85 m -9.55,-3.65 h 9.55 V 79.75 h -9.55 V 93.2 m -5.85,3.65 h -12.5 v 11.45 h 12.5 V 96.85 M 289.3,93.2 h 12.5 V 79.75 H 289.3 V 93.2 m 12.5,-42.4 h -12.5 v 13.95 h 12.5 V 50.8 m 15.4,0 h -9.55 v 13.95 h 9.55 V 50.8 m -50.25,46.05 h -11.8 v 11.45 h 11.8 V 96.85 m 16.5,0 H 272.6 v 11.45 h 10.85 V 96.85 M 272.6,93.2 h 10.85 V 79.75 H 272.6 V 93.2 M 255.15,79.75 V 93.2 h 11.8 V 79.75 h -11.8 m -5.8,13.45 V 79.75 h -12.6 V 93.2 h 12.6 m 0,-28.45 V 50.8 h -12.6 v 13.95 h 12.6 m 17.6,0 V 50.8 h -11.8 v 13.95 h 11.8 M 283.45,50.8 H 272.6 v 13.95 h 10.85 V 50.8 M 249.35,28.9 V 11.1 h -12.6 v 17.8 h 12.6 m 17.6,-17.8 h -11.8 v 17.8 h 11.8 V 11.1 m 5.65,21.65 v 14.1 h 10.85 V 32.75 H 272.6 m -23.25,14.1 v -14.1 h -12.6 v 14.1 h 12.6 m 5.8,-14.1 v 14.1 h 11.8 v -14.1 h -11.8 M 283.45,11.1 H 272.6 v 17.8 h 10.85 V 11.1 m 24.2,21.65 v 14.1 h 9.55 v -14.1 h -9.55 m -5.85,0 h -12.5 v 14.1 h 12.5 v -14.1 m 0,-21.65 h -12.5 v 17.8 h 12.5 V 11.1 m 15.4,0 h -9.55 v 17.8 h 9.55 V 11.1 m 17.6,97.2 V 96.85 h -11.65 v 11.45 h 11.65 m 70.4,-11.45 h -9.55 v 11.45 h 9.55 V 96.85 m 18.35,15.4 H 411.1 v 13.05 h 12.45 v -13.05 m 15.55,0 h -9.7 v 13.05 h 9.7 v -13.05 m 18.6,13.05 v -13.05 h -12.9 v 13.05 h 12.9 m 15.5,-13.05 h -9.7 v 13.05 h 9.7 V 112.25 M 334.8,125.3 v -13.05 h -11.65 v 13.05 h 11.65 m 19.55,-13.05 H 340.7 v 13.05 h 13.65 v -13.05 m 41.3,0 v 13.05 h 9.55 v -13.05 h -9.55 M 373.5,125.3 v -13.05 h -13.25 v 13.05 h 13.25 m 16.35,-13.05 h -10.6 v 13.05 h 10.6 V 112.25 M 373.5,96.85 H 360.25 V 108.3 H 373.5 V 96.85 m 16.35,0 h -10.6 v 11.45 h 10.6 V 96.85 m -10.6,-17.1 V 93.2 h 10.6 V 79.75 h -10.6 m 10.6,-15 V 50.8 h -10.6 v 13.95 h 10.6 m -35.5,32.1 H 340.7 v 11.45 h 13.65 V 96.85 m 5.9,-17.1 V 93.2 H 373.5 V 79.75 h -13.25 m -19.55,0 V 93.2 h 13.65 V 79.75 H 340.7 M 334.8,93.2 V 79.75 H 323.15 V 93.2 h 11.65 m 0,-28.45 V 50.8 h -11.65 v 13.95 h 11.65 m 19.55,0 V 50.8 H 340.7 v 13.95 h 13.65 m 5.9,-13.95 V 64.75 H 373.5 V 50.8 H 360.25 M 334.8,28.9 V 11.1 H 323.15 V 28.9 H 334.8 M 354.35,11.1 H 340.7 v 17.8 h 13.65 V 11.1 M 334.8,46.85 v -14.1 h -11.65 v 14.1 h 11.65 m 5.9,-14.1 v 14.1 h 13.65 V 32.75 H 340.7 M 373.5,28.9 V 11.1 h -13.25 v 17.8 h 13.25 m 16.35,-17.8 h -10.6 v 17.8 h 10.6 V 11.1 M 373.5,46.85 v -14.1 h -13.25 v 14.1 h 13.25 m 5.75,-14.1 v 14.1 h 10.6 v -14.1 h -10.6 m 78.45,64.1 h -12.9 v 11.45 h 12.9 V 96.85 m 15.5,0 h -9.7 v 11.45 h 9.7 V 96.85 m -9.7,-17.1 V 93.2 h 9.7 V 79.75 h -9.7 m 9.7,-15 V 50.8 h -9.7 v 13.95 h 9.7 m -34.1,32.1 h -9.7 v 11.45 h 9.7 V 96.85 m 5.7,-17.1 V 93.2 h 12.9 V 79.75 H 444.8 M 429.4,93.2 h 9.7 V 79.75 h -9.7 V 93.2 m -5.85,3.65 H 411.1 v 11.45 h 12.45 V 96.85 M 405.2,93.2 V 79.75 h -9.55 V 93.2 h 9.55 m 5.9,0 h 12.45 V 79.75 H 411.1 V 93.2 M 405.2,64.75 V 50.8 h -9.55 v 13.95 h 9.55 M 423.55,50.8 H 411.1 v 13.95 h 12.45 V 50.8 m 21.25,0 v 13.95 h 12.9 V 50.8 h -12.9 m -5.7,0 h -9.7 v 13.95 h 9.7 V 50.8 M 405.2,28.9 V 11.1 h -9.55 v 17.8 h 9.55 m 24.2,3.85 v 14.1 h 9.7 v -14.1 h -9.7 m -24.2,14.1 v -14.1 h -9.55 v 14.1 h 9.55 m 18.35,0 V 32.75 H 411.1 v 14.1 h 12.45 m 0,-35.75 H 411.1 v 17.8 h 12.45 V 11.1 m 15.55,0 h -9.7 v 17.8 h 9.7 V 11.1 m 18.6,17.8 V 11.1 h -12.9 v 17.8 h 12.9 m 15.5,-17.8 h -9.7 v 17.8 h 9.7 V 11.1 m -15.5,35.75 v -14.1 h -12.9 v 14.1 h 12.9 m 5.8,-14.1 v 14.1 h 9.7 v -14.1 h -9.7 m 27.95,75.55 V 96.85 h -12.4 v 11.45 h 12.4 m 82.9,-11.45 h -9.55 v 11.45 h 9.55 V 96.85 m 41.95,86.55 h -1.6 -0.8 v 4.85 h 0.8 1.6 v -4.85 m -5.7,0 h -2.4 v 4.85 h 2.4 v -4.85 m 0,-6.75 h -2.4 v 5.3 h 2.4 v -5.3 m 5.7,0 h -1.6 -0.8 v 5.3 h 0.8 1.6 v -5.3 m 5.8,6.75 h -0.8 v 4.85 h 0.8 1.65 0.1 v -4.85 h -0.1 -1.65 m -2.1,0 h -0.35 -1.3 -0.55 v 4.85 h 0.55 1.3 0.35 v -4.85 m -0.35,-6.75 h -1.3 -0.55 v 5.3 h 0.55 1.3 0.35 v -5.3 h -0.35 m 4.2,0 h -0.1 -1.65 -0.8 v 5.3 h 0.8 1.65 0.1 v -5.3 m 0,-6.95 h -0.1 -1.65 -0.8 v 5.3 h 0.8 1.65 0.1 v -5.3 m -3.85,0 h -0.35 -1.3 -0.55 v 5.3 h 0.55 1.3 0.35 v -5.3 m -9.4,0 h -2.4 v 5.3 h 2.4 v -5.3 m 4.1,0 h -0.8 v 5.3 h 0.8 1.6 v -5.3 h -1.6 m -11.6,13.7 h -2.45 v 4.85 h 2.45 v -4.85 m -2.45,-6.75 v 5.3 h 2.45 v -5.3 h -2.45 m 6.25,6.75 h -2.2 v 4.85 h 2.2 v -4.85 m 0,-6.75 h -2.2 v 5.3 h 2.2 v -5.3 m 0,-6.95 h -2.2 v 5.3 h 2.2 v -5.3 m -3.8,0 h -2.45 v 5.3 h 2.45 v -5.3 m -10,-57.45 h -12.9 v 13.05 h 12.9 v -13.05 m 15.4,13.05 V 112.25 H 599 v 13.05 h 9.5 m 18.4,-13.05 h -12.65 v 13.05 h 12.65 v -13.05 m 15.35,0 h -9.6 v 13.05 h 9.6 V 112.25 M 289.9,183.4 h -0.8 v 4.85 h 0.8 1.6 v -4.85 h -1.6 m 0,-6.75 h -0.8 v 5.3 h 0.8 1.6 v -5.3 h -1.6 m 5.3,6.75 h -0.35 -1.3 -0.55 v 4.85 h 0.55 1.3 0.35 v -4.85 m 2.1,0 h -0.8 v 4.85 h 0.8 1.65 0.1 v -4.85 h -0.1 -1.65 m -2.1,-6.75 h -0.35 -1.3 -0.55 v 5.3 h 0.55 1.3 0.35 v -5.3 m 3.85,0 h -0.1 -1.65 -0.8 v 5.3 h 0.8 1.65 0.1 v -5.3 m -1.75,-6.95 h -0.8 v 5.3 h 0.8 1.65 0.1 v -5.3 h -0.1 -1.65 m -2.1,0 h -0.35 -1.3 -0.55 v 5.3 h 0.55 1.3 0.35 v -5.3 m -5.3,0 h -0.8 v 5.3 h 0.8 1.6 v -5.3 h -1.6 m -6.5,0 v 5.3 h 2.4 v -5.3 h -2.4 m 0,13.7 v 4.85 h 2.4 v -4.85 h -2.4 m 0,-6.75 v 5.3 h 2.4 v -5.3 h -2.4 m -1.3,6.75 h -2.2 v 4.85 h 2.2 v -4.85 m -3.8,0 h -2.45 v 4.85 h 2.45 v -4.85 m 0,-6.75 h -2.45 v 5.3 h 2.45 v -5.3 m 3.8,0 h -2.2 v 5.3 h 2.2 v -5.3 m -3.8,-6.95 h -2.45 v 5.3 h 2.45 v -5.3 m 3.8,0 h -2.2 v 5.3 h 2.2 v -5.3 m 269.15,13.7 h -0.8 v 4.85 h 0.8 1.65 0.1 v -4.85 h -0.1 -1.65 m -2.1,0 h -0.35 -1.3 -0.55 v 4.85 h 0.55 1.3 0.35 v -4.85 m 0,-6.75 h -0.35 -1.3 -0.55 v 5.3 h 0.55 1.3 0.35 v -5.3 m 3.85,0 h -0.1 -1.65 -0.8 v 5.3 h 0.8 1.65 0.1 v -5.3 m -20.75,5.3 v -5.3 h -2.45 v 5.3 h 2.45 m 0,1.45 h -2.45 v 4.85 h 2.45 v -4.85 m 3.8,0 h -2.2 v 4.85 h 2.2 v -4.85 m 0,-6.75 h -2.2 v 5.3 h 2.2 v -5.3 m 9.4,6.75 h -1.6 -0.8 v 4.85 h 0.8 1.6 v -4.85 m -5.7,0 h -2.4 v 4.85 h 2.4 v -4.85 m 0,-6.75 h -2.4 v 5.3 h 2.4 v -5.3 m 4.1,0 h -0.8 v 5.3 h 0.8 1.6 v -5.3 h -1.6 m 0,-6.95 h -0.8 v 5.3 h 0.8 1.6 v -5.3 h -1.6 m -11.6,0 h -2.45 v 5.3 h 2.45 v -5.3 m 3.8,0 h -2.2 v 5.3 h 2.2 v -5.3 m 3.7,0 h -2.4 v 5.3 h 2.4 v -5.3 m 13.15,0 h -1.65 -0.8 v 5.3 h 0.8 1.65 0.1 v -5.3 h -0.1 m -5.4,0 h -0.55 v 5.3 h 0.55 1.3 0.35 v -5.3 h -0.35 -1.3 m -56.05,-44.4 v -13.05 h -12.4 v 13.05 h 12.4 m 15.5,-13.05 h -9.55 v 13.05 h 9.55 v -13.05 m 18.2,0 H 512.8 v 13.05 h 12.35 v -13.05 m 39.65,0 v 13.05 h 9.55 v -13.05 h -9.55 m -5.95,0 H 546.4 v 13.05 h 12.45 v -13.05 m -18.3,0 h -9.65 v 13.05 h 9.65 v -13.05 m 18.3,-15.4 H 546.4 v 11.45 h 12.45 V 96.85 m -18.3,0 h -9.65 v 11.45 h 9.65 V 96.85 m 5.85,-17.1 V 93.2 h 12.45 V 79.75 H 546.4 M 530.9,93.2 h 9.65 V 79.75 H 530.9 V 93.2 m 9.65,-42.4 h -9.65 v 13.95 h 9.65 V 50.8 m 18.3,13.95 V 50.8 H 546.4 v 13.95 h 12.45 m -51.9,32.1 h -9.55 v 11.45 h 9.55 V 96.85 m 18.2,0 H 512.8 v 11.45 h 12.35 V 96.85 M 512.8,93.2 h 12.35 V 79.75 H 512.8 V 93.2 M 497.4,79.75 V 93.2 h 9.55 V 79.75 H 497.4 M 491.45,93.2 V 79.75 h -12.4 V 93.2 h 12.4 m 0,-28.45 V 50.8 h -12.4 v 13.95 h 12.4 m 15.5,0 V 50.8 h -9.55 v 13.95 h 9.55 M 525.15,50.8 H 512.8 v 13.95 h 12.35 V 50.8 M 491.45,28.9 V 11.1 h -12.4 v 17.8 h 12.4 m 15.5,-17.8 h -9.55 v 17.8 h 9.55 V 11.1 m 5.85,21.65 v 14.1 h 12.35 V 32.75 H 512.8 m -21.35,14.1 v -14.1 h -12.4 v 14.1 h 12.4 m 5.95,-14.1 v 14.1 h 9.55 V 32.75 H 497.4 M 525.15,11.1 H 512.8 v 17.8 h 12.35 V 11.1 m 33.7,0 H 546.4 v 17.8 h 12.45 V 11.1 M 546.4,32.75 v 14.1 h 12.45 V 32.75 H 546.4 m -5.85,14.1 v -14.1 h -9.65 v 14.1 h 9.65 m 0,-35.75 h -9.65 v 17.8 h 9.65 V 11.1 M 608.5,96.85 H 599 v 11.45 h 9.5 V 96.85 m 33.75,0 h -9.6 v 11.45 h 9.6 V 96.85 m -9.6,-3.65 h 9.6 V 79.75 h -9.6 V 93.2 m -5.75,3.65 H 614.25 V 108.3 H 626.9 V 96.85 M 614.25,93.2 H 626.9 V 79.75 H 614.25 V 93.2 M 626.9,50.8 H 614.25 V 64.75 H 626.9 V 50.8 m 15.35,0 h -9.6 v 13.95 h 9.6 V 50.8 M 593.1,96.85 h -12.9 v 11.45 h 12.9 V 96.85 M 599,79.75 V 93.2 h 9.5 V 79.75 H 599 m -18.8,0 V 93.2 h 12.9 V 79.75 H 580.2 M 574.35,93.2 V 79.75 H 564.8 V 93.2 h 9.55 m 0,-28.45 V 50.8 h -9.55 v 13.95 h 9.55 m 18.75,0 V 50.8 h -12.9 v 13.95 h 12.9 M 599,50.8 v 13.95 h 9.5 V 50.8 H 599 M 574.35,28.9 V 11.1 h -9.55 v 17.8 h 9.55 M 593.1,11.1 h -12.9 v 17.8 h 12.9 V 11.1 m -18.75,35.75 v -14.1 h -9.55 v 14.1 h 9.55 m 5.85,-14.1 v 14.1 h 12.9 V 32.75 H 580.2 M 608.5,28.9 V 11.1 H 599 v 17.8 h 9.5 m 33.75,3.85 h -9.6 v 14.1 h 9.6 v -14.1 m -28,0 v 14.1 h 12.65 v -14.1 h -12.65 m -5.75,14.1 V 32.75 H 599 v 14.1 h 9.5 M 626.9,11.1 H 614.25 V 28.9 H 626.9 V 11.1 m 15.35,0 h -9.6 v 17.8 h 9.6 V 11.1 m 103.7,101.15 H 733.5 v 13.05 h 12.45 v -13.05 m 22.4,0 H 751.9 v 13.05 h 16.45 v -13.05 m 26.55,0 h -20.6 v 13.05 h 20.6 v -13.05 m -59.05,71.15 h -0.55 v 4.85 h 0.55 1.3 0.35 v -4.85 h -0.35 -1.3 m -2.05,0 h -1.6 -0.8 v 4.85 h 0.8 1.6 v -4.85 m 0,-6.75 h -1.6 -0.8 v 5.3 h 0.8 1.6 v -5.3 m 3.35,0 h -1.3 -0.55 v 5.3 h 0.55 1.3 0.35 v -5.3 h -0.35 m 4.1,6.75 h -1.65 -0.8 v 4.85 h 0.8 1.65 0.1 v -4.85 h -0.1 m 0,-6.75 h -1.65 -0.8 v 5.3 h 0.8 1.65 0.1 v -5.3 h -0.1 m 0,-6.95 h -1.65 -0.8 v 5.3 h 0.8 1.65 0.1 v -5.3 h -0.1 m -3.75,0 h -0.35 -1.3 -0.55 v 5.3 h 0.55 1.3 0.35 v -5.3 m -5.3,0 h -0.8 v 5.3 h 0.8 1.6 v -5.3 h -1.6 m -11.6,13.7 h -2.45 v 4.85 h 2.45 v -4.85 m 3.8,0 h -2.2 v 4.85 h 2.2 v -4.85 m -3.8,-1.45 v -5.3 h -2.45 v 5.3 h 2.45 m 1.6,-5.3 v 5.3 h 2.2 v -5.3 h -2.2 m 5.9,6.75 h -2.4 v 4.85 h 2.4 v -4.85 m 0,-6.75 h -2.4 v 5.3 h 2.4 v -5.3 m -3.7,-6.95 h -2.2 v 5.3 h 2.2 v -5.3 m -3.8,0 h -2.45 v 5.3 h 2.45 v -5.3 m 7.5,0 h -2.4 v 5.3 h 2.4 v -5.3 m -52.65,13.7 h -0.8 v 4.85 h 0.8 1.6 v -4.85 h -1.6 m -4.1,0 h -2.4 v 4.85 h 2.4 v -4.85 m 0,-6.75 h -2.4 v 5.3 h 2.4 v -5.3 m 4.1,0 h -0.8 v 5.3 h 0.8 1.6 v -5.3 h -1.6 m 7.4,6.75 h -0.8 v 4.85 h 0.8 1.65 0.1 v -4.85 h -0.1 -1.65 m -3.75,0 h -0.55 v 4.85 h 0.55 1.3 0.35 v -4.85 h -0.35 -1.3 m 1.3,-6.75 h -1.3 -0.55 v 5.3 h 0.55 1.3 0.35 v -5.3 h -0.35 m 4.2,0 h -0.1 -1.65 -0.8 v 5.3 h 0.8 1.65 0.1 v -5.3 m -20.75,5.3 v -5.3 h -2.45 v 5.3 h 2.45 m 0,1.45 h -2.45 v 4.85 h 2.45 v -4.85 m 3.8,0 h -2.2 v 4.85 h 2.2 v -4.85 m 0,-6.75 h -2.2 v 5.3 h 2.2 v -5.3 m 0,-6.95 h -2.2 v 5.3 h 2.2 v -5.3 m -3.8,0 h -2.45 v 5.3 h 2.45 v -5.3 m 20.75,0 h -0.1 -1.65 -0.8 v 5.3 h 0.8 1.65 0.1 v -5.3 m -3.85,0 h -0.35 -1.3 -0.55 v 5.3 h 0.55 1.3 0.35 v -5.3 m -9.4,0 h -2.4 v 5.3 h 2.4 v -5.3 m 5.7,0 h -1.6 -0.8 v 5.3 h 0.8 1.6 v -5.3 m -11.4,-44.4 h 11.6 v -13.05 h -11.6 v 13.05 m -5.9,-13.05 H 648.1 v 13.05 h 11.65 v -13.05 m 34.1,13.05 v -13.05 h -10.8 v 13.05 h 10.8 m 5.9,-13.05 v 13.05 h 12.45 v -13.05 h -12.45 m 28,0 H 718 v 13.05 h 9.75 v -13.05 m -33.9,-15.4 h -10.8 v 11.45 h 10.8 V 96.85 m 18.35,0 H 699.75 V 108.3 H 712.2 V 96.85 m 15.55,0 H 718 v 11.45 h 9.75 V 96.85 M 718,93.2 h 9.75 V 79.75 H 718 V 93.2 M 699.75,79.75 V 93.2 H 712.2 V 79.75 h -12.45 m 12.45,-15 V 50.8 H 699.75 V 64.75 H 712.2 M 727.75,50.8 H 718 v 13.95 h 9.75 V 50.8 m -50.5,46.05 h -11.6 v 11.45 h 11.6 V 96.85 m 5.8,-17.1 V 93.2 h 10.8 V 79.75 h -10.8 m -23.3,17.1 H 648.1 v 11.45 h 11.65 V 96.85 m 5.9,-17.1 V 93.2 h 11.6 V 79.75 h -11.6 M 648.1,93.2 h 11.65 V 79.75 H 648.1 V 93.2 M 659.75,50.8 H 648.1 v 13.95 h 11.65 V 50.8 m 17.5,13.95 V 50.8 h -11.6 v 13.95 h 11.6 m 5.8,-13.95 v 13.95 h 10.8 V 50.8 h -10.8 m -5.8,-39.7 h -11.6 v 17.8 h 11.6 V 11.1 m -11.6,21.65 v 14.1 h 11.6 v -14.1 h -11.6 m -5.9,14.1 V 32.75 H 648.1 v 14.1 h 11.65 m 0,-35.75 H 648.1 v 17.8 h 11.65 V 11.1 m 34.1,17.8 V 11.1 h -10.8 v 17.8 h 10.8 M 712.2,11.1 H 699.75 V 28.9 H 712.2 V 11.1 m 5.8,21.65 v 14.1 h 9.75 V 32.75 H 718 m -24.15,14.1 v -14.1 h -10.8 v 14.1 h 10.8 m 5.9,-14.1 v 14.1 h 12.45 v -14.1 h -12.45 m 28,-21.65 H 718 v 17.8 h 9.75 V 11.1 m 67.15,85.75 h -20.6 v 11.45 h 20.6 V 96.85 M 774.3,79.75 V 93.2 h 20.6 V 79.75 h -20.6 m 20.6,-15 V 50.8 h -20.6 v 13.95 h 20.6 m -43,28.45 h 16.45 V 79.75 H 751.9 V 93.2 m 16.45,3.65 H 751.9 v 11.45 h 16.45 V 96.85 M 733.5,93.2 h 12.45 V 79.75 H 733.5 V 93.2 m 12.45,3.65 H 733.5 v 11.45 h 12.45 V 96.85 m 0,-46.05 H 733.5 v 13.95 h 12.45 V 50.8 m 22.4,0 H 751.9 v 13.95 h 16.45 V 50.8 m 0,-3.95 V 32.75 H 751.9 v 14.1 h 16.45 m -22.4,-14.1 H 733.5 v 14.1 h 12.45 v -14.1 m 0,-21.65 H 733.5 v 17.8 h 12.45 V 11.1 m 22.4,0 H 751.9 v 17.8 h 16.45 V 11.1 m 5.95,17.8 h 20.6 V 11.1 h -20.6 v 17.8 m 0,3.85 v 14.1 h 20.6 v -14.1 z"
         id="path4"
         inkscape:connector-curvature="0"
         style="fill:#0e0e0e;stroke:none" />
      <path
         d="m 131.55,144.55 v -0.3 h -19.8 v 0.3 21.85 48.8 32.6 h 19.8 v -32.6 -48.8 -21.85 m 117.8,-0.3 v 0.45 21.7 48.8 32.6 h 19.8 v -32.6 -48.8 -21.7 -0.45 h -19.8 m -68.75,0 v 0.35 21.8 48.8 32.6 h 19.8 v -32.6 -48.8 -21.75 -0.4 h -19.8 m 384.2,0 v 22.15 48.8 32.6 h 19.8 v -32.6 -48.8 -22.15 h -19.8 m 87.65,22.15 v -22.15 h -19.8 v 22.15 48.8 32.6 h 19.8 v -32.6 -48.8 m 60.25,-22.15 h -19.8 v 22.15 48.8 32.6 h 19.8 v -32.6 -48.8 z"
         id="path6"
         inkscape:connector-curvature="0"
         style="fill:#7d8894;stroke:none" />
      <path
         d="m 43.9,144.4 q -0.65,0 -1.3,0 -0.75,0 -1.5,0 H 0 v 22 48.8 32.6 h 111.75 v -32.6 -48.8 -21.85 l -50.95,-0.1 q -8.45,0 -16.9,-0.05 m 64,45.95 H 81.45 V 167.6 h 26.45 v 22.75 m 92.5,-45.7 v 21.75 48.8 32.6 h 48.95 v -32.6 -48.8 -21.7 l -48.95,-0.05 m 34.25,45.7 H 208.2 V 167.6 h 26.45 v 22.75 M 180.6,144.6 h -0.2 q -0.3,0 -0.5,0 -4.35,0 -8.65,0 l -39.7,-0.05 v 21.85 48.8 32.6 h 26.55 22.5 v -32.6 -48.8 -21.8 m -13.45,23 v 22.75 H 158.1 140.7 V 167.6 h 26.45 m 465.5,-23.35 H 584.6 v 22.15 48.8 32.6 h 48.05 V 215.2 166.4 144.25 M 599,190.35 V 167.6 h 26.45 v 22.75 H 599 M 564.8,166.4 v -22.15 h -114 q -2.9,0 -5.8,0.1 -2.95,0 -5.9,0.05 v -0.15 h -19.8 v 0.2 q -25.75,0.05 -51.45,0.15 -2.8,0 -5.55,0 -4,0 -7.95,0 v -0.35 h -19.8 v 0.4 q -21.4,0.05 -42.7,0.05 -11.35,0 -22.7,0 v 21.7 48.8 32.6 h 93.15 202.5 v -32.6 -48.8 m -10.2,23.95 H 528.15 V 167.6 h 26.45 v 22.75 m -280.4,0 V 167.6 h 26.45 v 22.75 H 274.2 m 438.5,-46.1 v 22.15 48.8 32.6 h 88.15 V 215.2 166.4 144.25 H 712.7 m 3.8,46.1 V 167.6 h 26.45 v 22.75 H 716.5 m -64.05,-46.1 v 22.15 48.8 32.6 h 40.45 v -32.6 -48.8 -22.15 h -40.45 m 7.3,23.35 h 26.45 v 22.75 h -26.45 z"
         id="path8"
         inkscape:connector-curvature="0"
         style="fill:#394552;stroke:none" />
      <path
         d="M 81.45,190.35 H 107.9 V 167.6 H 81.45 v 22.75 M 102.1,169.7 h 0.35 v 5.3 h -0.35 -1.3 -0.55 v -5.3 h 0.55 1.3 m 2.45,0 h 1.65 0.1 v 5.3 h -0.1 -1.65 -0.8 v -5.3 h 0.8 m -17.4,0 h 2.2 v 5.3 h -2.2 v -5.3 m 3.5,0 h 2.4 v 5.3 h -2.4 v -5.3 m -7.55,0 h 2.45 V 175 H 83.1 v -5.3 m 13.25,0 h 0.8 1.6 v 5.3 h -1.6 -0.8 v -5.3 m 3.9,6.95 h 0.55 1.3 0.35 v 5.3 h -0.35 -1.3 -0.55 v -5.3 m -3.9,0 h 0.8 1.6 v 5.3 h -1.6 -0.8 v -5.3 m 0.8,6.75 h 1.6 v 4.85 h -1.6 -0.8 v -4.85 h 0.8 m 3.1,0 h 0.55 1.3 0.35 v 4.85 h -0.35 -1.3 -0.55 v -4.85 m -7.2,-6.75 v 5.3 h -2.4 v -5.3 h 2.4 m -5.9,0 h 2.2 v 5.3 h -2.2 v -5.3 m -4.05,0 h 2.45 v 5.3 H 83.1 v -5.3 m 0,6.75 h 2.45 v 4.85 H 83.1 v -4.85 m 4.05,0 h 2.2 v 4.85 h -2.2 v -4.85 m 3.5,0 h 2.4 v 4.85 h -2.4 v -4.85 m 13.1,-6.75 h 0.8 1.65 0.1 v 5.3 h -0.1 -1.65 -0.8 v -5.3 m 0.8,6.75 h 1.65 0.1 v 4.85 h -0.1 -1.65 -0.8 v -4.85 h 0.8 m 103.65,6.95 h 26.45 V 167.6 H 208.2 v 22.75 m 15.7,-20.65 h 1.6 v 5.3 h -1.6 -0.8 v -5.3 h 0.8 m 3.1,0 h 0.55 1.3 0.35 v 5.3 h -0.35 -1.3 -0.55 v -5.3 m 4.3,0 h 1.65 0.1 v 5.3 h -0.1 -1.65 -0.8 v -5.3 h 0.8 m -21.45,0 h 2.45 v 5.3 h -2.45 v -5.3 m 7.55,0 h 2.4 v 5.3 h -2.4 v -5.3 m -3.5,0 h 2.2 v 5.3 h -2.2 v -5.3 m 0,6.95 h 2.2 v 5.3 h -2.2 v -5.3 m 0,6.75 h 2.2 v 4.85 h -2.2 v -4.85 m 3.5,0 h 2.4 v 4.85 h -2.4 v -4.85 m 2.4,-1.45 h -2.4 v -5.3 h 2.4 v 5.3 m -9.95,0 v -5.3 h 2.45 v 5.3 h -2.45 m 0,1.45 h 2.45 v 4.85 h -2.45 v -4.85 m 23.1,0 h 0.1 v 4.85 h -0.1 -1.65 -0.8 v -4.85 h 0.8 1.65 m 0.1,-6.75 v 5.3 h -0.1 -1.65 -0.8 v -5.3 h 0.8 1.65 0.1 m -4.2,0 h 0.35 v 5.3 h -0.35 -1.3 -0.55 v -5.3 h 0.55 1.3 m -5.75,0 h 0.8 1.6 v 5.3 h -1.6 -0.8 v -5.3 m 3.9,6.75 h 0.55 1.3 0.35 v 4.85 h -0.35 -1.3 -0.55 v -4.85 m -3.9,0 h 0.8 1.6 v 4.85 h -1.6 -0.8 v -4.85 m -55.95,6.95 V 167.6 H 140.7 v 22.75 h 17.4 9.05 m -1.7,-20.65 h 0.1 v 5.3 h -0.1 -1.65 -0.8 v -5.3 h 0.8 1.65 m 0,6.95 h 0.1 v 5.3 h -0.1 -1.65 -0.8 v -5.3 h 0.8 1.65 m 0,6.75 h 0.1 v 4.85 h -0.1 -1.65 -0.8 v -4.85 h 0.8 1.65 m -9.05,-13.7 h 1.6 v 5.3 h -1.6 -0.8 v -5.3 h 0.8 m -14.05,0 h 2.45 v 5.3 h -2.45 v -5.3 m 4.05,0 h 2.2 v 5.3 h -2.2 v -5.3 m 13.1,0 h 0.55 1.3 0.35 v 5.3 h -0.35 -1.3 -0.55 v -5.3 m -9.6,0 h 2.4 v 5.3 h -2.4 v -5.3 m 10.15,6.95 h 1.3 0.35 v 5.3 h -0.35 -1.3 -0.55 v -5.3 h 0.55 m -4.45,0 h 0.8 1.6 v 5.3 h -1.6 -0.8 v -5.3 m 0,6.75 h 0.8 1.6 v 4.85 h -1.6 -0.8 v -4.85 m 5.75,0 h 0.35 v 4.85 h -0.35 -1.3 -0.55 v -4.85 h 0.55 1.3 m -9.05,-6.75 v 5.3 h -2.4 v -5.3 h 2.4 m -9.95,0 h 2.45 v 5.3 h -2.45 v -5.3 m 0,6.75 h 2.45 v 4.85 h -2.45 v -4.85 m 4.05,0 h 2.2 v 4.85 h -2.2 v -4.85 m 2.2,-6.75 v 5.3 h -2.2 v -5.3 h 2.2 m 1.3,11.6 v -4.85 h 2.4 v 4.85 h -2.4 M 599,167.6 v 22.75 h 26.45 V 167.6 H 599 m 1.65,2.1 h 2.45 v 5.3 h -2.45 v -5.3 m 4.05,0 h 2.2 v 5.3 h -2.2 v -5.3 m 0,6.95 h 2.2 v 5.3 h -2.2 v -5.3 m 0,6.75 h 2.2 v 4.85 h -2.2 v -4.85 m -4.05,-1.45 v -5.3 h 2.45 v 5.3 h -2.45 m 0,1.45 h 2.45 v 4.85 h -2.45 v -4.85 m 13.25,-13.7 h 0.8 1.6 v 5.3 h -1.6 -0.8 v -5.3 m -5.7,0 h 2.4 v 5.3 h -2.4 v -5.3 m 11.45,0 H 620 v 5.3 h -0.35 -1.3 -0.55 v -5.3 h 0.55 1.3 m 4.1,0 h 0.1 v 5.3 h -0.1 -1.65 -0.8 v -5.3 h 0.8 1.65 m 0,6.95 h 0.1 v 5.3 h -0.1 -1.65 -0.8 v -5.3 h 0.8 1.65 m -5.4,0 h 1.3 0.35 v 5.3 h -0.35 -1.3 -0.55 v -5.3 h 0.55 m 1.3,6.75 H 620 v 4.85 h -0.35 -1.3 -0.55 v -4.85 h 0.55 1.3 m 1.65,0 h 0.8 1.65 0.1 v 4.85 h -0.1 -1.65 -0.8 v -4.85 m -6.6,-6.75 h 1.6 v 5.3 h -1.6 -0.8 v -5.3 h 0.8 m -6.5,0 h 2.4 v 5.3 h -2.4 v -5.3 m 0,6.75 h 2.4 v 4.85 h -2.4 v -4.85 m 6.5,0 h 1.6 v 4.85 h -1.6 -0.8 v -4.85 h 0.8 M 274.2,167.6 v 22.75 h 26.45 V 167.6 H 274.2 m 5.7,2.1 h 2.2 v 5.3 h -2.2 v -5.3 m -4.05,0 h 2.45 v 5.3 h -2.45 v -5.3 m 4.05,6.95 h 2.2 v 5.3 h -2.2 v -5.3 m -4.05,0 h 2.45 v 5.3 h -2.45 v -5.3 m 0,6.75 h 2.45 v 4.85 h -2.45 v -4.85 m 4.05,0 h 2.2 v 4.85 h -2.2 v -4.85 m 3.5,-1.45 v -5.3 h 2.4 v 5.3 h -2.4 m 0,6.3 v -4.85 h 2.4 v 4.85 h -2.4 m 0,-13.25 v -5.3 h 2.4 v 5.3 h -2.4 m 5.7,-5.3 h 0.8 1.6 v 5.3 h -1.6 -0.8 v -5.3 m 5.75,0 h 0.35 v 5.3 h -0.35 -1.3 -0.55 v -5.3 h 0.55 1.3 m 1.65,0 h 0.8 1.65 0.1 v 5.3 h -0.1 -1.65 -0.8 v -5.3 m 2.45,6.95 h 0.1 v 5.3 h -0.1 -1.65 -0.8 v -5.3 h 0.8 1.65 m -4.1,0 h 0.35 v 5.3 h -0.35 -1.3 -0.55 v -5.3 h 0.55 1.3 m 1.65,6.75 h 0.8 1.65 0.1 v 4.85 h -0.1 -1.65 -0.8 v -4.85 m -1.65,0 h 0.35 v 4.85 h -0.35 -1.3 -0.55 v -4.85 h 0.55 1.3 m -5.75,-6.75 h 0.8 1.6 v 5.3 h -1.6 -0.8 v -5.3 m 0,6.75 h 0.8 1.6 v 4.85 h -1.6 -0.8 v -4.85 m 239.05,6.95 H 554.6 V 167.6 h -26.45 v 22.75 m 18.8,-20.65 h 0.55 1.3 0.35 v 5.3 h -0.35 -1.3 -0.55 v -5.3 m 4.3,0 h 1.65 0.1 v 5.3 h -0.1 -1.65 -0.8 v -5.3 h 0.8 m -13.9,0 h 2.4 v 5.3 h -2.4 v -5.3 m -3.5,0 h 2.2 v 5.3 h -2.2 v -5.3 m -4.05,0 h 2.45 v 5.3 h -2.45 v -5.3 m 13.25,0 h 0.8 1.6 v 5.3 h -1.6 -0.8 v -5.3 m 0,6.95 h 0.8 1.6 v 5.3 h -1.6 -0.8 v -5.3 m -5.7,0 h 2.4 v 5.3 h -2.4 v -5.3 m 0,6.75 h 2.4 v 4.85 h -2.4 v -4.85 m 6.5,0 h 1.6 v 4.85 h -1.6 -0.8 v -4.85 h 0.8 m -10,-6.75 h 2.2 v 5.3 h -2.2 v -5.3 m 0,6.75 h 2.2 v 4.85 h -2.2 v -4.85 m -4.05,0 h 2.45 v 4.85 h -2.45 v -4.85 m 2.45,-6.75 v 5.3 h -2.45 v -5.3 h 2.45 m 20.65,0 h 0.1 v 5.3 h -0.1 -1.65 -0.8 v -5.3 h 0.8 1.65 m -4.1,0 h 0.35 v 5.3 h -0.35 -1.3 -0.55 v -5.3 h 0.55 1.3 m 0,6.75 h 0.35 v 4.85 h -0.35 -1.3 -0.55 v -4.85 h 0.55 1.3 m 1.65,0 h 0.8 1.65 0.1 v 4.85 h -0.1 -1.65 -0.8 V 183.4 M 716.5,167.6 v 22.75 h 26.45 V 167.6 H 716.5 m 9.2,2.1 h 2.4 v 5.3 h -2.4 v -5.3 m -7.55,0 h 2.45 v 5.3 h -2.45 v -5.3 m 4.05,0 h 2.2 v 5.3 h -2.2 v -5.3 m 3.5,6.95 h 2.4 v 5.3 h -2.4 v -5.3 m 0,6.75 h 2.4 v 4.85 h -2.4 v -4.85 m -3.5,-1.45 v -5.3 h 2.2 v 5.3 h -2.2 m -1.6,-5.3 v 5.3 h -2.45 v -5.3 h 2.45 m 1.6,6.75 h 2.2 v 4.85 h -2.2 v -4.85 m -4.05,0 h 2.45 v 4.85 h -2.45 v -4.85 m 13.25,-13.7 h 0.8 1.6 v 5.3 h -1.6 -0.8 v -5.3 m 5.75,0 h 0.35 v 5.3 h -0.35 -1.3 -0.55 v -5.3 h 0.55 1.3 m 2.45,0 h 1.65 0.1 v 5.3 h -0.1 -1.65 -0.8 v -5.3 h 0.8 m 0,6.95 h 1.65 0.1 v 5.3 h -0.1 -1.65 -0.8 v -5.3 h 0.8 m 0,6.75 h 1.65 0.1 v 4.85 h -0.1 -1.65 -0.8 v -4.85 h 0.8 m -3.75,-6.75 h 1.3 0.35 v 5.3 h -0.35 -1.3 -0.55 v -5.3 h 0.55 m -3.65,0 h 1.6 v 5.3 h -1.6 -0.8 v -5.3 h 0.8 m 0,6.75 h 1.6 v 4.85 h -1.6 -0.8 v -4.85 h 0.8 m 3.1,0 h 0.55 1.3 0.35 v 4.85 h -0.35 -1.3 -0.55 v -4.85 m -49.1,-15.8 h -26.45 v 22.75 H 686.2 V 167.6 m -10.75,2.1 h 1.6 v 5.3 h -1.6 -0.8 v -5.3 h 0.8 m -6.5,0 h 2.4 v 5.3 h -2.4 v -5.3 m 11.45,0 h 0.35 v 5.3 h -0.35 -1.3 -0.55 v -5.3 h 0.55 1.3 m 4.1,0 h 0.1 v 5.3 h -0.1 -1.65 -0.8 v -5.3 h 0.8 1.65 m -23.1,0 h 2.45 v 5.3 h -2.45 v -5.3 m 4.05,0 h 2.2 v 5.3 h -2.2 v -5.3 m 0,6.95 h 2.2 v 5.3 h -2.2 v -5.3 m 0,6.75 h 2.2 v 4.85 h -2.2 v -4.85 m -4.05,0 h 2.45 v 4.85 h -2.45 v -4.85 m 2.45,-6.75 v 5.3 h -2.45 v -5.3 h 2.45 m 20.65,0 h 0.1 v 5.3 h -0.1 -1.65 -0.8 v -5.3 h 0.8 1.65 m -5.4,0 h 1.3 0.35 v 5.3 h -0.35 -1.3 -0.55 v -5.3 h 0.55 m -0.55,6.75 h 0.55 1.3 0.35 v 4.85 h -0.35 -1.3 -0.55 v -4.85 m 3.5,0 h 0.8 1.65 0.1 v 4.85 h -0.1 -1.65 -0.8 v -4.85 m -7.4,-6.75 h 0.8 1.6 v 5.3 h -1.6 -0.8 v -5.3 m -5.7,0 h 2.4 v 5.3 h -2.4 v -5.3 m 0,6.75 h 2.4 v 4.85 h -2.4 v -4.85 m 5.7,0 h 0.8 1.6 v 4.85 h -1.6 -0.8 z"
         id="path10"
         inkscape:connector-curvature="0"
         style="fill:#bfbf36;stroke:none" />
      <path
         d="M 49.7,75.9 H 62.25 V 64.75 H 49.7 V 75.9 M 77.8,64.75 H 68.05 V 75.9 H 77.8 V 64.75 m -50.05,0 V 75.9 H 43.9 V 64.75 H 27.75 M 5.8,75.9 H 21.95 V 64.75 H 5.8 V 75.9 m 130.25,0 h 9.6 V 64.75 h -9.6 V 75.9 M 117.7,64.75 V 75.9 h 12.4 V 64.75 h -12.4 m -21.35,0 H 83.6 V 75.9 H 96.35 V 64.75 m 15.4,0 h -9.6 V 75.9 h 9.6 V 64.75 M 221.4,75.9 H 231 V 64.75 h -9.6 V 75.9 M 215.6,64.75 H 203.1 V 75.9 h 12.5 V 64.75 M 163.15,75.9 V 64.75 h -11.7 V 75.9 h 11.7 M 180.6,64.75 H 168.8 V 75.9 h 11.8 V 64.75 m 16.65,0 H 186.4 V 75.9 h 10.85 V 64.75 m 104.55,0 H 289.3 V 75.9 h 12.5 V 64.75 m 15.4,0 h -9.55 V 75.9 h 9.55 V 64.75 M 249.35,75.9 V 64.75 h -12.6 V 75.9 h 12.6 m 5.8,0 h 11.8 V 64.75 h -11.8 V 75.9 m 28.3,-11.15 H 272.6 V 75.9 h 10.85 V 64.75 m 95.8,11.15 h 10.6 V 64.75 h -10.6 V 75.9 m -19,-11.15 V 75.9 H 373.5 V 64.75 H 360.25 M 334.8,75.9 V 64.75 H 323.15 V 75.9 h 11.65 m 5.9,0 h 13.65 V 64.75 H 340.7 V 75.9 m 122.8,0 h 9.7 V 64.75 h -9.7 V 75.9 M 444.8,64.75 V 75.9 h 12.9 V 64.75 H 444.8 M 405.2,75.9 V 64.75 h -9.55 V 75.9 h 9.55 M 423.55,64.75 H 411.1 V 75.9 h 12.45 V 64.75 m 15.55,0 h -9.7 V 75.9 h 9.7 V 64.75 M 546.4,75.9 h 12.45 V 64.75 H 546.4 V 75.9 M 540.55,64.75 H 530.9 V 75.9 h 9.65 V 64.75 M 491.45,75.9 V 64.75 h -12.4 V 75.9 h 12.4 m 5.95,0 h 9.55 V 64.75 H 497.4 V 75.9 M 525.15,64.75 H 512.8 V 75.9 h 12.35 V 64.75 m 101.75,0 H 614.25 V 75.9 H 626.9 V 64.75 m 15.35,0 h -9.6 V 75.9 h 9.6 V 64.75 m -43.25,0 V 75.9 h 9.5 V 64.75 H 599 M 574.35,75.9 V 64.75 H 564.8 V 75.9 h 9.55 m 5.85,0 h 12.9 V 64.75 H 580.2 V 75.9 m 119.55,49.4 h -5.9 -10.8 -5.8 -11.6 -5.9 -11.65 -5.85 -9.6 -5.75 -12.65 -5.75 -9.5 -5.9 -12.9 -5.85 -9.55 -5.95 -12.45 -5.85 -9.65 -5.75 -12.35 -5.85 -9.55 -5.95 -12.4 -5.85 -9.7 -5.8 -12.9 -5.7 -9.7 -5.85 -12.45 -5.9 -9.55 -5.8 -10.6 -5.75 -13.25 -5.9 -13.65 -5.9 -11.65 -5.95 -9.55 -5.85 -12.5 -5.85 -10.85 -5.65 -11.8 -5.8 -12.6 -5.75 -9.6 -5.8 -12.5 -5.85 -10.85 -5.8 -11.8 -5.65 -11.7 -5.8 -9.6 -5.95 -12.4 -5.95 -9.6 -5.8 H 83.6 77.8 68.05 62.25 49.7 43.9 27.75 21.95 5.8 0 v 9.8 h 158.1 133.75 70.45 5.55 433 v -9.8 h -5.95 -20.6 -5.95 -16.45 -5.95 -12.45 -5.75 -9.75 -5.8 -12.45 m 0,-49.4 H 712.2 V 64.75 H 699.75 V 75.9 m 28,-11.15 H 718 V 75.9 h 9.75 V 64.75 m -44.7,0 V 75.9 h 10.8 V 64.75 h -10.8 m -17.4,11.15 h 11.6 V 64.75 h -11.6 V 75.9 m -5.9,-11.15 H 648.1 V 75.9 h 11.65 V 64.75 m 114.55,0 V 75.9 h 20.6 V 64.75 h -20.6 m -28.35,0 H 733.5 V 75.9 h 12.45 V 64.75 m 22.4,0 H 751.9 V 75.9 h 16.45 V 64.75 M 800.85,11.1 V 0 h -433 -5.55 -28.25 -42.2 H 158.1 157.4 0 v 11.1 h 5.8 16.15 5.8 16.15 5.8 12.55 5.8 9.75 5.8 12.75 5.8 9.6 5.95 12.4 5.95 9.6 5.8 11.7 5.65 11.8 5.8 10.85 5.85 12.5 5.8 9.6 5.75 12.6 5.8 11.8 5.65 10.85 5.85 12.5 5.85 9.55 5.95 11.65 5.9 13.65 5.9 13.25 5.75 10.6 5.8 9.55 5.9 12.45 5.85 9.7 5.7 12.9 5.8 9.7 5.85 12.4 5.95 9.55 5.85 12.35 5.75 9.65 5.85 12.45 5.95 9.55 5.85 12.9 5.9 9.5 5.75 12.65 5.75 9.6 5.85 11.65 5.9 11.6 5.8 10.8 5.9 12.45 5.8 9.75 5.75 12.45 5.95 16.45 5.95 20.6 z"
         id="path12"
         inkscape:connector-curvature="0"
         style="fill:#f1f165;stroke:none" />
      <path
         d="m 727.75,108.3 h -9.75 -5.8 -12.45 -5.9 -10.8 -5.8 -11.6 -5.9 -11.65 -5.85 -9.6 -5.75 -12.65 -5.75 -9.5 -5.9 -12.9 -5.85 -9.55 -5.95 -12.45 -5.85 -9.65 -5.75 -12.35 -5.85 -9.55 -5.95 -12.4 -5.85 -9.7 -5.8 -12.9 -5.7 -9.7 -5.85 -12.45 -5.9 -9.55 -5.8 -10.6 -5.75 -13.25 -5.9 -13.65 -5.9 -11.65 -5.95 -9.55 -5.85 -12.5 -5.85 -10.85 -5.65 -11.8 -5.8 -12.6 -5.75 -9.6 -5.8 -12.5 -5.85 -10.85 -5.8 -11.8 -5.65 -11.7 -5.8 -9.6 -5.95 -12.4 -5.95 -9.6 -5.8 H 83.6 77.8 68.05 62.25 49.7 43.9 27.75 21.95 5.8 0 v 3.95 h 5.8 16.15 5.8 16.15 5.8 12.55 5.8 9.75 5.8 12.75 5.8 9.6 5.95 12.4 5.95 9.6 5.8 11.7 5.65 11.8 5.8 10.85 5.85 12.5 5.8 9.6 5.75 12.6 5.8 11.8 5.65 10.85 5.85 12.5 5.85 9.55 5.95 11.65 5.9 13.65 5.9 13.25 5.75 10.6 5.8 9.55 5.9 12.45 5.85 9.7 5.7 12.9 5.8 9.7 5.85 12.4 5.95 9.55 5.85 12.35 5.75 9.65 5.85 12.45 5.95 9.55 5.85 12.9 5.9 9.5 5.75 12.65 5.75 9.6 5.85 11.65 5.9 11.6 5.8 10.8 5.9 12.45 5.8 9.75 5.75 12.45 5.95 16.45 5.95 20.6 5.95 v -3.95 h -5.95 -20.6 -5.95 -16.45 -5.95 -12.45 -5.75 m 18.2,-32.4 h -12.45 -5.75 -9.75 -5.8 -12.45 -5.9 -10.8 -5.8 -11.6 -5.9 -11.65 -5.85 -9.6 -5.75 -12.65 -5.75 -9.5 -5.9 -12.9 -5.85 -9.55 -5.95 -12.45 -5.85 -9.65 -5.75 -12.35 -5.85 -9.55 -5.95 -12.4 -5.85 -9.7 -5.8 -12.9 -5.7 -9.7 -5.85 -12.45 -5.9 -9.55 -5.8 -10.6 -5.75 -13.25 -5.9 -13.65 -5.9 -11.65 -5.95 -9.55 -5.85 -12.5 -5.85 -10.85 -5.65 -11.8 -5.8 -12.6 -5.75 -9.6 -5.8 -12.5 -5.85 -10.85 -5.8 -11.8 -5.65 -11.7 -5.8 -9.6 -5.95 -12.4 -5.95 -9.6 -5.8 H 83.6 77.8 68.05 62.25 49.7 43.9 27.75 21.95 5.8 0 v 3.85 h 5.8 16.15 5.8 16.15 5.8 12.55 5.8 9.75 5.8 12.75 5.8 9.6 5.95 12.4 5.95 9.6 5.8 11.7 5.65 11.8 5.8 10.85 5.85 12.5 5.8 9.6 5.75 12.6 5.8 11.8 5.65 10.85 5.85 12.5 5.85 9.55 5.95 11.65 5.9 13.65 5.9 13.25 5.75 10.6 5.8 9.55 5.9 12.45 5.85 9.7 5.7 12.9 5.8 9.7 5.85 12.4 5.95 9.55 5.85 12.35 5.75 9.65 5.85 12.45 5.95 9.55 5.85 12.9 5.9 9.5 5.75 12.65 5.75 9.6 5.85 11.65 5.9 11.6 5.8 10.8 5.9 12.45 5.8 9.75 5.75 12.45 5.95 16.45 5.95 20.6 5.95 V 75.9 h -5.95 -20.6 -5.95 -16.45 -5.95 M 733.5,96.85 h 12.45 5.95 16.45 5.95 20.6 5.95 V 93.2 h -5.95 -20.6 -5.95 -16.45 -5.95 -12.45 -5.75 -9.75 -5.8 -12.45 -5.9 -10.8 -5.8 -11.6 -5.9 -11.65 -5.85 -9.6 -5.75 -12.65 -5.75 -9.5 -5.9 -12.9 -5.85 -9.55 -5.95 -12.45 -5.85 -9.65 -5.75 -12.35 -5.85 -9.55 -5.95 -12.4 -5.85 -9.7 -5.8 -12.9 -5.7 -9.7 -5.85 -12.45 -5.9 -9.55 -5.8 -10.6 -5.75 -13.25 -5.9 -13.65 -5.9 -11.65 -5.95 -9.55 -5.85 -12.5 -5.85 -10.85 -5.65 -11.8 -5.8 -12.6 -5.75 -9.6 -5.8 -12.5 -5.85 -10.85 -5.8 -11.8 -5.65 -11.7 -5.8 -9.6 -5.95 -12.4 -5.95 -9.6 -5.8 H 83.6 77.8 68.05 62.25 49.7 43.9 27.75 21.95 5.8 0 v 3.65 h 5.8 16.15 5.8 16.15 5.8 12.55 5.8 9.75 5.8 12.75 5.8 9.6 5.95 12.4 5.95 9.6 5.8 11.7 5.65 11.8 5.8 10.85 5.85 12.5 5.8 9.6 5.75 12.6 5.8 11.8 5.65 10.85 5.85 12.5 5.85 9.55 5.95 11.65 5.9 13.65 5.9 13.25 5.75 10.6 5.8 9.55 5.9 12.45 5.85 9.7 5.7 12.9 5.8 9.7 5.85 12.4 5.95 9.55 5.85 12.35 5.75 9.65 5.85 12.45 5.95 9.55 5.85 12.9 5.9 9.5 5.75 12.65 5.75 9.6 5.85 11.65 5.9 11.6 5.8 10.8 5.9 12.45 5.8 9.75 5.75 m 67.35,-50 h -5.95 -20.6 -5.95 -16.45 -5.95 -12.45 -5.75 -9.75 -5.8 -12.45 -5.9 -10.8 -5.8 -11.6 -5.9 -11.65 -5.85 -9.6 -5.75 -12.65 -5.75 -9.5 -5.9 -12.9 -5.85 -9.55 -5.95 -12.45 -5.85 -9.65 -5.75 -12.35 -5.85 -9.55 -5.95 -12.4 -5.85 -9.7 -5.8 -12.9 -5.7 -9.7 -5.85 -12.45 -5.9 -9.55 -5.8 -10.6 -5.75 -13.25 -5.9 -13.65 -5.9 -11.65 -5.95 -9.55 -5.85 -12.5 -5.85 -10.85 -5.65 -11.8 -5.8 -12.6 -5.75 -9.6 -5.8 -12.5 -5.85 -10.85 -5.8 -11.8 -5.65 -11.7 -5.8 -9.6 -5.95 -12.4 -5.95 -9.6 -5.8 H 83.6 77.8 68.05 62.25 49.7 43.9 27.75 21.95 5.8 0 v 3.95 h 5.8 16.15 5.8 16.15 5.8 12.55 5.8 9.75 5.8 12.75 5.8 9.6 5.95 12.4 5.95 9.6 5.8 11.7 5.65 11.8 5.8 10.85 5.85 12.5 5.8 9.6 5.75 12.6 5.8 11.8 5.65 10.85 5.85 12.5 5.85 9.55 5.95 11.65 5.9 13.65 5.9 13.25 5.75 10.6 5.8 9.55 5.9 12.45 5.85 9.7 5.7 12.9 5.8 9.7 5.85 12.4 5.95 9.55 5.85 12.35 5.75 9.65 5.85 12.45 5.95 9.55 5.85 12.9 5.9 9.5 5.75 12.65 5.75 9.6 5.85 11.65 5.9 11.6 5.8 10.8 5.9 12.45 5.8 9.75 5.75 12.45 5.95 16.45 5.95 20.6 5.95 v -3.95 m 0,-14.1 V 28.9 h -5.95 -20.6 -5.95 -16.45 -5.95 -12.45 -5.75 -9.75 -5.8 -12.45 -5.9 -10.8 -5.8 -11.6 -5.9 -11.65 -5.85 -9.6 -5.75 -12.65 -5.75 -9.5 -5.9 -12.9 -5.85 -9.55 -5.95 -12.45 -5.85 -9.65 -5.75 -12.35 -5.85 -9.55 -5.95 -12.4 -5.85 -9.7 -5.8 -12.9 -5.7 -9.7 -5.85 -12.45 -5.9 -9.55 -5.8 -10.6 -5.75 -13.25 -5.9 -13.65 -5.9 -11.65 -5.95 -9.55 -5.85 -12.5 -5.85 -10.85 -5.65 -11.8 -5.8 -12.6 -5.75 -9.6 -5.8 -12.5 -5.85 -10.85 -5.8 -11.8 -5.65 -11.7 -5.8 -9.6 -5.95 -12.4 -5.95 -9.6 -5.8 H 83.6 77.8 68.05 62.25 49.7 43.9 27.75 21.95 5.8 0 v 3.85 h 5.8 16.15 5.8 16.15 5.8 12.55 5.8 9.75 5.8 12.75 5.8 9.6 5.95 12.4 5.95 9.6 5.8 11.7 5.65 11.8 5.8 10.85 5.85 12.5 5.8 9.6 5.75 12.6 5.8 11.8 5.65 10.85 5.85 12.5 5.85 9.55 5.95 11.65 5.9 13.65 5.9 13.25 5.75 10.6 5.8 9.55 5.9 12.45 5.85 9.7 5.7 12.9 5.8 9.7 5.85 12.4 5.95 9.55 5.85 12.35 5.75 9.65 5.85 12.45 5.95 9.55 5.85 12.9 5.9 9.5 5.75 12.65 5.75 9.6 5.85 11.65 5.9 11.6 5.8 10.8 5.9 12.45 5.8 9.75 5.75 12.45 5.95 16.45 5.95 20.6 z"
         id="path14"
         inkscape:connector-curvature="0"
         style="fill:#fef8f6;stroke:none" />
    </g>
    <g
       id="Layer0_0_FILL-3">
      <path
         id="path29"
         d="m 72,89.5 v 20.45 H 87.5 V 89.5 H 72 m 57.4,72.8 V 143.2 H 113 v 19.1 h 16.4 M 107,143.2 H 93.5 v 19.1 H 107 V 143.2 M 93.5,117 v 19.15 H 107 V 117 H 93.5 m 61.6,26.2 h -19.7 v 19.1 h 19.7 V 143.2 M 135.4,117 v 19.15 h 19.7 V 117 h -19.7 m -6,19.15 V 117 H 113 v 19.15 h 16.4 M 72,143.2 v 19.1 H 87.5 V 143.2 H 72 M 44.5,162.3 V 143.2 H 31 v 19.1 H 44.5 M 72,117 v 19.15 H 87.5 V 117 H 72 m -6,26.2 H 50.5 v 19.1 H 66 V 143.2 M 50.5,117 v 19.15 H 66 V 117 H 50.5 m -6,19.15 V 117 H 31 v 19.15 h 13.5 m 0,-46.65 H 31 v 20.45 H 44.5 V 89.5 m 0,-37.75 v -23 H 31 v 23 H 44.5 M 66,89.5 H 50.5 v 20.45 H 66 V 89.5 m 0,-7.05 V 58.8 H 50.5 V 82.45 H 66 M 31,58.8 V 82.45 H 44.5 V 58.8 H 31 M 66,28.75 H 50.5 v 23 H 66 v -23 m 21.5,23 v -23 H 72 v 23 H 87.5 M 129.4,89.5 H 113 v 20.45 h 16.4 V 89.5 m 0,-37.75 v -23 H 113 v 23 h 16.4 m 25.7,37.75 h -19.7 v 20.45 h 19.7 V 89.5 m 0,-7.05 V 58.8 h -19.7 v 23.65 h 19.7 m -67.6,0 V 58.8 H 72 V 82.45 H 87.5 M 107,89.5 H 93.5 v 20.45 H 107 V 89.5 m 6,-30.7 v 23.65 h 16.4 V 58.8 H 113 m -6,23.65 V 58.8 H 93.5 V 82.45 H 107 m 0,-53.7 H 93.5 v 23 H 107 v -23 m 48.1,0 h -19.7 v 23 h 19.7 v -23 m 892.65,59.5 v 20.45 h 15.5 V 88.25 h -15.5 m 56.5,72.8 v -19.1 h -13.5 v 19.1 h 13.5 m -19.5,-19.1 h -15.5 v 19.1 h 15.5 v -19.1 m 0,-7.05 v -19.15 h -15.5 v 19.15 h 15.5 m 19.5,0 v -19.15 h -13.5 v 19.15 h 13.5 m -56.5,7.05 v 19.1 h 15.5 v -19.1 h -15.5 m -25.5,19.1 v -19.1 h -20.85 v 19.1 h 20.85 m -26.85,-19.1 h -20.85 v 19.1 h 20.85 v -19.1 m 0,-7.05 v -19.15 h -20.85 v 19.15 h 20.85 m 46.35,7.05 h -13.5 v 19.1 h 13.5 v -19.1 m -19.5,-7.05 v -19.15 h -20.85 v 19.15 h 20.85 m 25.5,-19.15 v 19.15 h 15.5 v -19.15 h -15.5 m -19.5,0 v 19.15 h 13.5 v -19.15 h -13.5 m -6,-27.5 h -20.85 v 20.45 h 20.85 V 88.25 M 1001.4,27.5 v 23 h 20.85 v -23 h -20.85 m 40.35,60.75 h -13.5 v 20.45 h 13.5 V 88.25 m 0,-7.05 V 57.55 h -13.5 V 81.2 h 13.5 M 1001.4,57.55 V 81.2 h 20.85 V 57.55 h -20.85 m -6,30.7 H 974.55 V 108.7 H 995.4 V 88.25 m 0,-7.05 V 57.55 H 974.55 V 81.2 h 20.85 m 0,-53.7 h -20.85 v 23 h 20.85 v -23 m 46.35,0 h -13.5 v 23 h 13.5 v -23 m 21.5,23 v -23 h -15.5 v 23 h 15.5 m 41,37.75 h -13.5 v 20.45 h 13.5 V 88.25 m -13.5,-60.75 v 23 h 13.5 v -23 h -13.5 m -27.5,53.7 V 57.55 h -15.5 V 81.2 h 15.5 m 21.5,7.05 h -15.5 v 20.45 h 15.5 V 88.25 m 6,-30.7 V 81.2 h 13.5 V 57.55 h -13.5 m -6,23.65 V 57.55 h -15.5 V 81.2 h 15.5 m 0,-53.7 h -15.5 v 23 h 15.5 z"
         inkscape:connector-curvature="0"
         style="fill:#0e0e0e;stroke:none" />
      <path
         id="path31"
         d="m 113,143.2 h -6 v 19.1 h 6 v -19.1 m -19.5,0 h -6 v 19.1 h 6 v -19.1 m 0,-26.2 h -6 v 19.15 h 6 V 117 m 19.5,0 h -6 v 19.15 h 6 V 117 m 48.1,26.2 h -6 v 19.1 h 6 v -2.2 -16.9 m -25.7,0 h -6 v 19.1 h 6 v -19.1 m 0,-26.2 h -6 v 19.15 h 6 V 117 m 25.7,0 h -6 v 19.15 h 6 V 117 M 72,143.2 h -6 v 19.1 h 6 v -19.1 m -21.5,0 h -6 v 19.1 h 6 v -19.1 m 0,-26.2 h -6 v 19.15 h 6 V 117 m 21.5,0 h -6 v 19.15 h 6 V 117 m 0,-27.5 h -6 v 20.45 h 6 V 89.5 m -21.5,0 h -6 v 20.45 h 6 V 89.5 m 0,-30.7 h -6 v 23.65 h 6 V 58.8 m 21.5,0 h -6 v 23.65 h 6 V 58.8 m 0,-30.05 h -6 v 23 h 6 v -23 m -21.5,0 h -6 v 23 h 6 v -23 M 161.1,89.5 h -6 v 20.45 h 6 V 108.8 89.5 m -25.7,0 h -6 v 20.45 h 6 V 89.5 m 0,-30.7 h -6 v 23.65 h 6 V 58.8 m 25.7,0 h -6 v 23.65 h 6 V 58.8 M 113,89.5 h -6 v 20.45 h 6 V 89.5 m -19.5,0 h -6 v 20.45 h 6 V 89.5 m 0,-30.7 h -6 v 23.65 h 6 V 58.8 m 19.5,0 h -6 v 23.65 h 6 V 58.8 M 93.5,28.75 h -6 v 23 h 6 v -23 m 19.5,0 h -6 v 23 h 6 v -23 m 48.1,0 h -6 v 23 h 6 v -23 m -25.7,0 h -6 v 23 h 6 v -23 M 974.55,108.7 V 88.25 h -6 v 20.45 h 6 m 116.2,33.25 h -6 v 19.1 h 6 v -19.1 m -21.5,0 h -6 v 19.1 h 6 v -19.1 m 0,-26.2 h -6 v 19.15 h 6 v -19.15 m 21.5,0 h -6 v 19.15 h 6 v -19.15 m -116.2,45.3 v -19.1 h -6 v 18.15 0.95 h 6 m 0,-26.15 v -19.15 h -6 v 19.15 h 6 m 26.85,7.05 h -6 v 19.1 h 6 v -19.1 m 0,-26.2 h -6 v 19.15 h 6 v -19.15 m 46.35,26.2 h -6 v 19.1 h 6 v -19.1 m -19.5,0 h -6 v 19.1 h 6 v -19.1 m 0,-26.2 h -6 v 19.15 h 6 v -19.15 m 19.5,0 h -6 v 19.15 h 6 V 115.75 M 974.55,50.5 v -23 h -6 v 23 h 6 m 73.2,37.75 h -6 v 20.45 h 6 V 88.25 m -19.5,0 h -6 v 20.45 h 6 V 88.25 m 0,-30.7 h -6 V 81.2 h 6 V 57.55 m 19.5,0 h -6 V 81.2 h 6 V 57.55 M 974.55,81.2 V 57.55 h -6 V 81.2 h 6 m 26.85,7.05 h -6 v 20.45 h 6 V 88.25 m 0,-30.7 h -6 V 81.2 h 6 V 57.55 m 0,-30.05 h -6 v 23 h 6 v -23 m 46.35,0 h -6 v 23 h 6 v -23 m -19.5,0 h -6 v 23 h 6 v -23 m 62.5,60.75 h -6 v 20.45 h 6 V 88.25 m -21.5,0 h -6 v 20.45 h 6 V 88.25 m 0,-30.7 h -6 V 81.2 h 6 V 57.55 m 21.5,0 h -6 V 81.2 h 6 V 57.55 m 0,-30.05 h -6 v 23 h 6 v -23 m -21.5,0 h -6 v 23 h 6 z"
         inkscape:connector-curvature="0"
         style="fill:#d03f33;stroke:none" />
      <path
         id="path33"
         d="M 72,162.3 H 66 50.5 44.5 31 v 48.25 h 62.1 11.8 56.2 V 162.3 h -6 -19.7 -6 H 113 107 93.5 87.5 72 M 135.4,28.75 h 19.7 6 V 1.25 H 104.9 93.1 31 v 27.5 h 13.5 6 15.5 6 15.5 6 13.5 6 16.4 6 m 860,132.3 h -20.85 -6 v 45.5 h 135.7 v -45.5 h -13.5 -6 -15.5 -6 -15.5 -6 -13.5 -6 -20.85 -6 M 1104.25,27.5 V 0 h -135.7 v 27.5 h 6 20.85 6 20.85 6 13.5 6 15.5 6 15.5 6 z"
         inkscape:connector-curvature="0"
         style="fill:#f2f253;stroke:none" />
      <path
         id="path35"
         d="M 50.5,136.15 H 44.5 31 v 7.05 h 13.5 6 15.5 6 15.5 6 13.5 6 16.4 6 19.7 6 v -7.05 h -6 -19.7 -6 H 113 107 93.5 87.5 72 66 50.5 M 72,109.95 H 66 50.5 44.5 31 V 117 h 13.5 6 15.5 6 15.5 6 13.5 6 16.4 6 19.7 6 v -7.05 h -6 -19.7 -6 H 113 107 93.5 87.5 72 M 87.5,89.5 h 6 13.5 6 16.4 6 19.7 6 v -7.05 h -6 -19.7 -6 H 113 107 93.5 87.5 72 66 50.5 44.5 31 v 7.05 h 13.5 6 15.5 6 15.5 M 113,51.75 H 107 93.5 87.5 72 66 50.5 44.5 31 v 7.05 h 13.5 6 15.5 6 15.5 6 13.5 6 16.4 6 19.7 6 v -2.3 -4.75 h -6 -19.7 -6 -16.4 m 909.25,90.2 h 6 13.5 6 15.5 6 15.5 6 13.5 v -7.05 h -13.5 -6 -15.5 -6 -15.5 -6 -13.5 -6 -20.85 -6 -20.85 -6 v 7.05 h 6 20.85 6 20.85 m 25.5,-33.25 h -6 -13.5 -6 -20.85 -6 -20.85 -6 v 0.1 6.95 h 6 20.85 6 20.85 6 13.5 6 15.5 6 15.5 6 13.5 v -7.05 h -13.5 -6 -15.5 -6 -15.5 m 21.5,-27.5 h -6 -15.5 -6 -13.5 -6 -20.85 -6 -20.85 -6 v 7.05 h 6 20.85 6 20.85 6 13.5 6 15.5 6 15.5 6 13.5 V 81.2 h -13.5 -6 -15.5 m 15.5,-23.65 h 6 13.5 V 50.5 h -13.5 -6 -15.5 -6 -15.5 -6 -13.5 -6 -20.85 -6 -20.85 -6 v 6 1.05 h 6 20.85 6 20.85 6 13.5 6 15.5 6 z"
         inkscape:connector-curvature="0"
         style="fill:#fef8f6;stroke:none" />
      <path
         id="path37"
         d="M 31,1.25 H 0 v 55.25 52.3 51.3 50.45 H 31 V 162.3 143.2 136.15 117 109.95 89.5 82.45 58.8 51.75 28.75 1.25 M 1135.25,56.5 V 0 h -31 v 27.5 23 7.05 23.65 7.05 20.45 7.05 19.15 7.05 19.1 45.5 h 31 V 160.1 108.8 Z"
         inkscape:connector-curvature="0"
         style="fill:#7d8894;stroke:none" />
    </g>
    <g
       id="Layer0_0_FILL-6">
      <path
         id="path60"
         d="M 119,48.75 V 11 1.25 H 0 V 11 48.75 123.4 151.5 203.8 305.05 H 119 V 203.8 151.5 123.4 48.75 M 87.05,24.85 v 33.9 h -33 v -33.9 h 33 m -33,152.55 v -33.9 h 33 v 33.9 h -33 m 0,-97.35 h 33 v 33.9 h -33 v -33.9 m 33,127 v 33.9 h -33 v -33.9 h 33 M 910.15,11 V 0 h -119 v 11 112.4 28.1 52.3 97.65 h 119 V 203.8 151.5 123.4 11 M 856.1,23.5 v 0.1 33.9 h -33 V 23.6 23.5 h 33 m -33,55.3 h 33 v 33.9 h -33 V 78.8 m 0,63.45 h 33 v 33.9 h -33 v -33.9 m 33,63.55 v 33.9 h -33 v -33.9 z"
         inkscape:connector-curvature="0"
         style="fill:#7d8894;stroke:none" />
      <path
         id="path62"
         d="m 87.05,240.95 v -33.9 h -33 v 33.9 h 33 M 84.2,210.5 v 27 H 56.8 v -27 H 84.2 M 87.05,80.05 h -33 v 33.9 h 33 V 80.05 M 56.8,110.5 v -27 h 27.4 v 27 H 56.8 m -2.75,33 v 33.9 h 33 v -33.9 h -33 m 2.75,30.45 v -27 h 27.4 v 27 H 56.8 M 87.05,58.75 v -33.9 h -33 v 33.9 h 33 M 84.2,28.3 v 27 H 56.8 v -27 h 27.4 m 771.9,211.4 v -33.9 h -33 v 33.9 h 33 m -2.75,-30.45 v 27 h -27.4 v -27 h 27.4 m 2.75,-67 h -33 v 33.9 h 33 v -33.9 m -2.75,30.45 h -27.4 v -27 h 27.4 v 27 m 2.75,-93.9 h -33 v 33.9 h 33 V 78.8 m -30.15,3.45 h 27.4 v 27 h -27.4 v -27 M 856.1,57.5 V 23.6 h -33 v 33.9 h 33 m -2.75,-30.45 v 27 h -27.4 v -27 z"
         inkscape:connector-curvature="0"
         style="fill:#d03f33;stroke:none" />
      <path
         id="path64"
         d="m 84.2,237.5 v -27 H 56.8 v 27 H 84.2 M 81.75,214 v 7.75 H 72.4 V 214 h 9.35 m 0,11.75 v 8.75 H 72.4 v -8.75 h 9.35 M 68.45,214 v 7.75 h -9.2 V 214 h 9.2 m -9.2,20.5 v -8.75 h 9.2 v 8.75 h -9.2 M 56.8,83.5 v 27 h 27.4 v -27 H 56.8 M 81.75,87 v 7.75 H 72.4 V 87 h 9.35 m -22.5,7.75 V 87 h 9.2 v 7.75 h -9.2 m 0,4 h 9.2 v 8.75 h -9.2 v -8.75 m 22.5,0 v 8.75 H 72.4 v -8.75 h 9.35 m -24.95,48.2 v 27 h 27.4 v -27 H 56.8 m 11.65,15.25 v 8.75 h -9.2 v -8.75 h 9.2 m 3.95,8.75 v -8.75 h 9.35 v 8.75 H 72.4 m -3.95,-20.5 v 7.75 h -9.2 v -7.75 h 9.2 m 3.95,7.75 v -7.75 h 9.35 v 7.75 H 72.4 M 84.2,55.3 v -27 H 56.8 v 27 H 84.2 M 81.75,31.8 v 7.75 H 72.4 V 31.8 h 9.35 m 0,11.75 V 52.3 H 72.4 v -8.75 h 9.35 m -22.5,0 h 9.2 v 8.75 h -9.2 v -8.75 m 9.2,-4 h -9.2 V 31.8 h 9.2 v 7.75 m 784.9,196.7 v -27 h -27.4 v 27 h 27.4 m -2.45,-23.5 v 7.75 h -9.2 v -7.75 h 9.2 m 0,11.75 v 8.75 h -9.2 v -8.75 h 9.2 m -13.15,-11.75 v 7.75 h -9.35 v -7.75 h 9.35 m -9.35,20.5 v -8.75 h 9.35 v 8.75 h -9.35 m -2.45,-60.55 h 27.4 v -27 h -27.4 v 27 m 11.8,-11.75 v 8.75 h -9.35 v -8.75 h 9.35 m 3.95,8.75 v -8.75 h 9.2 v 8.75 h -9.2 m 0,-12.75 v -7.75 h 9.2 v 7.75 h -9.2 m -3.95,-7.75 v 7.75 h -9.35 v -7.75 h 9.35 m 15.6,-66.95 h -27.4 v 27 h 27.4 v -27 m -15.6,3.5 v 7.75 h -9.35 v -7.75 h 9.35 m 3.95,7.75 v -7.75 h 9.2 v 7.75 h -9.2 m -13.3,4 h 9.35 v 8.75 H 828.4 V 97.5 m 13.3,0 h 9.2 v 8.75 h -9.2 V 97.5 m 11.65,-43.45 v -27 h -27.4 v 27 h 27.4 m -2.45,-23.5 v 7.75 h -9.2 v -7.75 h 9.2 M 828.4,42.3 h 9.35 v 8.75 H 828.4 V 42.3 m 0,-11.75 h 9.35 v 7.75 h -9.35 v -7.75 m 13.3,20.5 V 42.3 h 9.2 v 8.75 z"
         inkscape:connector-curvature="0"
         style="fill:#bfbf36;stroke:none" />
      <path
         id="path66"
         d="m 59.25,225.75 v 8.75 h 9.2 v -8.75 h -9.2 m 9.2,-4 V 214 h -9.2 v 7.75 h 9.2 m 13.3,12.75 v -8.75 H 72.4 v 8.75 h 9.35 m 0,-12.75 V 214 H 72.4 v 7.75 h 9.35 m 0,-114.25 V 98.75 H 72.4 v 8.75 h 9.35 m -13.3,-8.75 h -9.2 v 8.75 h 9.2 V 98.75 M 59.25,87 v 7.75 h 9.2 V 87 h -9.2 m 22.5,7.75 V 87 H 72.4 v 7.75 h 9.35 m -9.35,55.7 v 7.75 h 9.35 v -7.75 H 72.4 m -3.95,7.75 v -7.75 h -9.2 v 7.75 h 9.2 m 3.95,4 v 8.75 h 9.35 V 162.2 H 72.4 m -3.95,8.75 v -8.75 h -9.2 v 8.75 h 9.2 m -9.2,-131.4 h 9.2 V 31.8 h -9.2 v 7.75 m 9.2,4 h -9.2 v 8.75 h 9.2 v -8.75 m 13.3,8.75 V 43.55 H 72.4 v 8.75 h 9.35 m 0,-12.75 V 31.8 H 72.4 v 7.75 h 9.35 M 828.4,224.5 v 8.75 h 9.35 v -8.75 h -9.35 m 9.35,-4 v -7.75 h -9.35 v 7.75 h 9.35 m 13.15,12.75 v -8.75 h -9.2 v 8.75 h 9.2 m 0,-12.75 v -7.75 h -9.2 v 7.75 h 9.2 m -13.15,-63.55 v -7.75 h -9.35 v 7.75 h 9.35 m 3.95,-7.75 v 7.75 h 9.2 v -7.75 h -9.2 m 0,11.75 v 8.75 h 9.2 v -8.75 h -9.2 m -3.95,8.75 v -8.75 h -9.35 v 8.75 h 9.35 M 850.9,97.5 h -9.2 v 8.75 h 9.2 V 97.5 m -13.15,0 h -9.35 v 8.75 h 9.35 V 97.5 m 3.95,-11.75 v 7.75 h 9.2 v -7.75 h -9.2 m -3.95,7.75 v -7.75 h -9.35 v 7.75 h 9.35 m 3.95,-51.2 v 8.75 h 9.2 V 42.3 h -9.2 m -3.95,-11.75 h -9.35 v 7.75 h 9.35 v -7.75 m 0,11.75 h -9.35 v 8.75 h 9.35 V 42.3 m 13.15,-4 v -7.75 h -9.2 v 7.75 z"
         inkscape:connector-curvature="0"
         style="fill:#0e0e0e;stroke:none" />
    </g>
    <g
       id="Layer0_0_FILL-7">
      <path
         id="path88"
         d="m 67.1,70.3 v 0.1 h 4.85 V 70.3 58.85 H 67.1 V 70.3 m 74.5,-11.45 h -4.75 v 11.45 0.1 h 4.75 V 70.3 58.85 m -51.2,0 h -3.3 v 11.45 0.1 h 3.3 V 70.3 58.85 m 7.75,0 h -2.1 -1.3 v 11.45 0.1 h 1.3 2.1 V 70.3 58.85 M 119.5,70.3 v 0.1 h 3.75 V 70.3 58.85 H 119.5 V 70.3 m -8.3,0 v 0.1 H 115 V 70.3 58.85 h -3.8 V 70.3 M 115,47.95 h -3.8 v 7.95 h 3.8 v -7.95 m -18.95,0 h -1.3 v 7.95 h 1.3 2.1 v -7.95 h -2.1 M 111.2,39.5 v 0.1 5.3 h 3.8 v -5.4 h -3.8 m -13.05,0.1 v -0.1 h -2.1 -1.3 v 5.4 h 1.3 2.1 V 39.6 M 67.1,44.9 h 4.85 V 39.6 39.5 H 67.1 v 5.4 m 20,-5.4 v 0.1 5.3 h 3.3 V 39.5 H 87.1 M 71.95,47.95 H 67.1 v 7.95 h 4.85 v -7.95 m 18.45,0 h -3.3 v 7.95 h 3.3 v -7.95 m 32.85,7.95 v -7.95 h -3.75 v 7.95 h 3.75 m 18.35,-7.95 h -4.75 v 7.95 h 4.75 v -7.95 m -4.75,-8.35 v 5.3 h 4.75 v -5.3 h -4.75 m -13.6,5.3 v -5.3 -0.1 h -3.75 v 5.4 z"
         inkscape:connector-curvature="0"
         style="fill:#981e1e;stroke:none" />
      <path
         id="path90"
         d="M 21.1,20.95 Q 0,20.95 0,20.35 v 8.5 3.95 13.05 9.8 9.15 5.5 94.25 H 32 49.05 V 70.4 Q 49.036719,71 45.65,71 42.2,71 42.2,70.4 V 20.35 q 0,0.55 -16.6,0.6 -2.1,0 -4.5,0 m 20.7,143.1 0.45,0.3 H 41.8 v -0.3 M 207.7,45.45 v -25.5 q 0,0.6 -21.95,0.6 -22,0 -22,-0.6 v 50.35 0.1 q 0,0.6 -2.55,0.6 -2.53008,0 -2.55,-0.6 v 93.55 l 9.4,0.2 H 207.7 V 70.3 64.4 55.25 Z"
         inkscape:connector-curvature="0"
         style="fill:#66798f;stroke:none" />
      <path
         id="path92"
         d="m 42.25,164.35 -0.45,-0.3 v 0.3 z"
         inkscape:connector-curvature="0"
         style="fill:#35424b;stroke:none" />
      <path
         id="path94"
         d="m 123.25,70.3 v 0.1 h 13.6 V 70.3 58.85 h -13.6 V 70.3 M 87.1,70.4 V 70.3 58.85 H 71.95 V 70.3 70.4 H 87.1 m 24.1,-22.45 h -9.6 -3.45 v 7.95 h 3.45 9.6 V 47.95 M 98.15,39.6 v 5.3 h 3.45 9.6 v -5.3 h -9.6 -3.45 M 87.1,44.9 V 39.6 H 71.95 v 5.3 H 87.1 m 0,11 V 47.95 H 71.95 V 55.9 H 87.1 m 49.75,-7.95 h -13.6 v 7.95 h 13.6 v -7.95 m -13.6,-8.35 v 5.3 h 13.6 v -5.3 h -13.6 M 111.2,58.85 h -9.6 -3.45 v 11.45 0.1 h 13.05 v -0.1 z"
         inkscape:connector-curvature="0"
         style="fill:#0e0e0e;stroke:none" />
      <path
         id="path96"
         d="m 101.6,58.85 h 9.6 3.8 v 11.45 0.1 h 4.5 V 70.3 58.85 h 3.75 13.6 4.75 v 11.45 0.1 h 3.1 V 70.3 35.55 H 63.95 V 70.3 70.4 H 67.1 V 70.3 58.85 h 4.85 15.15 3.3 v 11.45 0.1 h 4.35 V 70.3 58.85 h 1.3 2.1 3.45 M 123.25,39.5 v 0.1 h 13.6 4.75 v 5.3 h -4.75 -13.6 -3.75 v -5.4 h 3.75 m 13.6,8.45 h 4.75 v 7.95 h -4.75 -13.6 -3.75 v -7.95 h 3.75 13.6 m -49.75,0 h 3.3 V 55.9 H 87.1 71.95 67.1 v -7.95 h 4.85 15.15 m 0,-8.35 v -0.1 h 3.3 v 5.4 H 87.1 71.95 67.1 v -5.4 h 4.85 v 0.1 H 87.1 m 11.05,-0.1 v 0.1 h 3.45 9.6 v -0.1 h 3.8 v 5.4 h -3.8 -9.6 -3.45 -2.1 -1.3 v -5.4 h 1.3 2.1 m -3.4,8.45 h 1.3 2.1 3.45 9.6 3.8 v 7.95 h -3.8 -9.6 -3.45 -2.1 -1.3 z"
         inkscape:connector-curvature="0"
         style="fill:#d03f33;stroke:none" />
      <path
         id="path98"
         d="M 163.75,18 V 0 H 101.6 96.05 42.2 V 20.35 70.4 q 0,0.6 3.45,0.6 3.386719,0 3.4,-0.6 0,0.6 7.45,0.6 7.45,0 7.45,-0.6 V 70.3 35.55 h 80.75 v 34.75 0.1 q 0,0.6 7,0.6 6.95,0 6.95,-0.6 0.0199,0.6 2.55,0.6 2.55,0 2.55,-0.6 V 70.3 19.95 Z"
         inkscape:connector-curvature="0"
         style="fill:#f2f253;stroke:none" />
    </g>
    <g
       id="Layer0_0_FILL-5">
      <path
         id="path141"
         d="m 41.9,70 q -3.8,4 -7.45,8.6 v 25.85 H 41.9 V 70 m -11,13.1 q -3.85,5 -7.7,10.5 v 10.85 h 7.7 V 83.1 m 153.55,-4.85 q -3.65,-4.15 -7.2,-7.95 v 34.15 h 7.2 v -26.2 m 12.15,14.8 Q 192.5,87.7 188.45,82.9 v 21.55 h 8.15 V 93.05 M 215.95,8.95 V 0 H 5.75 V 8.95 H 24.2 V 12.4 H 24 v 54 Q 11.55,82.85 0,104.45 h 6 q 1.35,-2.5 8.2,-13.75 3.45,-5.75 8.35,-13.7 0.7,-1.2 1.45,-2.4 1.55,-2.25 6.1,-8.1 2.05,-2.65 3.4,-4.3 1.15,-1.5 1.75,-2.25 3.65,-4.3 7.45,-8.1 0.95,-1 5.55,-5.1 0.5,-0.5 1.1,-1.05 6.75,-6.05 9.95,-8.3 0.2,-0.25 0.25,-0.2 4.5,-3.3 9.15,-5.9 5.1,-2.95 10.35,-5.15 L 79.4,26 q 3.8,-1.6 11.9,-4.1 0.8,-0.2 5.15,-1.1 3.35,-0.65 6.4,-0.95 0.85,-0.1 1.7,-0.15 3.75,-0.25 5.5,-0.25 0.3,-0.05 0.6,0 7.65,0.1 15.15,1.85 l 2.6,0.6 q 0.15,0 0.35,0.05 7.4,1.85 14.7,5.3 0.1,-0.05 2.2,1.05 0.15,0.05 0.3,0.15 1.45,0.75 3.4,1.9 4.15,2.4 10.55,6.6 l 1.45,1.25 q 0.1,0.05 0.25,0.15 0.9,0.7 2.15,1.7 1.86387,1.529297 4.55,3.75 0.12402,0.09609 0.25,0.2 4.25,3.6 4.25,3.7 l -0.1,0.05 q 0.5,0.45 1,0.95 0.1,0.05 0.25,0.2 1.65,1.5 3.25,3.2 0.45,0.45 0.85,0.9 3.35,3.45 6.75,7.3 0,-0.05 0.15,0 l 0.3,0.65 q 0.2,0.25 0.45,0.5 0.1,0.15 0.25,0.25 1.6,1.95 3.2,3.95 l 1.75,-1.25 -1.75,1.25 q 0.05,0.05 0.1,0.1 2.4,2.95 4.85,6.15 0,-0.05 0.9,1.2 0.1,0.1 0.2,0.25 1.1,1.5 2.2,3.05 1.1,1.55 2.25,3.15 2.9,4.2 5.8,8.65 l 0.5,0.9 q 0.1,0.15 0.2,0.35 0.4,0.6 0.8,1.25 l 2,3.3 q -0.05,-0.1 -0.05,-0.15 1.20742,1.954687 2.4,3.95 1.91895,3.25801 3.8,6.65 h 5.7 q -4.70762,-8.305273 -9.5,-15.9 -6.86328,-10.796094 -13.9,-20.1 V 8.95 h 18.55 m -30.7,0 h 4 v 49.4 q -1.95,-2.3 -4,-4.5 V 40.7 h 0.2 V 13.45 h -0.2 v -4.5 m -7.2,37.35 Q 173.2127,41.520117 168.3,37.4 138.98887,13.064648 107,13.45 q -2.1,0.15 -4.15,0.4 -31.95,3.8 -60,31.05 V 13.45 H 42.7 V 8.95 H 178.05 V 46.3 M 31.7,8.95 h 3.55 v 43.8 q -1.75,1.95 -3.55,4.1 z"
         inkscape:connector-curvature="0"
         style="fill:#d03f33;stroke:none" />
      <path
         id="path143"
         d="M 17.7,92.45 14.2,90.7 Q 7.35,101.95 6,104.45 h 4.25 q 1.4,-2.5 6.3,-10.2 0.6,-0.95 1.15,-1.8 m -3.5,-1.75 3.5,1.75 q 3.95,-6.2 5.5,-8.35 0.4,-0.6 3.1,-4.2 L 22.55,77 q -4.9,7.95 -8.35,13.7 M 37.7,66.05 33.5,62.2 q -1.35,1.65 -3.4,4.3 -4.55,5.85 -6.1,8.1 -0.75,1.2 -1.45,2.4 l 3.75,2.9 q 0.05,-0.1 0.15,-0.2 3.05,-4.05 4.45,-5.75 1.8,-2.25 3.55,-4.3 1.35,-1.5 3.1,-3.45 0.05,-0.1 0.15,-0.15 m -2.45,-6.1 q -0.6,0.75 -1.75,2.25 l 4.2,3.85 q 2.95,-3.25 4.2,-4.45 2.15,-2.15 9.85,-8.5 0.5,-0.4 1,-0.8 l -4.5,-5.55 q -4.6,4.1 -5.55,5.1 -3.8,3.8 -7.45,8.1 M 59.3,37.4 q -3.2,2.25 -9.95,8.3 -0.6,0.55 -1.1,1.05 l 4.5,5.55 q 7.55,-6.15 10.6,-8.05 0.3,-0.2 0.25,-0.2 4.4,-2.85 9,-5.05 l -3.9,-7.7 q -4.65,2.6 -9.15,5.9 -0.05,-0.05 -0.25,0.2 M 84,34.45 q 1.45,-0.55 10.3,-2.7 l -3,-9.85 Q 83.2,24.4 79.4,26 l -0.35,0.15 Q 73.8,28.35 68.7,31.3 l 3.9,7.7 q 4.85,-2.35 7.4,-3.15 2.5,-0.85 4,-1.4 m 26.05,-15 q -1.75,0 -5.5,0.25 -0.85,0.05 -1.7,0.15 -3.05,0.3 -6.4,0.95 -4.35,0.9 -5.15,1.1 l 3,9.85 q 0.9,-0.2 2.45,-0.5 1.5,-0.35 4.25,-0.6 0.95,-0.1 1.85,-0.15 1.65,-0.1 3.1,-0.15 2.15,-0.1 4.1,-0.05 V 19.45 m 51.55,18.9 q -0.15,-0.1 -0.25,-0.15 l -1.45,-1.25 q -6.4,-4.2 -10.55,-6.6 l -5.65,8 q 6.65,3 9.85,4.95 l 4.6,3.1 5.6,-6.35 q -1.25,-1 -2.15,-1.7 M 128.4,21.9 125.8,21.3 q -7.5,-1.75 -15.15,-1.85 -0.3,-0.05 -0.6,0 V 30.3 q 5.75,0.05 8.7,0.55 2.95,0.5 3,0.55 0,0.05 2.8,0.65 L 128.4,21.9 m 0.35,0.05 q -0.2,-0.05 -0.35,-0.05 l -3.85,10.15 q 1.25,0.3 3.1,0.7 6.85,1.6 10.05,2.8 -0.05,0.05 0,0.15 l 6,2.65 5.65,-8 q -1.95,-1.15 -3.4,-1.9 -0.15,-0.1 -0.3,-0.15 -2.1,-1.1 -2.2,-1.05 -7.3,-3.45 -14.7,-5.3 m 78.2,68.75 -4,1.65 1.9,2.75 q 4.35,6.3 6.3,9.35 h 3.95 q -1.88105,-3.39199 -3.8,-6.65 -1.19258,-1.995313 -2.4,-3.95 0,0.05 0.05,0.15 l -2,-3.3 m -7.3,-11.15 -4.7,2.15 q 0.75,0.95 1.65,2 2.25,2.85 4.45,5.9 l 1.9,2.75 4,-1.65 q -0.4,-0.65 -0.8,-1.25 -0.1,-0.2 -0.2,-0.35 l -0.5,-0.9 q -2.9,-4.45 -5.8,-8.65 m -10.4,-13.8 q -0.05,-0.05 -0.1,-0.1 l -4.95,3.4 q 0.15,0.1 0.25,0.25 2.05,2.15 4,4.45 0.3,0.35 0.65,0.75 -0.05,0.05 5.85,7.2 l 4.7,-2.15 q -1.15,-1.6 -2.25,-3.15 -1.1,-1.55 -2.2,-3.05 -0.1,-0.15 -0.2,-0.25 -0.9,-1.25 -0.9,-1.2 -2.45,-3.2 -4.85,-6.15 m -4,-4.8 -0.3,-0.65 q -0.15,-0.05 -0.15,0 -3.4,-3.85 -6.75,-7.3 -0.4,-0.45 -0.85,-0.9 l -5.5,4.8 q 3.7,3.2 5.55,5 0.85,0.7 1.65,1.5 -0.1,0.1 5.3,5.65 l 4.95,-3.4 q -1.6,-2 -3.2,-3.95 -0.15,-0.1 -0.25,-0.25 -0.25,-0.25 -0.45,-0.5 M 173.7,48.7 q -0.5,-0.5 -1,-0.95 l 0.1,-0.05 q 0,-0.1 -4.25,-3.7 -0.12598,-0.103906 -0.25,-0.2 -2.68613,-2.220703 -4.55,-3.75 l -5.6,6.35 q 5.2,3.5 7.6,5.4 v 0.05 l 4.35,3.7 q 0.85,0.7 1.6,1.35 l 5.5,-4.8 q -1.6,-1.7 -3.25,-3.2 -0.15,-0.15 -0.25,-0.2 z"
         inkscape:connector-curvature="0"
         style="fill:#ffffff;stroke:none" />
      <path
         id="path145"
         d="m 184.45,69.3 q -0.1,-0.15 -0.25,-0.25 -5.4,-5.55 -5.3,-5.65 -0.8,-0.8 -1.65,-1.5 -1.85,-1.8 -5.55,-5 -0.75,-0.65 -1.6,-1.35 l -4.35,-3.7 V 51.8 q -2.4,-1.9 -7.6,-5.4 l -4.6,-3.1 q -3.2,-1.95 -9.85,-4.95 l -6,-2.65 q -0.05,-0.1 0,-0.15 -3.2,-1.2 -10.05,-2.8 -1.85,-0.4 -3.1,-0.7 -2.8,-0.6 -2.8,-0.65 -0.05,-0.05 -3,-0.55 -2.95,-0.5 -8.7,-0.55 -1.95,-0.05 -4.1,0.05 -1.45,0.05 -3.1,0.15 -0.9,0.05 -1.85,0.15 -2.75,0.25 -4.25,0.6 -1.55,0.3 -2.45,0.5 -8.85,2.15 -10.3,2.7 -1.5,0.55 -4,1.4 -2.55,0.8 -7.4,3.15 -4.6,2.2 -9,5.05 0.05,0 -0.25,0.2 -3.05,1.9 -10.6,8.05 -0.5,0.4 -1,0.8 -7.7,6.35 -9.85,8.5 -1.25,1.2 -4.2,4.45 -0.1,0.05 -0.15,0.15 -1.75,1.95 -3.1,3.45 -1.75,2.05 -3.55,4.3 -1.4,1.7 -4.45,5.75 -0.1,0.1 -0.15,0.2 -2.7,3.6 -3.1,4.2 -1.55,2.15 -5.5,8.35 -0.55,0.85 -1.15,1.8 -4.9,7.7 -6.3,10.2 h 5.7 q 3.6,-5.7 7.25,-10.85 3.85,-5.5 7.7,-10.5 1.8,-2.3 3.55,-4.5 Q 38.1,74 41.9,70 70.15,38.8 102.85,36.2 q 3,-0.25 6,-0.25 30.62285,-0.129688 59.45,25.65 4.49668,4.044336 8.95,8.7 3.55,3.8 7.2,7.95 2,2.2 4,4.65 4.05,4.8 8.15,10.15 4.2,5.45 8.35,11.4 h 6.2 q -1.95,-3.05 -6.3,-9.35 l -1.9,-2.75 -1.9,-2.75 q -2.2,-3.05 -4.45,-5.9 -0.9,-1.05 -1.65,-2 -5.9,-7.15 -5.85,-7.2 -0.35,-0.4 -0.65,-0.75 -1.95,-2.3 -4,-4.45 z"
         inkscape:connector-curvature="0"
         style="fill:#b7362b;stroke:none" />
    </g>
    <path
       d="m 211.15,104.45 h 3.95 m -209.1,0 h 4.25 M 190.9,64.4 l -1.75,1.25 -4.95,3.4 m 10.75,12.65 4.7,-2.15 M 171.7,56.9 l 5.5,-4.8 m 25.75,40.25 4,-1.65 m -63.25,-52.35 5.65,-8 m -24.8,1.7 3.85,-10.15 m 29.75,24.5 5.6,-6.35 m -53.7,-20.6 V 30.3 m -15.75,1.45 -3,-9.85 m -22.6,9.4 3.9,7.7 m -39.1,23.2 4.2,3.85 M 14.2,90.7 17.7,92.45 M 22.55,77 26.3,79.9 m 21.95,-33.15 4.5,5.55"
       id="Layer0_0_1_STROKES"
       inkscape:connector-curvature="0"
       style="fill:none;stroke:#999999;stroke-width:1;stroke-linecap:round;stroke-linejoin:round" />
    <clipPath
       clipPathUnits="userSpaceOnUse"
       id="clipPath228">
      <g
         id="use230"
         inkscape:label="Clip">
        <rect
           style="fill:#ffffff;fill-opacity:0.03056766;stroke:#000000;stroke-width:1.75748026;stroke-miterlimit:4;stroke-dasharray:none;stroke-opacity:0"
           id="rect285"
           width="1019.4778"
           height="315.58197"
           x="7.4452901"
           y="0.70009261" />
      </g>
    </clipPath>
  </defs>
  <g
     inkscape:groupmode="layer"
     id="layer2"
     inkscape:label="Layer 2"
     transform="translate(0,-106)">
    <g
       id="g93"
       transform="matrix(1.041947,0,0,1.0765594,-32.630636,84.479537)">
      <g
         id="g21"
         transform="translate(121.12081,65.09354)">
        <use
           height="100%"
           width="100%"
           y="0"
           x="0"
           id="use19"
           xlink:href="#Layer0_0_FILL" />
      </g>
      <g
         transform="matrix(1.089793,0,0,1.0891123,418.42081,138.1301)"
         id="g139">
        <g
           id="g105">
          <use
             height="100%"
             width="100%"
             y="0"
             x="0"
             xlink:href="#Layer0_0_FILL-7"
             id="use103" />
        </g>
        <g
           transform="matrix(0.14553833,0,0,0.1733551,51.4,12.5)"
           id="g116">
          <clipPath
             id="Mask_Mask_1">
            <rect
               style="fill:#ffffff;stroke:none"
               x="-2"
               y="-2"
               width="742.90002"
               height="113.2"
               id="rect107" />
          </clipPath>
          <text
             style="writing-mode:lr-tb"
             clip-path="url(#Mask_Mask_1)"
             id="text114">
            <tspan
               style="font-weight:bold;font-size:48px;font-family:Arial;baseline-shift:0%;fill:#000000"
               x="0.1"
               y="43.450001"
               baseline-shift="0%"
               font-weight="bold"
               font-size="48"
               xml:space="preserve"
               id="tspan110">GOVT. ENGINEERING COLLEGE</tspan>            <tspan
               style="font-weight:bold;font-size:48px;font-family:Arial;baseline-shift:0%;fill:#000000"
               x="246.8"
               y="99.050003"
               baseline-shift="0%"
               font-weight="bold"
               font-size="48"
               xml:space="preserve"
               id="tspan112">THRISSUR</tspan>          </text>
        </g>
      </g>
      <g
         transform="translate(427.32081,211.74354)"
         id="g155">
        <use
           height="100%"
           width="100%"
           y="0"
           x="0"
           xlink:href="#Layer0_0_FILL-5"
           id="use151" />
        <use
           height="100%"
           width="100%"
           y="0"
           x="0"
           xlink:href="#Layer0_0_1_STROKES"
           id="use153" />
      </g>
    </g>
  </g>
  <g
     id="g73"
     transform="matrix(1.1295067,0,0,1.0338508,-1.6829146,3.5173561)">
    <use
       id="use71"
       xlink:href="#Layer0_0_FILL-6"
       x="0"
       y="0"
       width="100%"
       height="100%" />
  </g>
  <g
     inkscape:groupmode="layer"
     id="layer1"
     inkscape:label="Layer 1"
     transform="translate(0,-106)" />
</svg>
